<svg xmlns="http://www.w3.org/2000/svg" xmlns:xlink="http://www.w3.org/1999/xlink" width="286.352" height="198.617" viewBox="0 0 286.352 198.617">
  <defs>
    <linearGradient id="linear-gradient" x1="0.313" y1="1.019" x2="0.672" y2="0.024" gradientUnits="objectBoundingBox">
      <stop offset="0" stop-color="#a1a1bd"/>
      <stop offset="1" stop-color="#fff"/>
    </linearGradient>
  </defs>
  <g id="plusvalia" transform="translate(-1016.15 -690.424)">
    <g id="Group_238" data-name="Group 238">
      <path id="Path_769" data-name="Path 769" d="M1300.6,778.824l-95.017-54.254a3.518,3.518,0,0,0-3.544-.014L1023.993,828.445a3.548,3.548,0,0,0,.283,6.111l94.24,54a3.515,3.515,0,0,0,3.537.023l178.822-103.632A3.545,3.545,0,0,0,1300.6,778.824Z" fill="url(#linear-gradient)"/>
    </g>
    <g id="Group_253" data-name="Group 253">
      <path id="Path_770" data-name="Path 770" d="M1028.04,835.457l92.18,51.255.03-9.919-92.18-51.256Z" fill="#58676a"/>
      <path id="Path_771" data-name="Path 771" d="M1120.22,886.712l97.76-56.843.02-9.918-97.75,56.842Z" fill="#283838"/>
      <path id="Path_772" data-name="Path 772" d="M1028.95,763.729l-.14,62.178,91.44,50.886.15-57.34-44.72-65.793Z" fill="#ebe7dc"/>
      <path id="Path_773" data-name="Path 773" d="M1120.25,876.793l96.67-56.178.14-50.629-96.66,49.467Z" fill="#b8b4a9"/>
      <g id="Group_240" data-name="Group 240">
        <g id="Group_239" data-name="Group 239">
          <path id="Path_774" data-name="Path 774" d="M1132.51,863.129l30.72-17.739v-28.9l-30.72,17.74Z" fill="#8d8c91"/>
          <path id="Path_775" data-name="Path 775" d="M1146.1,852.161l14.47-8.307V821.1L1146.1,829.4Z" fill="#58676a"/>
          <path id="Path_776" data-name="Path 776" d="M1135.17,858.524l8.21-4.649V831.117l-8.21,4.649Z" fill="#58676a"/>
        </g>
      </g>
      <g id="Group_242" data-name="Group 242">
        <g id="Group_241" data-name="Group 241">
          <path id="Path_777" data-name="Path 777" d="M1177.93,836.822l30.73-17.74v-28.9l-30.73,17.739Z" fill="#8d8c91"/>
          <path id="Path_778" data-name="Path 778" d="M1191.52,825.854l14.48-8.307V794.789l-14.48,8.307Z" fill="#58676a"/>
          <path id="Path_779" data-name="Path 779" d="M1180.59,832.217l8.21-4.65V804.809l-8.21,4.649Z" fill="#58676a"/>
        </g>
      </g>
      <path id="Path_780" data-name="Path 780" d="M1016.15,767.145l59.39-20.543,96.67-56.178-57.62,19.657Z" fill="#458401"/>
      <path id="Path_781" data-name="Path 781" d="M1132.52,819.912c-.005.011-.011.023-.018.04l.015-.032.011-.023-.005.011Z" fill="#606060"/>
      <path id="Path_782" data-name="Path 782" d="M1132.53,819.9c0-.005.006-.012.008-.016l.006-.012h0C1132.54,819.879,1132.54,819.889,1132.53,819.9Z" fill="#606060"/>
      <path id="Path_783" data-name="Path 783" d="M1132.55,819.869v-.006Z" fill="#606060"/>
      <g id="Group_244" data-name="Group 244">
        <g id="Group_243" data-name="Group 243">
          <path id="Path_784" data-name="Path 784" d="M1078.8,846.435l30.73,17.739v-28.9l-30.73-17.739Z" fill="#b8b4a9"/>
          <path id="Path_785" data-name="Path 785" d="M1081.46,844.9l14.47,8.309V830.448l-14.47-8.307Z" fill="#8d8c91"/>
          <path id="Path_786" data-name="Path 786" d="M1098.65,854.919l8.22,4.649V836.811l-8.22-4.65Z" fill="#8d8c91"/>
        </g>
      </g>
      <path id="Path_787" data-name="Path 787" d="M1016.15,767.145l2.45,3.437,55.81-18.9L1125.9,829.6l3.76-1.486-53.91-81.532Z" fill="#acdf46"/>
      <path id="Path_788" data-name="Path 788" d="M1075.54,746.6l54.06,81.5,97.09-55.533-54.48-82.149Z" fill="#85bc2d"/>
      <g id="Group_250" data-name="Group 250">
        <g id="Group_245" data-name="Group 245">
          <path id="Path_789" data-name="Path 789" d="M1072.26,766.9a20.758,20.758,0,0,0-10.335-3.058c-9.193,0-15.31,7.756-15.582,19.759l-.02.869,48.956,28.267-.043-2.6C1094.98,794.706,1086.85,774.3,1072.26,766.9Z" fill="#b8b4a9"/>
        </g>
        <g id="Group_246" data-name="Group 246">
          <path id="Path_790" data-name="Path 790" d="M1085.71,786.2c-.015-.025-.028-.051-.048-.087s-.027-.051-.045-.084-.03-.053-.045-.08-.031-.057-.049-.088-.031-.056-.048-.087-.03-.055-.049-.087-.029-.054-.049-.086-.028-.054-.047-.086l-.048-.084c-.016-.027-.03-.055-.047-.084a49.462,49.462,0,0,0-6.769-9.334c-.019-.02-.038-.041-.06-.063s-.038-.041-.061-.064l-.059-.063-.061-.063-.061-.064-.062-.063c-.017-.02-.036-.038-.181-.188-.019-.019-.035-.038-.061-.063s-.038-.04-.06-.061-.037-.039-.061-.063c-.161-.165-.323-.327-.489-.49-.02-.019-.038-.037-1.435-1.339a31.1,31.1,0,0,0-4.416-3.288l-.069,24.386,14.776-7.572c-.1-.19-.2-.381-.3-.571C1085.77,786.323,1085.74,786.266,1085.71,786.2Z" fill="#8d8c91"/>
        </g>
        <g id="Group_247" data-name="Group 247">
          <path id="Path_791" data-name="Path 791" d="M1092.03,806.278c0-.025-.005-.051-.008-.082s0-.048-.008-.082-.005-.045-.008-.081c0-.021-.005-.043-.008-.078s-.005-.05-.007-.076c-.012-.1-.023-.213-.035-.322,0-.024-.005-.049-.065-.562,0-.025-.006-.05-.076-.593a53.227,53.227,0,0,0-4.983-16.019l-14.435,7.4,19.667,10.894s0-.043-.006-.078C1092.05,806.491,1092.04,806.386,1092.03,806.278Z" fill="#8d8c91"/>
        </g>
        <g id="Group_248" data-name="Group 248">
          <path id="Path_792" data-name="Path 792" d="M1056.83,768.529l-.891.548L1069.9,793.5l-.121-24.1C1064.78,766.664,1060.6,766.452,1056.83,768.529Z" fill="#8d8c91"/>
        </g>
        <g id="Group_249" data-name="Group 249">
          <path id="Path_793" data-name="Path 793" d="M1049.77,779.9c-.007.043-.014.087-.021.136,0,.021-.007.042-.012.068s-.005.039-.05.346c0,.02-.006.04-.01.065-.017.116-.031.231-.046.349l-.009.071-.01.073c0,.021-.005.044-.008.067s-.006.046-.008.07c-.018.14-.032.281-.048.433,0,.021,0,.041-.047.5,0,.022,0,.045-.006.069l18.6,11.02-13.447-23.323C1052.06,772.054,1050.62,775.087,1049.77,779.9Z" fill="#8d8c91"/>
        </g>
      </g>
      <g id="Group_252" data-name="Group 252">
        <g id="Group_251" data-name="Group 251">
          <path id="Path_794" data-name="Path 794" d="M1038.35,823.317l30.73,17.74v-28.9l-30.73-17.739Z" fill="#b8b4a9"/>
          <path id="Path_795" data-name="Path 795" d="M1041.01,821.781l14.47,8.308V807.331l-14.47-8.308Z" fill="#8d8c91"/>
          <path id="Path_796" data-name="Path 796" d="M1058.2,831.8l8.22,4.649V813.693l-8.22-4.649Z" fill="#8d8c91"/>
        </g>
      </g>
    </g>
    <g id="Group_266" data-name="Group 266">
      <g id="Group_257" data-name="Group 257">
        <g id="Group_256" data-name="Group 256">
          <g id="Group_254" data-name="Group 254">
            <path id="Path_797" data-name="Path 797" d="M1131.13,820.028l40.62-24.662.91-1.754-40.61,24.662Z" fill="#fff"/>
          </g>
          <path id="Path_798" data-name="Path 798" d="M1102.83,772.636l29.22,45.638,40.61-24.662-29.21-45.637Z" fill="#ebe7dc"/>
          <path id="Path_799" data-name="Path 799" d="M1105.08,772.634l27.85,43.523,37.9-23.033L1142.98,749.6Z" fill="#283838"/>
          <g id="Group_255" data-name="Group 255">
            <path id="Path_800" data-name="Path 800" d="M1101.92,774.391l29.21,45.637.92-1.754-29.22-45.638Z" fill="#d1cec5"/>
          </g>
        </g>
      </g>
      <g id="Group_262" data-name="Group 262">
        <path id="Path_801" data-name="Path 801" d="M1116.5,777.3a.575.575,0,0,0-.491-.243.775.775,0,0,0-.4.112l-2.419,1.449a.659.659,0,0,0-.288.333.451.451,0,0,0,.044.411l1.3,1.984a.583.583,0,0,0,.5.244.785.785,0,0,0,.4-.111l2.419-1.449a.64.64,0,0,0,.282-.326.465.465,0,0,0-.048-.421Z" fill="#58676a" opacity="0.7"/>
        <path id="Path_802" data-name="Path 802" d="M1124.39,772.579a.579.579,0,0,0-.492-.239.783.783,0,0,0-.4.113l-2.419,1.448a.645.645,0,0,0-.283.327.458.458,0,0,0,.045.414l1.3,1.984a.585.585,0,0,0,.5.247h0a.775.775,0,0,0,.4-.111l2.419-1.448a.659.659,0,0,0,.287-.332.463.463,0,0,0-.046-.419Z" fill="#58676a" opacity="0.7"/>
        <path id="Path_803" data-name="Path 803" d="M1120.45,774.939a.574.574,0,0,0-.492-.239.79.79,0,0,0-.4.112l-2.42,1.449a.651.651,0,0,0-.287.334.451.451,0,0,0,.044.412l1.3,1.983a.581.581,0,0,0,.5.245.775.775,0,0,0,.4-.113l2.42-1.448a.65.65,0,0,0,.286-.331.461.461,0,0,0-.046-.42Z" fill="#58676a" opacity="0.7"/>
        <path id="Path_804" data-name="Path 804" d="M1128.33,770.219a.577.577,0,0,0-.491-.241.785.785,0,0,0-.405.114l-2.42,1.449a.654.654,0,0,0-.282.326.454.454,0,0,0,.046.415l1.3,1.985a.586.586,0,0,0,.5.246.776.776,0,0,0,.4-.11l2.421-1.449a.655.655,0,0,0,.287-.331.463.463,0,0,0-.048-.42Z" fill="#58676a" opacity="0.7"/>
        <path id="Path_805" data-name="Path 805" d="M1133.64,767.039a.58.58,0,0,0-.492-.241.777.777,0,0,0-.4.111l-2.419,1.448a.655.655,0,0,0-.29.334.453.453,0,0,0,.046.412l1.3,1.984a.585.585,0,0,0,.5.246.772.772,0,0,0,.4-.115l2.42-1.448a.641.641,0,0,0,.282-.326.463.463,0,0,0-.049-.42Z" fill="#58676a" opacity="0.7"/>
        <path id="Path_806" data-name="Path 806" d="M1137.58,764.679a.577.577,0,0,0-.492-.241.755.755,0,0,0-.4.111l-2.42,1.448a.663.663,0,0,0-.288.333.453.453,0,0,0,.044.412l1.3,1.985a.583.583,0,0,0,.5.244.78.78,0,0,0,.4-.112l2.421-1.449a.645.645,0,0,0,.281-.325.462.462,0,0,0-.048-.421Z" fill="#58676a" opacity="0.7"/>
        <path id="Path_807" data-name="Path 807" d="M1139.7,767.917a.583.583,0,0,0-.5-.247.779.779,0,0,0-.4.111l-2.42,1.449a.651.651,0,0,0-.287.332.461.461,0,0,0,.047.418l1.3,1.984a.575.575,0,0,0,.492.24.8.8,0,0,0,.4-.112l2.42-1.449a.645.645,0,0,0,.283-.327.463.463,0,0,0-.047-.416Z" fill="#58676a" opacity="0.7"/>
        <path id="Path_808" data-name="Path 808" d="M1135.76,770.277a.584.584,0,0,0-.5-.247.785.785,0,0,0-.4.111l-2.42,1.449a.654.654,0,0,0-.288.331.466.466,0,0,0,.047.419l1.3,1.984a.575.575,0,0,0,.49.241.791.791,0,0,0,.406-.114l2.419-1.449a.647.647,0,0,0,.283-.326.457.457,0,0,0-.046-.415Z" fill="#58676a" opacity="0.7"/>
        <path id="Path_809" data-name="Path 809" d="M1126.51,775.817a.585.585,0,0,0-.5-.245.774.774,0,0,0-.4.113l-2.42,1.448a.65.65,0,0,0-.282.326.465.465,0,0,0,.048.421l1.3,1.984a.581.581,0,0,0,.492.241.77.77,0,0,0,.4-.111l2.42-1.448a.661.661,0,0,0,.287-.333.456.456,0,0,0-.043-.412Z" fill="#58676a" opacity="0.7"/>
        <path id="Path_810" data-name="Path 810" d="M1130.45,773.457a.583.583,0,0,0-.495-.246.784.784,0,0,0-.4.113l-2.42,1.449a.649.649,0,0,0-.282.326.465.465,0,0,0,.048.421l1.3,1.983a.576.576,0,0,0,.492.242.77.77,0,0,0,.4-.111l2.419-1.448a.667.667,0,0,0,.29-.333.457.457,0,0,0-.046-.413Z" fill="#58676a" opacity="0.7"/>
        <path id="Path_811" data-name="Path 811" d="M1122.56,778.178a.581.581,0,0,0-.5-.244.783.783,0,0,0-.4.112l-2.42,1.448a.651.651,0,0,0-.285.332.46.46,0,0,0,.045.419l1.3,1.984a.579.579,0,0,0,.492.239.781.781,0,0,0,.4-.113l2.42-1.448a.663.663,0,0,0,.288-.333.453.453,0,0,0-.045-.412Z" fill="#58676a" opacity="0.7"/>
        <path id="Path_812" data-name="Path 812" d="M1118.61,780.542a.581.581,0,0,0-.5-.247.77.77,0,0,0-.4.111l-2.419,1.448a.659.659,0,0,0-.287.332.465.465,0,0,0,.046.419l1.3,1.984a.577.577,0,0,0,.492.239.784.784,0,0,0,.4-.112l2.421-1.449a.645.645,0,0,0,.282-.326.454.454,0,0,0-.046-.415Z" fill="#58676a" opacity="0.7"/>
        <path id="Path_813" data-name="Path 813" d="M1141.25,753.49a.582.582,0,0,0-.5-.245.786.786,0,0,0-.4.112l-2.42,1.449a.636.636,0,0,0-.279.324.465.465,0,0,0,.046.422l1.3,1.984a.58.58,0,0,0,.493.242.783.783,0,0,0,.4-.111l2.419-1.449a.66.66,0,0,0,.29-.332.456.456,0,0,0-.046-.413Z" fill="#58676a" opacity="0.7"/>
        <path id="Path_814" data-name="Path 814" d="M1133.36,758.214a.585.585,0,0,0-.5-.245.764.764,0,0,0-.393.109l-2.42,1.449a.651.651,0,0,0-.284.33.47.47,0,0,0,.044.42l1.3,1.984a.576.576,0,0,0,.492.239.78.78,0,0,0,.4-.112l2.42-1.449a.645.645,0,0,0,.283-.327.458.458,0,0,0-.045-.414Z" fill="#58676a" opacity="0.7"/>
        <path id="Path_815" data-name="Path 815" d="M1137.31,755.85a.588.588,0,0,0-.5-.243.77.77,0,0,0-.4.111l-2.421,1.448a.645.645,0,0,0-.279.326.47.47,0,0,0,.046.421l1.3,1.984a.579.579,0,0,0,.492.242.77.77,0,0,0,.4-.111l2.42-1.449a.653.653,0,0,0,.287-.333.454.454,0,0,0-.044-.412Z" fill="#58676a" opacity="0.7"/>
        <path id="Path_816" data-name="Path 816" d="M1129.42,760.574a.584.584,0,0,0-.5-.244.77.77,0,0,0-.393.108l-2.421,1.448a.661.661,0,0,0-.285.331.467.467,0,0,0,.045.42l1.3,1.984a.574.574,0,0,0,.49.241.777.777,0,0,0,.405-.115l2.419-1.447a.641.641,0,0,0,.283-.328.455.455,0,0,0-.045-.414Z" fill="#58676a" opacity="0.7"/>
        <path id="Path_817" data-name="Path 817" d="M1116.23,768.475a.588.588,0,0,0-.5-.244.771.771,0,0,0-.4.112l-2.42,1.448a.651.651,0,0,0-.284.331.47.47,0,0,0,.043.42l1.3,1.983a.573.573,0,0,0,.492.24.79.79,0,0,0,.4-.112l2.419-1.449a.654.654,0,0,0,.288-.333.453.453,0,0,0-.044-.412Z" fill="#58676a" opacity="0.7"/>
        <path id="Path_818" data-name="Path 818" d="M1120.17,766.114a.587.587,0,0,0-.5-.243.768.768,0,0,0-.4.111l-2.421,1.448a.637.637,0,0,0-.279.325.471.471,0,0,0,.046.422l1.3,1.984a.579.579,0,0,0,.492.242.777.777,0,0,0,.4-.111l2.421-1.449a.662.662,0,0,0,.287-.333.453.453,0,0,0-.045-.412Z" fill="#58676a" opacity="0.7"/>
        <path id="Path_819" data-name="Path 819" d="M1124.11,763.754a.582.582,0,0,0-.5-.245.783.783,0,0,0-.4.112l-2.42,1.449a.64.64,0,0,0-.279.324.465.465,0,0,0,.046.422l1.3,1.985a.576.576,0,0,0,.491.242.77.77,0,0,0,.4-.111l2.42-1.449a.657.657,0,0,0,.289-.332.453.453,0,0,0-.046-.413Z" fill="#58676a" opacity="0.7"/>
        <path id="Path_820" data-name="Path 820" d="M1147.59,763.193a.58.58,0,0,0-.495-.247.8.8,0,0,0-.4.113l-2.42,1.45a.635.635,0,0,0-.281.324.467.467,0,0,0,.047.422l1.3,1.984a.579.579,0,0,0,.492.242.783.783,0,0,0,.4-.111l2.419-1.449a.656.656,0,0,0,.289-.333.454.454,0,0,0-.046-.412Z" fill="#58676a" opacity="0.7"/>
        <path id="Path_821" data-name="Path 821" d="M1143.36,756.723a.576.576,0,0,0-.49-.242.79.79,0,0,0-.406.115l-2.419,1.448a.653.653,0,0,0-.283.327.452.452,0,0,0,.046.414l1.3,1.984a.583.583,0,0,0,.5.246.779.779,0,0,0,.394-.11l2.419-1.448a.65.65,0,0,0,.287-.332.467.467,0,0,0-.047-.418Z" fill="#58676a" opacity="0.7"/>
        <path id="Path_822" data-name="Path 822" d="M1145.48,759.955a.577.577,0,0,0-.49-.242.792.792,0,0,0-.405.114l-2.42,1.448a.659.659,0,0,0-.283.328.454.454,0,0,0,.046.415l1.3,1.983a.581.581,0,0,0,.5.247.775.775,0,0,0,.4-.11l2.421-1.449a.656.656,0,0,0,.288-.332.459.459,0,0,0-.048-.418Z" fill="#58676a" opacity="0.7"/>
        <path id="Path_823" data-name="Path 823" d="M1112.28,770.839a.587.587,0,0,0-.5-.245.775.775,0,0,0-.394.109l-2.42,1.449a.647.647,0,0,0-.283.33.467.467,0,0,0,.043.42l1.3,1.984a.578.578,0,0,0,.493.24.781.781,0,0,0,.4-.113l2.42-1.449a.647.647,0,0,0,.283-.328.454.454,0,0,0-.046-.413Z" fill="#58676a" opacity="0.7"/>
        <path id="Path_824" data-name="Path 824" d="M1131.53,763.807a.582.582,0,0,0-.492-.242.769.769,0,0,0-.4.112l-2.421,1.448a.659.659,0,0,0-.288.332.455.455,0,0,0,.046.414l1.3,1.983a.581.581,0,0,0,.5.244.776.776,0,0,0,.4-.112l2.42-1.448a.644.644,0,0,0,.28-.325.475.475,0,0,0-.046-.422Z" fill="#58676a" opacity="0.7"/>
        <path id="Path_825" data-name="Path 825" d="M1139.42,759.082a.581.581,0,0,0-.492-.239.791.791,0,0,0-.4.112l-2.42,1.449a.646.646,0,0,0-.282.327.455.455,0,0,0,.045.414l1.3,1.984a.588.588,0,0,0,.5.246.769.769,0,0,0,.394-.11l2.42-1.448a.654.654,0,0,0,.285-.331.473.473,0,0,0-.045-.42Z" fill="#58676a" opacity="0.7"/>
        <path id="Path_826" data-name="Path 826" d="M1126.22,766.986a.572.572,0,0,0-.49-.241.782.782,0,0,0-.4.114l-2.42,1.449a.648.648,0,0,0-.284.327.458.458,0,0,0,.046.414l1.3,1.985a.586.586,0,0,0,.5.244.77.77,0,0,0,.394-.109l2.42-1.449a.651.651,0,0,0,.285-.33.47.47,0,0,0-.045-.42Z" fill="#58676a" opacity="0.7"/>
        <path id="Path_827" data-name="Path 827" d="M1135.47,761.446a.578.578,0,0,0-.492-.241.765.765,0,0,0-.4.111l-2.42,1.448a.657.657,0,0,0-.287.333.45.45,0,0,0,.043.412l1.3,1.984a.581.581,0,0,0,.5.243.786.786,0,0,0,.4-.11l2.421-1.449a.64.64,0,0,0,.279-.324.468.468,0,0,0-.046-.422Z" fill="#58676a" opacity="0.7"/>
        <path id="Path_828" data-name="Path 828" d="M1122.28,769.347a.576.576,0,0,0-.493-.239.777.777,0,0,0-.4.112l-2.42,1.449a.639.639,0,0,0-.283.327.452.452,0,0,0,.046.414l1.3,1.984a.585.585,0,0,0,.5.246.763.763,0,0,0,.393-.11l2.421-1.448a.656.656,0,0,0,.284-.331.467.467,0,0,0-.044-.419Z" fill="#58676a" opacity="0.7"/>
        <path id="Path_829" data-name="Path 829" d="M1114.39,774.071a.578.578,0,0,0-.492-.242.77.77,0,0,0-.4.111l-2.419,1.449a.654.654,0,0,0-.288.333.454.454,0,0,0,.044.412l1.3,1.984a.585.585,0,0,0,.5.242.773.773,0,0,0,.4-.109l2.421-1.449a.643.643,0,0,0,.279-.325.471.471,0,0,0-.046-.422Z" fill="#58676a" opacity="0.7"/>
        <path id="Path_830" data-name="Path 830" d="M1118.34,771.707a.579.579,0,0,0-.493-.239.779.779,0,0,0-.4.112l-2.42,1.449a.657.657,0,0,0-.287.333.453.453,0,0,0,.044.412l1.3,1.984a.587.587,0,0,0,.5.243.779.779,0,0,0,.4-.111l2.42-1.449a.655.655,0,0,0,.284-.33.467.467,0,0,0-.044-.42Z" fill="#58676a" opacity="0.7"/>
        <path id="Path_831" data-name="Path 831" d="M1143.65,765.553a.581.581,0,0,0-.5-.244.794.794,0,0,0-.4.111l-2.42,1.449a.647.647,0,0,0-.282.327.466.466,0,0,0,.048.42l1.3,1.983a.575.575,0,0,0,.492.243.776.776,0,0,0,.4-.111l2.42-1.45a.647.647,0,0,0,.287-.332.451.451,0,0,0-.044-.412Z" fill="#58676a" opacity="0.7"/>
        <path id="Path_832" data-name="Path 832" d="M1141.53,762.315a.574.574,0,0,0-.492-.239.789.789,0,0,0-.4.111l-2.42,1.45a.645.645,0,0,0-.283.327.459.459,0,0,0,.046.414l1.3,1.984a.582.582,0,0,0,.5.247.782.782,0,0,0,.4-.111l2.42-1.449a.655.655,0,0,0,.286-.331.459.459,0,0,0-.046-.419Z" fill="#58676a" opacity="0.7"/>
        <g id="Group_258" data-name="Group 258">
          <path id="Path_833" data-name="Path 833" d="M1142.41,772.067a.575.575,0,0,0-.491-.241.783.783,0,0,0-.4.111l-2.42,1.449a.655.655,0,0,0-.287.332.453.453,0,0,0,.044.412l1.3,1.985a.584.584,0,0,0,.5.243.779.779,0,0,0,.4-.111l2.42-1.449a.64.64,0,0,0,.28-.325.47.47,0,0,0-.046-.421Z" fill="#58676a" opacity="0.7"/>
          <path id="Path_834" data-name="Path 834" d="M1138.47,774.428a.581.581,0,0,0-.492-.241.768.768,0,0,0-.4.111l-2.421,1.449a.652.652,0,0,0-.288.332.454.454,0,0,0,.046.413l1.3,1.984a.587.587,0,0,0,.5.244.776.776,0,0,0,.4-.112l2.419-1.449a.627.627,0,0,0,.28-.325.466.466,0,0,0-.046-.421Z" fill="#58676a" opacity="0.7"/>
          <path id="Path_835" data-name="Path 835" d="M1154.53,773.814a.583.583,0,0,0-.5-.245.788.788,0,0,0-.4.112l-2.42,1.449a.642.642,0,0,0-.28.324.474.474,0,0,0,.046.422l1.3,1.984a.577.577,0,0,0,.492.242.78.78,0,0,0,.4-.111l2.42-1.449a.658.658,0,0,0,.289-.332.454.454,0,0,0-.046-.412Z" fill="#58676a" opacity="0.7"/>
          <path id="Path_836" data-name="Path 836" d="M1152.42,770.582a.576.576,0,0,0-.494-.246.793.793,0,0,0-.4.113l-2.42,1.449a.642.642,0,0,0-.281.325.465.465,0,0,0,.048.421l1.3,1.984a.577.577,0,0,0,.492.242.773.773,0,0,0,.4-.111l2.419-1.449a.654.654,0,0,0,.29-.333.455.455,0,0,0-.046-.412Z" fill="#58676a" opacity="0.7"/>
          <path id="Path_837" data-name="Path 837" d="M1150.3,767.344a.574.574,0,0,0-.49-.241.791.791,0,0,0-.4.113l-2.42,1.45a.647.647,0,0,0-.283.326.454.454,0,0,0,.046.415l1.3,1.984a.589.589,0,0,0,.5.245.774.774,0,0,0,.393-.109l2.421-1.449a.65.65,0,0,0,.285-.33.467.467,0,0,0-.045-.42Z" fill="#58676a" opacity="0.7"/>
          <path id="Path_838" data-name="Path 838" d="M1150.59,776.174a.587.587,0,0,0-.5-.242.77.77,0,0,0-.4.111l-2.42,1.447a.644.644,0,0,0-.279.326.468.468,0,0,0,.045.422l1.3,1.983a.578.578,0,0,0,.491.243.78.78,0,0,0,.4-.111l2.42-1.449a.66.66,0,0,0,.287-.333.453.453,0,0,0-.044-.412Z" fill="#58676a" opacity="0.7"/>
          <path id="Path_839" data-name="Path 839" d="M1148.75,781.771a.59.59,0,0,0-.5-.246.769.769,0,0,0-.394.11l-2.419,1.448a.657.657,0,0,0-.285.332.465.465,0,0,0,.045.419l1.3,1.983a.583.583,0,0,0,.5.244h0a.78.78,0,0,0,.4-.111l2.42-1.449a.645.645,0,0,0,.28-.325.476.476,0,0,0-.046-.421Z" fill="#58676a" opacity="0.7"/>
          <path id="Path_840" data-name="Path 840" d="M1156.64,777.046a.582.582,0,0,0-.5-.243.777.777,0,0,0-.4.112l-2.42,1.448a.635.635,0,0,0-.278.325.466.466,0,0,0,.045.421l1.3,1.985a.587.587,0,0,0,.5.245.774.774,0,0,0,.393-.109l2.42-1.449a.646.646,0,0,0,.286-.331.468.468,0,0,0-.046-.419Z" fill="#58676a" opacity="0.7"/>
          <path id="Path_841" data-name="Path 841" d="M1152.7,779.406a.588.588,0,0,0-.5-.242.777.777,0,0,0-.4.11l-2.42,1.449a.641.641,0,0,0-.279.326.472.472,0,0,0,.045.421l1.3,1.983a.585.585,0,0,0,.5.247.768.768,0,0,0,.393-.111l2.418-1.447a.653.653,0,0,0,.286-.332.47.47,0,0,0-.044-.42Z" fill="#58676a" opacity="0.7"/>
          <path id="Path_842" data-name="Path 842" d="M1146.64,778.538a.59.59,0,0,0-.5-.245.771.771,0,0,0-.393.109l-2.42,1.449a.65.65,0,0,0-.285.331.471.471,0,0,0,.044.419l1.3,1.984a.576.576,0,0,0,.492.24.787.787,0,0,0,.4-.112l2.421-1.449a.648.648,0,0,0,.282-.327.455.455,0,0,0-.046-.414Z" fill="#58676a" opacity="0.7"/>
          <path id="Path_843" data-name="Path 843" d="M1144.81,784.132a.585.585,0,0,0-.5-.245.762.762,0,0,0-.394.109l-2.42,1.448a.65.65,0,0,0-.286.331.465.465,0,0,0,.046.419l1.3,1.985a.584.584,0,0,0,.5.244.785.785,0,0,0,.4-.112l2.42-1.448a.64.64,0,0,0,.279-.326.469.469,0,0,0-.045-.422Z" fill="#58676a" opacity="0.7"/>
          <path id="Path_844" data-name="Path 844" d="M1148.47,772.941a.583.583,0,0,0-.5-.244.786.786,0,0,0-.4.112l-2.42,1.448a.647.647,0,0,0-.282.327.466.466,0,0,0,.048.42l1.3,1.985a.582.582,0,0,0,.492.242.769.769,0,0,0,.4-.112l2.42-1.448a.657.657,0,0,0,.288-.334.454.454,0,0,0-.044-.411Z" fill="#58676a" opacity="0.7"/>
          <path id="Path_845" data-name="Path 845" d="M1144.53,775.306a.581.581,0,0,0-.5-.247.782.782,0,0,0-.4.111l-2.419,1.449a.651.651,0,0,0-.287.332.458.458,0,0,0,.047.418l1.3,1.984a.576.576,0,0,0,.492.24.786.786,0,0,0,.4-.113l2.42-1.449a.637.637,0,0,0,.282-.326.454.454,0,0,0-.046-.415Z" fill="#58676a" opacity="0.7"/>
          <path id="Path_846" data-name="Path 846" d="M1140.58,777.666a.585.585,0,0,0-.5-.247.779.779,0,0,0-.4.111l-2.42,1.449a.651.651,0,0,0-.288.33.462.462,0,0,0,.048.421l1.3,1.983a.575.575,0,0,0,.49.241.785.785,0,0,0,.405-.114l2.419-1.448a.649.649,0,0,0,.284-.328.453.453,0,0,0-.047-.414Z" fill="#58676a" opacity="0.7"/>
          <path id="Path_847" data-name="Path 847" d="M1146.36,769.7a.578.578,0,0,0-.492-.239.8.8,0,0,0-.4.111l-2.42,1.45a.643.643,0,0,0-.283.326.461.461,0,0,0,.046.415l1.3,1.984a.585.585,0,0,0,.5.246.776.776,0,0,0,.394-.11l2.42-1.448a.65.65,0,0,0,.284-.332.468.468,0,0,0-.044-.419Z" fill="#58676a" opacity="0.7"/>
          <path id="Path_848" data-name="Path 848" d="M1142.69,780.9a.587.587,0,0,0-.5-.245.772.772,0,0,0-.394.11l-2.419,1.448a.643.643,0,0,0-.286.331.474.474,0,0,0,.045.42l1.3,1.983a.576.576,0,0,0,.491.242.789.789,0,0,0,.405-.115l2.419-1.448a.643.643,0,0,0,.284-.327.46.46,0,0,0-.046-.415Z" fill="#58676a" opacity="0.7"/>
        </g>
        <g id="Group_259" data-name="Group 259">
          <path id="Path_849" data-name="Path 849" d="M1133.16,777.608a.574.574,0,0,0-.49-.241.788.788,0,0,0-.4.113l-2.42,1.449a.642.642,0,0,0-.283.328.453.453,0,0,0,.045.413l1.3,1.985a.59.59,0,0,0,.5.245.774.774,0,0,0,.393-.109l2.421-1.45a.647.647,0,0,0,.285-.33.469.469,0,0,0-.045-.419Z" fill="#58676a" opacity="0.7"/>
          <path id="Path_850" data-name="Path 850" d="M1127.39,785.566a.581.581,0,0,0-.5-.245.785.785,0,0,0-.4.113l-2.42,1.449a.656.656,0,0,0-.286.331.459.459,0,0,0,.046.419l1.3,1.984a.574.574,0,0,0,.492.239.78.78,0,0,0,.4-.112l2.42-1.449a.653.653,0,0,0,.287-.333.453.453,0,0,0-.044-.412Z" fill="#58676a" opacity="0.7"/>
          <path id="Path_851" data-name="Path 851" d="M1123.44,787.93a.589.589,0,0,0-.5-.246.773.773,0,0,0-.4.111l-2.42,1.449a.654.654,0,0,0-.286.332.461.461,0,0,0,.046.418l1.3,1.984a.581.581,0,0,0,.492.239.787.787,0,0,0,.4-.112l2.42-1.449a.643.643,0,0,0,.283-.326.454.454,0,0,0-.046-.415Z" fill="#58676a" opacity="0.7"/>
          <path id="Path_852" data-name="Path 852" d="M1125.28,782.329a.578.578,0,0,0-.492-.24.787.787,0,0,0-.4.112l-2.42,1.449a.655.655,0,0,0-.287.334.457.457,0,0,0,.043.412l1.3,1.983a.584.584,0,0,0,.5.243.77.77,0,0,0,.4-.111l2.42-1.448a.649.649,0,0,0,.284-.331.47.47,0,0,0-.044-.42Z" fill="#58676a" opacity="0.7"/>
          <path id="Path_853" data-name="Path 853" d="M1121.33,784.693a.58.58,0,0,0-.492-.243.783.783,0,0,0-.4.111l-2.42,1.45a.651.651,0,0,0-.287.332.455.455,0,0,0,.044.413l1.3,1.983a.586.586,0,0,0,.5.243.782.782,0,0,0,.4-.11l2.419-1.449a.642.642,0,0,0,.28-.324.474.474,0,0,0-.046-.423Z" fill="#58676a" opacity="0.7"/>
          <path id="Path_854" data-name="Path 854" d="M1131.33,783.207a.58.58,0,0,0-.5-.245.78.78,0,0,0-.4.112l-2.42,1.448a.648.648,0,0,0-.282.326.467.467,0,0,0,.047.421l1.3,1.984a.577.577,0,0,0,.492.242.78.78,0,0,0,.4-.111l2.42-1.449a.66.66,0,0,0,.287-.332.455.455,0,0,0-.044-.413Z" fill="#58676a" opacity="0.7"/>
          <path id="Path_855" data-name="Path 855" d="M1129.22,779.969a.576.576,0,0,0-.492-.24.788.788,0,0,0-.4.113l-2.42,1.448a.639.639,0,0,0-.282.327.455.455,0,0,0,.046.414l1.3,1.984a.586.586,0,0,0,.5.246.762.762,0,0,0,.394-.11l2.42-1.448a.663.663,0,0,0,.284-.33.473.473,0,0,0-.044-.42Z" fill="#58676a" opacity="0.7"/>
          <path id="Path_856" data-name="Path 856" d="M1131.61,792.031a.589.589,0,0,0-.5-.242.779.779,0,0,0-.4.111l-2.42,1.448a.653.653,0,0,0-.284.331.47.47,0,0,0,.044.42l1.3,1.984a.588.588,0,0,0,.5.242.782.782,0,0,0,.4-.11l2.419-1.449a.648.648,0,0,0,.284-.331.467.467,0,0,0-.044-.42Z" fill="#58676a" opacity="0.7"/>
          <path id="Path_857" data-name="Path 857" d="M1135.56,789.672a.587.587,0,0,0-.5-.244.782.782,0,0,0-.4.111l-2.419,1.449a.64.64,0,0,0-.28.325.474.474,0,0,0,.045.422l1.3,1.983a.587.587,0,0,0,.5.246.781.781,0,0,0,.394-.109l2.419-1.449a.651.651,0,0,0,.284-.332.468.468,0,0,0-.044-.419Z" fill="#58676a" opacity="0.7"/>
          <path id="Path_858" data-name="Path 858" d="M1139.5,787.311a.584.584,0,0,0-.5-.244.786.786,0,0,0-.4.112l-2.419,1.448a.642.642,0,0,0-.28.326.472.472,0,0,0,.046.422l1.3,1.984a.588.588,0,0,0,.5.244.765.765,0,0,0,.394-.109l2.419-1.449a.645.645,0,0,0,.287-.33.471.471,0,0,0-.046-.42Z" fill="#58676a" opacity="0.7"/>
          <path id="Path_859" data-name="Path 859" d="M1127.67,794.4a.585.585,0,0,0-.5-.246.757.757,0,0,0-.394.11l-2.42,1.448a.656.656,0,0,0-.285.332.472.472,0,0,0,.044.418l1.3,1.984a.586.586,0,0,0,.5.243.782.782,0,0,0,.4-.11l2.419-1.449a.635.635,0,0,0,.28-.325.466.466,0,0,0-.046-.421Z" fill="#58676a" opacity="0.7"/>
          <path id="Path_860" data-name="Path 860" d="M1129.5,788.8a.583.583,0,0,0-.5-.244.778.778,0,0,0-.4.111l-2.419,1.449a.652.652,0,0,0-.286.331.473.473,0,0,0,.045.42l1.3,1.983a.576.576,0,0,0,.492.24.791.791,0,0,0,.4-.113l2.42-1.448a.661.661,0,0,0,.288-.334.46.46,0,0,0-.044-.412Z" fill="#58676a" opacity="0.7"/>
          <path id="Path_861" data-name="Path 861" d="M1137.39,784.078a.587.587,0,0,0-.5-.244.786.786,0,0,0-.4.112l-2.419,1.448a.644.644,0,0,0-.28.325.475.475,0,0,0,.045.422l1.3,1.984a.577.577,0,0,0,.492.241.757.757,0,0,0,.4-.111l2.42-1.447a.665.665,0,0,0,.29-.334.461.461,0,0,0-.045-.412Z" fill="#58676a" opacity="0.7"/>
          <path id="Path_862" data-name="Path 862" d="M1133.44,786.439a.584.584,0,0,0-.5-.243.782.782,0,0,0-.4.11l-2.419,1.449a.632.632,0,0,0-.279.324.468.468,0,0,0,.045.422l1.3,1.984a.578.578,0,0,0,.492.242.773.773,0,0,0,.4-.111l2.419-1.449a.656.656,0,0,0,.288-.332.455.455,0,0,0-.044-.413Z" fill="#58676a" opacity="0.7"/>
          <path id="Path_863" data-name="Path 863" d="M1125.55,791.164a.584.584,0,0,0-.5-.246.765.765,0,0,0-.394.109l-2.419,1.448a.65.65,0,0,0-.285.333.469.469,0,0,0,.044.418l1.3,1.984a.574.574,0,0,0,.491.239.784.784,0,0,0,.4-.112l2.42-1.449a.642.642,0,0,0,.283-.326.46.46,0,0,0-.045-.415Z" fill="#58676a" opacity="0.7"/>
          <path id="Path_864" data-name="Path 864" d="M1135.27,780.846a.585.585,0,0,0-.5-.246.789.789,0,0,0-.4.113l-2.419,1.449a.651.651,0,0,0-.283.326.462.462,0,0,0,.049.421l1.3,1.983a.578.578,0,0,0,.493.243.776.776,0,0,0,.4-.111l2.42-1.448a.669.669,0,0,0,.29-.334.457.457,0,0,0-.046-.412Z" fill="#58676a" opacity="0.7"/>
        </g>
        <g id="Group_260" data-name="Group 260">
          <path id="Path_865" data-name="Path 865" d="M1142.32,791.4a.573.573,0,0,0-.49-.242.785.785,0,0,0-.405.114l-2.42,1.449a.645.645,0,0,0-.283.327.455.455,0,0,0,.046.414l1.3,1.985a.587.587,0,0,0,.5.245.769.769,0,0,0,.394-.11l2.42-1.449a.645.645,0,0,0,.286-.33.468.468,0,0,0-.046-.419Z" fill="#58676a" opacity="0.7"/>
          <path id="Path_866" data-name="Path 866" d="M1136.56,799.355a.582.582,0,0,0-.5-.246.783.783,0,0,0-.4.112l-2.42,1.45a.649.649,0,0,0-.287.331.461.461,0,0,0,.047.418l1.3,1.985a.575.575,0,0,0,.492.238.783.783,0,0,0,.4-.111l2.42-1.449a.662.662,0,0,0,.287-.333.453.453,0,0,0-.044-.412Z" fill="#58676a" opacity="0.7"/>
          <path id="Path_867" data-name="Path 867" d="M1132.61,801.719a.584.584,0,0,0-.5-.247.782.782,0,0,0-.4.11l-2.421,1.45a.656.656,0,0,0-.285.33.467.467,0,0,0,.045.421l1.3,1.982a.578.578,0,0,0,.492.24h0a.79.79,0,0,0,.4-.112l2.42-1.448a.655.655,0,0,0,.283-.328.455.455,0,0,0-.046-.414Z" fill="#58676a" opacity="0.7"/>
          <path id="Path_868" data-name="Path 868" d="M1134.44,796.117a.58.58,0,0,0-.493-.24.786.786,0,0,0-.4.112l-2.421,1.45a.645.645,0,0,0-.286.332.453.453,0,0,0,.043.412l1.3,1.984a.587.587,0,0,0,.5.244.782.782,0,0,0,.4-.111l2.42-1.449a.656.656,0,0,0,.283-.33.469.469,0,0,0-.044-.421Z" fill="#58676a" opacity="0.7"/>
          <path id="Path_869" data-name="Path 869" d="M1130.49,798.48a.579.579,0,0,0-.491-.242.777.777,0,0,0-.4.111l-2.42,1.45a.662.662,0,0,0-.288.332.456.456,0,0,0,.045.412l1.3,1.985a.585.585,0,0,0,.5.242.779.779,0,0,0,.4-.11l2.42-1.449a.642.642,0,0,0,.279-.325.465.465,0,0,0-.046-.422Z" fill="#58676a" opacity="0.7"/>
          <path id="Path_870" data-name="Path 870" d="M1140.5,796.994a.584.584,0,0,0-.5-.244.786.786,0,0,0-.4.112l-2.42,1.448a.649.649,0,0,0-.282.326.465.465,0,0,0,.048.421l1.3,1.984a.575.575,0,0,0,.491.241.758.758,0,0,0,.4-.111l2.42-1.448a.653.653,0,0,0,.287-.333.451.451,0,0,0-.044-.412Z" fill="#58676a" opacity="0.7"/>
          <path id="Path_871" data-name="Path 871" d="M1138.38,793.756a.574.574,0,0,0-.492-.238.779.779,0,0,0-.4.111l-2.419,1.449a.639.639,0,0,0-.283.327.458.458,0,0,0,.045.415l1.3,1.983a.585.585,0,0,0,.5.245.764.764,0,0,0,.393-.109l2.42-1.449a.649.649,0,0,0,.284-.33.473.473,0,0,0-.043-.42Z" fill="#58676a" opacity="0.7"/>
          <path id="Path_872" data-name="Path 872" d="M1140.78,805.819a.589.589,0,0,0-.5-.243.782.782,0,0,0-.4.111l-2.419,1.449a.663.663,0,0,0-.285.331.473.473,0,0,0,.044.419l1.3,1.984a.586.586,0,0,0,.5.243.784.784,0,0,0,.4-.11l2.418-1.449a.649.649,0,0,0,.285-.331.467.467,0,0,0-.044-.42Z" fill="#58676a" opacity="0.7"/>
          <path id="Path_873" data-name="Path 873" d="M1144.72,803.459a.584.584,0,0,0-.5-.243.782.782,0,0,0-.4.111l-2.42,1.449a.63.63,0,0,0-.279.325.475.475,0,0,0,.045.422l1.3,1.983a.585.585,0,0,0,.5.245.77.77,0,0,0,.394-.109l2.419-1.448a.654.654,0,0,0,.285-.331.47.47,0,0,0-.045-.42Z" fill="#58676a" opacity="0.7"/>
          <path id="Path_874" data-name="Path 874" d="M1148.66,801.1a.583.583,0,0,0-.5-.244.78.78,0,0,0-.4.112l-2.419,1.449a.644.644,0,0,0-.281.324.477.477,0,0,0,.046.422l1.3,1.984a.586.586,0,0,0,.5.245.768.768,0,0,0,.394-.109l2.419-1.448a.655.655,0,0,0,.286-.331.467.467,0,0,0-.046-.42Z" fill="#58676a" opacity="0.7"/>
          <path id="Path_875" data-name="Path 875" d="M1136.83,808.185a.586.586,0,0,0-.5-.247.767.767,0,0,0-.394.111l-2.419,1.447a.651.651,0,0,0-.285.332.468.468,0,0,0,.044.419l1.3,1.985a.588.588,0,0,0,.5.242.768.768,0,0,0,.4-.111l2.42-1.447a.65.65,0,0,0,.28-.326.471.471,0,0,0-.046-.422Z" fill="#58676a" opacity="0.7"/>
          <path id="Path_876" data-name="Path 876" d="M1138.67,802.588a.584.584,0,0,0-.5-.244.779.779,0,0,0-.4.111l-2.419,1.449a.651.651,0,0,0-.285.331.465.465,0,0,0,.045.419l1.3,1.984a.574.574,0,0,0,.492.239.79.79,0,0,0,.4-.112l2.419-1.449a.659.659,0,0,0,.288-.333.453.453,0,0,0-.044-.412Z" fill="#58676a" opacity="0.7"/>
          <path id="Path_877" data-name="Path 877" d="M1146.55,797.866a.584.584,0,0,0-.5-.244.774.774,0,0,0-.4.112l-2.42,1.448a.641.641,0,0,0-.279.325.468.468,0,0,0,.045.422l1.3,1.984a.576.576,0,0,0,.492.241.768.768,0,0,0,.4-.111l2.42-1.448a.662.662,0,0,0,.289-.332.458.458,0,0,0-.045-.414Z" fill="#58676a" opacity="0.7"/>
          <path id="Path_878" data-name="Path 878" d="M1142.61,800.227a.586.586,0,0,0-.5-.243.782.782,0,0,0-.4.111l-2.419,1.448a.642.642,0,0,0-.28.326.475.475,0,0,0,.045.422l1.3,1.983a.577.577,0,0,0,.492.241.76.76,0,0,0,.4-.111l2.42-1.448a.653.653,0,0,0,.287-.332.455.455,0,0,0-.043-.413Z" fill="#58676a" opacity="0.7"/>
          <path id="Path_879" data-name="Path 879" d="M1134.72,804.951a.588.588,0,0,0-.5-.246.779.779,0,0,0-.4.111l-2.419,1.447a.661.661,0,0,0-.285.332.474.474,0,0,0,.045.419l1.3,1.985a.58.58,0,0,0,.492.238.787.787,0,0,0,.4-.112l2.42-1.448a.649.649,0,0,0,.283-.327.457.457,0,0,0-.046-.415Z" fill="#58676a" opacity="0.7"/>
          <path id="Path_880" data-name="Path 880" d="M1144.44,794.634a.583.583,0,0,0-.495-.247.789.789,0,0,0-.4.115l-2.42,1.448a.65.65,0,0,0-.282.326.46.46,0,0,0,.049.42l1.3,1.985a.579.579,0,0,0,.491.242.783.783,0,0,0,.4-.111l2.42-1.449a.655.655,0,0,0,.289-.333.457.457,0,0,0-.046-.413Z" fill="#58676a" opacity="0.7"/>
        </g>
        <g id="Group_261" data-name="Group 261">
          <path id="Path_881" data-name="Path 881" d="M1159.51,781.277a.574.574,0,0,0-.49-.24.788.788,0,0,0-.4.113l-2.42,1.449a.644.644,0,0,0-.283.327.456.456,0,0,0,.045.414l1.3,1.984a.587.587,0,0,0,.5.245.761.761,0,0,0,.393-.109l2.421-1.449a.647.647,0,0,0,.285-.33.468.468,0,0,0-.045-.419Z" fill="#58676a" opacity="0.7"/>
          <path id="Path_882" data-name="Path 882" d="M1153.74,789.236a.583.583,0,0,0-.5-.245.786.786,0,0,0-.4.112l-2.419,1.449a.659.659,0,0,0-.287.332.458.458,0,0,0,.047.418l1.3,1.985a.578.578,0,0,0,.492.239.778.778,0,0,0,.4-.112l2.42-1.449a.649.649,0,0,0,.287-.333.452.452,0,0,0-.044-.413Z" fill="#58676a" opacity="0.7"/>
          <path id="Path_883" data-name="Path 883" d="M1149.79,791.6a.588.588,0,0,0-.5-.246.77.77,0,0,0-.4.111l-2.421,1.448a.669.669,0,0,0-.286.331.467.467,0,0,0,.046.42l1.3,1.983a.577.577,0,0,0,.491.24h0a.786.786,0,0,0,.4-.112l2.421-1.449a.639.639,0,0,0,.282-.327.455.455,0,0,0-.046-.415Z" fill="#58676a" opacity="0.7"/>
          <path id="Path_884" data-name="Path 884" d="M1151.63,786a.578.578,0,0,0-.492-.24.787.787,0,0,0-.4.112l-2.42,1.449a.657.657,0,0,0-.287.333.456.456,0,0,0,.044.413l1.3,1.983a.585.585,0,0,0,.5.243.768.768,0,0,0,.4-.111l2.421-1.448a.65.65,0,0,0,.283-.331.467.467,0,0,0-.044-.42Z" fill="#58676a" opacity="0.7"/>
          <path id="Path_885" data-name="Path 885" d="M1147.68,788.363a.575.575,0,0,0-.491-.243.783.783,0,0,0-.4.111l-2.419,1.449a.658.658,0,0,0-.288.333.454.454,0,0,0,.045.412l1.3,1.984a.587.587,0,0,0,.5.243.773.773,0,0,0,.4-.111l2.419-1.448a.638.638,0,0,0,.28-.326.47.47,0,0,0-.045-.421Z" fill="#58676a" opacity="0.7"/>
          <path id="Path_886" data-name="Path 886" d="M1157.68,786.875a.583.583,0,0,0-.5-.243.778.778,0,0,0-.4.112l-2.419,1.447a.65.65,0,0,0-.282.327.462.462,0,0,0,.049.421l1.3,1.983a.575.575,0,0,0,.492.243.779.779,0,0,0,.4-.111l2.42-1.449a.653.653,0,0,0,.287-.333.453.453,0,0,0-.044-.412Z" fill="#58676a" opacity="0.7"/>
          <path id="Path_887" data-name="Path 887" d="M1155.57,783.639a.576.576,0,0,0-.492-.24.788.788,0,0,0-.4.113l-2.419,1.448a.653.653,0,0,0-.283.327.458.458,0,0,0,.046.414l1.3,1.984a.584.584,0,0,0,.5.246.776.776,0,0,0,.394-.11l2.42-1.448a.655.655,0,0,0,.284-.332.468.468,0,0,0-.044-.419Z" fill="#58676a" opacity="0.7"/>
          <path id="Path_888" data-name="Path 888" d="M1157.96,795.7a.585.585,0,0,0-.5-.242.783.783,0,0,0-.4.111l-2.42,1.448a.649.649,0,0,0-.284.331.468.468,0,0,0,.044.419l1.3,1.983a.583.583,0,0,0,.5.244.787.787,0,0,0,.4-.11l2.42-1.45a.644.644,0,0,0,.283-.33.47.47,0,0,0-.043-.42Z" fill="#58676a" opacity="0.7"/>
          <path id="Path_889" data-name="Path 889" d="M1161.91,793.341a.584.584,0,0,0-.5-.243.77.77,0,0,0-.4.111l-2.42,1.449a.63.63,0,0,0-.279.325.472.472,0,0,0,.045.422l1.3,1.983a.584.584,0,0,0,.5.246.778.778,0,0,0,.394-.109l2.419-1.449a.655.655,0,0,0,.284-.332.465.465,0,0,0-.044-.419Z" fill="#58676a" opacity="0.7"/>
          <path id="Path_890" data-name="Path 890" d="M1165.85,790.98a.586.586,0,0,0-.5-.244.776.776,0,0,0-.4.112l-2.419,1.448a.639.639,0,0,0-.279.326.461.461,0,0,0,.046.42l1.3,1.985a.585.585,0,0,0,.5.245.765.765,0,0,0,.394-.109l2.42-1.449a.648.648,0,0,0,.286-.33.468.468,0,0,0-.046-.42Z" fill="#58676a" opacity="0.7"/>
          <path id="Path_891" data-name="Path 891" d="M1154.02,798.065a.587.587,0,0,0-.5-.245.775.775,0,0,0-.394.109l-2.42,1.449a.648.648,0,0,0-.284.331.468.468,0,0,0,.044.419l1.3,1.984a.587.587,0,0,0,.5.243.773.773,0,0,0,.4-.111l2.421-1.448a.645.645,0,0,0,.279-.326.465.465,0,0,0-.047-.42Z" fill="#58676a" opacity="0.7"/>
          <path id="Path_892" data-name="Path 892" d="M1155.85,792.469a.582.582,0,0,0-.5-.242.781.781,0,0,0-.4.109l-2.42,1.45a.639.639,0,0,0-.284.331.468.468,0,0,0,.043.419l1.3,1.983a.572.572,0,0,0,.492.24.778.778,0,0,0,.4-.113l2.42-1.447a.661.661,0,0,0,.288-.334.456.456,0,0,0-.044-.412Z" fill="#58676a" opacity="0.7"/>
          <path id="Path_893" data-name="Path 893" d="M1163.74,787.748a.587.587,0,0,0-.5-.244.773.773,0,0,0-.4.112l-2.42,1.448a.643.643,0,0,0-.28.325.473.473,0,0,0,.046.421l1.3,1.985a.578.578,0,0,0,.492.241.78.78,0,0,0,.4-.11l2.421-1.449a.66.66,0,0,0,.289-.333.457.457,0,0,0-.046-.412Z" fill="#58676a" opacity="0.7"/>
          <path id="Path_894" data-name="Path 894" d="M1159.8,790.107a.591.591,0,0,0-.5-.242.77.77,0,0,0-.4.111l-2.42,1.449a.632.632,0,0,0-.279.324.468.468,0,0,0,.045.422l1.3,1.983a.578.578,0,0,0,.493.243.77.77,0,0,0,.4-.111l2.42-1.449a.664.664,0,0,0,.288-.333.456.456,0,0,0-.045-.412Z" fill="#58676a" opacity="0.7"/>
          <path id="Path_895" data-name="Path 895" d="M1151.91,794.833a.586.586,0,0,0-.5-.245.768.768,0,0,0-.394.109l-2.419,1.448a.655.655,0,0,0-.285.333.469.469,0,0,0,.045.418l1.3,1.984a.574.574,0,0,0,.491.239.782.782,0,0,0,.4-.112l2.42-1.449a.641.641,0,0,0,.282-.326.459.459,0,0,0-.045-.416Z" fill="#58676a" opacity="0.7"/>
          <path id="Path_896" data-name="Path 896" d="M1161.63,784.516a.582.582,0,0,0-.5-.246.783.783,0,0,0-.4.114l-2.419,1.448a.647.647,0,0,0-.283.326.463.463,0,0,0,.049.42l1.3,1.985a.578.578,0,0,0,.492.242.774.774,0,0,0,.4-.112l2.42-1.449a.647.647,0,0,0,.288-.332.451.451,0,0,0-.045-.412Z" fill="#58676a" opacity="0.7"/>
        </g>
      </g>
      <g id="Group_263" data-name="Group 263" opacity="0.1">
        <path id="Path_897" data-name="Path 897" d="M1109.88,780.145l3.37,5.269,22.86-31.665-14.47,8.743Z" fill="#fff"/>
      </g>
      <g id="Group_264" data-name="Group 264" opacity="0.1">
        <path id="Path_898" data-name="Path 898" d="M1121.31,798.007l7.25,11.335,28.86-37.173-7.25-11.335Z" fill="#fff"/>
      </g>
      <g id="Group_265" data-name="Group 265" opacity="0.1">
        <path id="Path_899" data-name="Path 899" d="M1135.33,814.705l15.28-9.229,13.41-22.992-1.93-3.024Z" fill="#fff"/>
      </g>
    </g>
    <g id="Group_279" data-name="Group 279">
      <g id="Group_270" data-name="Group 270">
        <g id="Group_269" data-name="Group 269">
          <g id="Group_267" data-name="Group 267">
            <path id="Path_900" data-name="Path 900" d="M1174.79,793.506l40.62-24.662.91-1.754-40.62,24.662Z" fill="#fff"/>
          </g>
          <path id="Path_901" data-name="Path 901" d="M1146.49,746.113l29.21,45.639,40.62-24.662-29.21-45.638Z" fill="#ebe7dc"/>
          <path id="Path_902" data-name="Path 902" d="M1148.73,746.111l27.86,43.525,37.9-23.034-27.85-43.524Z" fill="#283838"/>
          <g id="Group_268" data-name="Group 268">
            <path id="Path_903" data-name="Path 903" d="M1145.57,747.868l29.22,45.638.91-1.754-29.21-45.639Z" fill="#d1cec5"/>
          </g>
        </g>
      </g>
      <g id="Group_275" data-name="Group 275">
        <path id="Path_904" data-name="Path 904" d="M1160.16,750.782a.575.575,0,0,0-.491-.243.766.766,0,0,0-.4.113l-2.419,1.448a.659.659,0,0,0-.288.333.451.451,0,0,0,.044.411l1.3,1.985a.582.582,0,0,0,.5.244.786.786,0,0,0,.4-.112l2.42-1.448a.654.654,0,0,0,.282-.326.467.467,0,0,0-.049-.422Z" fill="#58676a" opacity="0.7"/>
        <path id="Path_905" data-name="Path 905" d="M1168.05,746.057a.582.582,0,0,0-.492-.239.783.783,0,0,0-.4.113l-2.419,1.448a.647.647,0,0,0-.283.328.458.458,0,0,0,.045.414l1.3,1.983a.582.582,0,0,0,.5.247h0a.765.765,0,0,0,.4-.111l2.419-1.447a.659.659,0,0,0,.287-.332.464.464,0,0,0-.046-.42Z" fill="#58676a" opacity="0.7"/>
        <path id="Path_906" data-name="Path 906" d="M1164.11,748.418a.578.578,0,0,0-.493-.24.79.79,0,0,0-.4.112l-2.42,1.45a.653.653,0,0,0-.287.333.454.454,0,0,0,.043.412l1.3,1.983a.58.58,0,0,0,.5.246.785.785,0,0,0,.4-.113l2.42-1.449a.646.646,0,0,0,.286-.331.46.46,0,0,0-.046-.419Z" fill="#58676a" opacity="0.7"/>
        <path id="Path_907" data-name="Path 907" d="M1171.99,743.7a.577.577,0,0,0-.491-.241.78.78,0,0,0-.405.115l-2.42,1.448a.648.648,0,0,0-.282.327.452.452,0,0,0,.046.415l1.3,1.984a.586.586,0,0,0,.5.246.773.773,0,0,0,.4-.11l2.421-1.449a.655.655,0,0,0,.287-.331.46.46,0,0,0-.048-.419Z" fill="#58676a" opacity="0.7"/>
        <path id="Path_908" data-name="Path 908" d="M1177.3,740.518a.578.578,0,0,0-.492-.242.777.777,0,0,0-.4.111l-2.419,1.449a.649.649,0,0,0-.29.333.452.452,0,0,0,.046.412l1.3,1.985a.587.587,0,0,0,.5.245.78.78,0,0,0,.4-.114l2.42-1.449a.637.637,0,0,0,.282-.326.461.461,0,0,0-.049-.42Z" fill="#58676a" opacity="0.7"/>
        <path id="Path_909" data-name="Path 909" d="M1181.24,738.156a.58.58,0,0,0-.492-.241.764.764,0,0,0-.4.111l-2.42,1.448a.666.666,0,0,0-.288.334.453.453,0,0,0,.044.412l1.3,1.984a.583.583,0,0,0,.5.244.785.785,0,0,0,.4-.111l2.42-1.45a.641.641,0,0,0,.281-.325.462.462,0,0,0-.048-.421Z" fill="#58676a" opacity="0.7"/>
        <path id="Path_910" data-name="Path 910" d="M1183.36,741.4a.586.586,0,0,0-.5-.247.779.779,0,0,0-.4.111l-2.42,1.449a.655.655,0,0,0-.287.332.463.463,0,0,0,.047.419l1.3,1.983a.576.576,0,0,0,.492.24.792.792,0,0,0,.4-.112l2.42-1.449a.647.647,0,0,0,.283-.326.463.463,0,0,0-.047-.416Z" fill="#58676a" opacity="0.7"/>
        <path id="Path_911" data-name="Path 911" d="M1179.42,743.756a.582.582,0,0,0-.5-.247.784.784,0,0,0-.4.11l-2.42,1.449a.652.652,0,0,0-.288.332.47.47,0,0,0,.047.419l1.3,1.983a.576.576,0,0,0,.49.242.792.792,0,0,0,.406-.115l2.419-1.449a.647.647,0,0,0,.283-.326.457.457,0,0,0-.046-.415Z" fill="#58676a" opacity="0.7"/>
        <path id="Path_912" data-name="Path 912" d="M1170.16,749.295a.586.586,0,0,0-.5-.244.783.783,0,0,0-.4.112l-2.42,1.448a.654.654,0,0,0-.282.326.467.467,0,0,0,.048.422l1.3,1.983a.578.578,0,0,0,.492.241.76.76,0,0,0,.4-.111l2.42-1.448a.659.659,0,0,0,.287-.332.458.458,0,0,0-.043-.413Z" fill="#58676a" opacity="0.7"/>
        <path id="Path_913" data-name="Path 913" d="M1174.11,746.935a.586.586,0,0,0-.495-.246.784.784,0,0,0-.4.114l-2.42,1.448a.653.653,0,0,0-.282.326.465.465,0,0,0,.048.421l1.3,1.984a.575.575,0,0,0,.492.241.77.77,0,0,0,.4-.111l2.419-1.447a.671.671,0,0,0,.29-.333.459.459,0,0,0-.046-.414Z" fill="#58676a" opacity="0.7"/>
        <path id="Path_914" data-name="Path 914" d="M1166.22,751.656a.582.582,0,0,0-.5-.245.783.783,0,0,0-.4.112l-2.42,1.449a.649.649,0,0,0-.285.331.459.459,0,0,0,.045.419l1.3,1.984a.578.578,0,0,0,.492.24.781.781,0,0,0,.4-.113l2.42-1.449a.659.659,0,0,0,.288-.333.456.456,0,0,0-.044-.412Z" fill="#58676a" opacity="0.7"/>
        <path id="Path_915" data-name="Path 915" d="M1162.27,754.021a.578.578,0,0,0-.5-.247.76.76,0,0,0-.4.111l-2.419,1.447a.659.659,0,0,0-.287.332.463.463,0,0,0,.047.419l1.3,1.985a.579.579,0,0,0,.492.238.784.784,0,0,0,.4-.112l2.421-1.448a.647.647,0,0,0,.282-.327.454.454,0,0,0-.046-.415Z" fill="#58676a" opacity="0.7"/>
        <path id="Path_916" data-name="Path 916" d="M1184.91,726.968a.582.582,0,0,0-.5-.245.786.786,0,0,0-.4.112l-2.42,1.449a.634.634,0,0,0-.279.325.47.47,0,0,0,.046.421l1.3,1.985a.582.582,0,0,0,.493.242.783.783,0,0,0,.4-.111l2.42-1.449a.668.668,0,0,0,.289-.333.456.456,0,0,0-.046-.413Z" fill="#58676a" opacity="0.7"/>
        <path id="Path_917" data-name="Path 917" d="M1177.02,731.691a.588.588,0,0,0-.5-.245.774.774,0,0,0-.393.109l-2.42,1.45a.648.648,0,0,0-.284.33.468.468,0,0,0,.044.419l1.3,1.985a.577.577,0,0,0,.492.238.779.779,0,0,0,.4-.111l2.42-1.449a.651.651,0,0,0,.283-.328.456.456,0,0,0-.045-.413Z" fill="#58676a" opacity="0.7"/>
        <path id="Path_918" data-name="Path 918" d="M1180.97,729.327a.587.587,0,0,0-.5-.243.779.779,0,0,0-.4.111l-2.421,1.448a.649.649,0,0,0-.279.326.47.47,0,0,0,.046.421l1.3,1.985a.578.578,0,0,0,.492.241.77.77,0,0,0,.4-.111l2.42-1.449a.655.655,0,0,0,.287-.332.456.456,0,0,0-.043-.412Z" fill="#58676a" opacity="0.7"/>
        <path id="Path_919" data-name="Path 919" d="M1173.08,734.053a.584.584,0,0,0-.5-.245.77.77,0,0,0-.393.108l-2.421,1.449a.655.655,0,0,0-.285.33.467.467,0,0,0,.045.42l1.3,1.984a.574.574,0,0,0,.49.242.786.786,0,0,0,.405-.115l2.419-1.448a.639.639,0,0,0,.283-.327.457.457,0,0,0-.045-.415Z" fill="#58676a" opacity="0.7"/>
        <path id="Path_920" data-name="Path 920" d="M1159.89,741.953a.588.588,0,0,0-.5-.244.779.779,0,0,0-.4.111l-2.42,1.449a.649.649,0,0,0-.284.33.47.47,0,0,0,.043.42l1.3,1.984a.575.575,0,0,0,.492.24.781.781,0,0,0,.4-.113l2.419-1.449a.652.652,0,0,0,.288-.332.455.455,0,0,0-.044-.413Z" fill="#58676a" opacity="0.7"/>
        <path id="Path_921" data-name="Path 921" d="M1163.83,739.592a.585.585,0,0,0-.5-.242.767.767,0,0,0-.4.11l-2.421,1.448a.637.637,0,0,0-.279.325.471.471,0,0,0,.046.422l1.3,1.985a.579.579,0,0,0,.491.242.777.777,0,0,0,.4-.111l2.42-1.449a.657.657,0,0,0,.288-.334.453.453,0,0,0-.045-.412Z" fill="#58676a" opacity="0.7"/>
        <path id="Path_922" data-name="Path 922" d="M1167.77,737.232a.58.58,0,0,0-.5-.246.775.775,0,0,0-.4.113l-2.42,1.449a.64.64,0,0,0-.279.324.465.465,0,0,0,.046.422l1.3,1.984a.574.574,0,0,0,.491.242.77.77,0,0,0,.4-.111l2.42-1.449a.653.653,0,0,0,.289-.332.454.454,0,0,0-.046-.413Z" fill="#58676a" opacity="0.7"/>
        <path id="Path_923" data-name="Path 923" d="M1191.25,736.671a.579.579,0,0,0-.495-.246.8.8,0,0,0-.4.112l-2.42,1.45a.641.641,0,0,0-.281.325.465.465,0,0,0,.047.421l1.3,1.985a.581.581,0,0,0,.492.241.783.783,0,0,0,.4-.111l2.419-1.448a.662.662,0,0,0,.289-.334.454.454,0,0,0-.046-.412Z" fill="#58676a" opacity="0.7"/>
        <path id="Path_924" data-name="Path 924" d="M1187.02,730.2a.575.575,0,0,0-.49-.241.789.789,0,0,0-.406.114l-2.419,1.449a.639.639,0,0,0-.282.327.447.447,0,0,0,.045.413l1.3,1.985a.586.586,0,0,0,.5.245.778.778,0,0,0,.394-.109l2.42-1.449a.655.655,0,0,0,.286-.331.474.474,0,0,0-.046-.42Z" fill="#58676a" opacity="0.7"/>
        <path id="Path_925" data-name="Path 925" d="M1189.13,733.433a.576.576,0,0,0-.49-.241.792.792,0,0,0-.405.113l-2.419,1.449a.649.649,0,0,0-.284.328.458.458,0,0,0,.046.414l1.3,1.984a.58.58,0,0,0,.5.246.775.775,0,0,0,.4-.11l2.421-1.448a.659.659,0,0,0,.288-.332.461.461,0,0,0-.048-.419Z" fill="#58676a" opacity="0.7"/>
        <path id="Path_926" data-name="Path 926" d="M1155.94,744.316a.593.593,0,0,0-.5-.245.775.775,0,0,0-.394.109l-2.42,1.449a.645.645,0,0,0-.283.331.467.467,0,0,0,.043.42l1.3,1.983a.578.578,0,0,0,.493.24.781.781,0,0,0,.4-.113l2.42-1.448a.651.651,0,0,0,.283-.328.455.455,0,0,0-.046-.414Z" fill="#58676a" opacity="0.7"/>
        <path id="Path_927" data-name="Path 927" d="M1175.19,737.285a.579.579,0,0,0-.492-.242.768.768,0,0,0-.4.111l-2.421,1.449a.656.656,0,0,0-.288.332.454.454,0,0,0,.046.413l1.3,1.983a.581.581,0,0,0,.5.244.775.775,0,0,0,.4-.111l2.42-1.449a.64.64,0,0,0,.28-.325.475.475,0,0,0-.046-.422Z" fill="#58676a" opacity="0.7"/>
        <path id="Path_928" data-name="Path 928" d="M1183.08,732.56a.581.581,0,0,0-.492-.239.783.783,0,0,0-.4.113l-2.419,1.448a.645.645,0,0,0-.283.328.453.453,0,0,0,.045.413l1.3,1.984a.585.585,0,0,0,.5.246.775.775,0,0,0,.394-.109l2.42-1.449a.654.654,0,0,0,.285-.331.471.471,0,0,0-.045-.419Z" fill="#58676a" opacity="0.7"/>
        <path id="Path_929" data-name="Path 929" d="M1169.88,740.465a.571.571,0,0,0-.49-.242.782.782,0,0,0-.4.114l-2.42,1.449a.644.644,0,0,0-.283.327.455.455,0,0,0,.045.414l1.3,1.985a.584.584,0,0,0,.5.245.781.781,0,0,0,.394-.109l2.42-1.45a.643.643,0,0,0,.285-.33.468.468,0,0,0-.045-.419Z" fill="#58676a" opacity="0.7"/>
        <path id="Path_930" data-name="Path 930" d="M1179.13,734.924a.581.581,0,0,0-.492-.241.768.768,0,0,0-.4.111l-2.42,1.448a.655.655,0,0,0-.287.334.451.451,0,0,0,.043.412l1.3,1.983a.579.579,0,0,0,.5.243.776.776,0,0,0,.4-.11l2.421-1.449a.636.636,0,0,0,.279-.324.468.468,0,0,0-.046-.422Z" fill="#58676a" opacity="0.7"/>
        <path id="Path_931" data-name="Path 931" d="M1165.94,742.824a.575.575,0,0,0-.492-.238.779.779,0,0,0-.4.111l-2.42,1.449a.641.641,0,0,0-.283.328.452.452,0,0,0,.046.414l1.3,1.983a.585.585,0,0,0,.5.246.763.763,0,0,0,.393-.11l2.421-1.449a.654.654,0,0,0,.284-.33.468.468,0,0,0-.044-.419Z" fill="#58676a" opacity="0.7"/>
        <path id="Path_932" data-name="Path 932" d="M1158.05,747.55a.577.577,0,0,0-.492-.243.78.78,0,0,0-.4.111l-2.419,1.45a.65.65,0,0,0-.288.333.455.455,0,0,0,.044.411l1.3,1.985a.585.585,0,0,0,.5.242.782.782,0,0,0,.4-.11l2.42-1.449a.639.639,0,0,0,.279-.325.472.472,0,0,0-.046-.422Z" fill="#58676a" opacity="0.7"/>
        <path id="Path_933" data-name="Path 933" d="M1162,745.186a.577.577,0,0,0-.493-.24.781.781,0,0,0-.4.113l-2.419,1.449a.656.656,0,0,0-.288.332.453.453,0,0,0,.044.412l1.3,1.984a.585.585,0,0,0,.5.244.779.779,0,0,0,.4-.111l2.42-1.449a.659.659,0,0,0,.284-.33.469.469,0,0,0-.044-.421Z" fill="#58676a" opacity="0.7"/>
        <path id="Path_934" data-name="Path 934" d="M1187.31,739.03a.581.581,0,0,0-.5-.244.786.786,0,0,0-.4.112l-2.42,1.449a.645.645,0,0,0-.282.326.465.465,0,0,0,.048.42l1.3,1.984a.577.577,0,0,0,.492.242.776.776,0,0,0,.4-.111l2.42-1.449a.651.651,0,0,0,.287-.332.451.451,0,0,0-.044-.412Z" fill="#58676a" opacity="0.7"/>
        <path id="Path_935" data-name="Path 935" d="M1185.19,735.793a.574.574,0,0,0-.492-.239.79.79,0,0,0-.4.112l-2.42,1.449a.649.649,0,0,0-.283.327.461.461,0,0,0,.046.415l1.3,1.983a.581.581,0,0,0,.5.247.782.782,0,0,0,.4-.111l2.42-1.448a.657.657,0,0,0,.286-.332.459.459,0,0,0-.046-.419Z" fill="#58676a" opacity="0.7"/>
        <g id="Group_271" data-name="Group 271">
          <path id="Path_936" data-name="Path 936" d="M1186.07,745.546a.576.576,0,0,0-.491-.242.775.775,0,0,0-.4.112l-2.42,1.448a.653.653,0,0,0-.287.333.453.453,0,0,0,.044.412l1.3,1.984a.585.585,0,0,0,.5.243.777.777,0,0,0,.4-.11l2.42-1.45a.636.636,0,0,0,.28-.325.47.47,0,0,0-.046-.421Z" fill="#58676a" opacity="0.7"/>
          <path id="Path_937" data-name="Path 937" d="M1182.13,747.906a.579.579,0,0,0-.492-.242.777.777,0,0,0-.4.111l-2.42,1.449a.653.653,0,0,0-.289.332.454.454,0,0,0,.046.413l1.3,1.984a.586.586,0,0,0,.5.244.776.776,0,0,0,.4-.112l2.419-1.449a.634.634,0,0,0,.281-.325.472.472,0,0,0-.047-.421Z" fill="#58676a" opacity="0.7"/>
          <path id="Path_938" data-name="Path 938" d="M1198.19,747.292a.585.585,0,0,0-.5-.245.781.781,0,0,0-.4.113l-2.42,1.449a.638.638,0,0,0-.28.324.474.474,0,0,0,.046.422l1.3,1.984a.579.579,0,0,0,.492.242.78.78,0,0,0,.4-.111l2.42-1.449a.662.662,0,0,0,.289-.332.456.456,0,0,0-.046-.413Z" fill="#58676a" opacity="0.7"/>
          <path id="Path_939" data-name="Path 939" d="M1196.07,744.06a.576.576,0,0,0-.494-.246.793.793,0,0,0-.4.113l-2.42,1.449a.645.645,0,0,0-.281.325.467.467,0,0,0,.048.422l1.3,1.984a.577.577,0,0,0,.492.242.772.772,0,0,0,.4-.112l2.419-1.448a.66.66,0,0,0,.29-.334.455.455,0,0,0-.046-.412Z" fill="#58676a" opacity="0.7"/>
          <path id="Path_940" data-name="Path 940" d="M1193.96,740.822a.571.571,0,0,0-.489-.241.791.791,0,0,0-.405.112l-2.42,1.45a.641.641,0,0,0-.283.327.455.455,0,0,0,.046.415l1.3,1.983a.587.587,0,0,0,.5.246.775.775,0,0,0,.393-.11l2.421-1.448a.652.652,0,0,0,.285-.331.467.467,0,0,0-.045-.42Z" fill="#58676a" opacity="0.7"/>
          <path id="Path_941" data-name="Path 941" d="M1194.24,749.652a.587.587,0,0,0-.5-.243.77.77,0,0,0-.4.111l-2.42,1.448a.639.639,0,0,0-.279.326.466.466,0,0,0,.045.421l1.3,1.983a.577.577,0,0,0,.491.243.78.78,0,0,0,.4-.111l2.42-1.449a.653.653,0,0,0,.287-.333.453.453,0,0,0-.044-.412Z" fill="#58676a" opacity="0.7"/>
          <path id="Path_942" data-name="Path 942" d="M1192.41,755.249a.589.589,0,0,0-.5-.245.768.768,0,0,0-.394.109l-2.419,1.449a.655.655,0,0,0-.285.331.468.468,0,0,0,.045.419l1.3,1.984a.584.584,0,0,0,.5.243h0a.78.78,0,0,0,.4-.111l2.42-1.448a.647.647,0,0,0,.28-.326.474.474,0,0,0-.046-.42Z" fill="#58676a" opacity="0.7"/>
          <path id="Path_943" data-name="Path 943" d="M1200.3,750.523a.584.584,0,0,0-.5-.243.777.777,0,0,0-.4.112l-2.42,1.449a.633.633,0,0,0-.278.324.468.468,0,0,0,.045.422l1.3,1.984a.588.588,0,0,0,.5.246.783.783,0,0,0,.393-.109l2.42-1.449a.649.649,0,0,0,.286-.332.466.466,0,0,0-.046-.419Z" fill="#58676a" opacity="0.7"/>
          <path id="Path_944" data-name="Path 944" d="M1196.35,752.885a.584.584,0,0,0-.5-.242.776.776,0,0,0-.4.109l-2.42,1.449a.641.641,0,0,0-.279.326.472.472,0,0,0,.045.421l1.3,1.983a.585.585,0,0,0,.5.247.768.768,0,0,0,.393-.11l2.419-1.448a.653.653,0,0,0,.285-.331.469.469,0,0,0-.044-.42Z" fill="#58676a" opacity="0.7"/>
          <path id="Path_945" data-name="Path 945" d="M1190.3,752.016a.589.589,0,0,0-.5-.244.761.761,0,0,0-.393.109l-2.42,1.448a.65.65,0,0,0-.285.331.473.473,0,0,0,.044.42l1.3,1.984a.575.575,0,0,0,.491.239.787.787,0,0,0,.4-.112l2.421-1.449a.65.65,0,0,0,.282-.326.457.457,0,0,0-.046-.415Z" fill="#58676a" opacity="0.7"/>
          <path id="Path_946" data-name="Path 946" d="M1188.46,757.609a.585.585,0,0,0-.5-.245.772.772,0,0,0-.394.109l-2.42,1.449a.645.645,0,0,0-.286.33.465.465,0,0,0,.046.419l1.3,1.985a.583.583,0,0,0,.5.244.776.776,0,0,0,.4-.112l2.42-1.448a.637.637,0,0,0,.279-.325.468.468,0,0,0-.045-.422Z" fill="#58676a" opacity="0.7"/>
          <path id="Path_947" data-name="Path 947" d="M1192.13,746.42a.581.581,0,0,0-.5-.245.786.786,0,0,0-.4.112l-2.42,1.449a.65.65,0,0,0-.282.326.465.465,0,0,0,.048.42l1.3,1.985a.576.576,0,0,0,.491.242.769.769,0,0,0,.4-.112l2.42-1.448a.659.659,0,0,0,.288-.333.456.456,0,0,0-.044-.412Z" fill="#58676a" opacity="0.7"/>
          <path id="Path_948" data-name="Path 948" d="M1188.18,748.783a.582.582,0,0,0-.5-.247.773.773,0,0,0-.4.112l-2.419,1.448a.655.655,0,0,0-.287.332.46.46,0,0,0,.047.419l1.3,1.983a.576.576,0,0,0,.492.24.794.794,0,0,0,.4-.112l2.42-1.449a.645.645,0,0,0,.282-.326.457.457,0,0,0-.046-.416Z" fill="#58676a" opacity="0.7"/>
          <path id="Path_949" data-name="Path 949" d="M1184.24,751.145a.583.583,0,0,0-.5-.248.771.771,0,0,0-.4.112l-2.42,1.448a.653.653,0,0,0-.288.331.46.46,0,0,0,.048.42l1.3,1.983a.575.575,0,0,0,.49.241.785.785,0,0,0,.405-.114l2.419-1.448a.651.651,0,0,0,.284-.327.453.453,0,0,0-.047-.414Z" fill="#58676a" opacity="0.7"/>
          <path id="Path_950" data-name="Path 950" d="M1190.02,743.182a.578.578,0,0,0-.492-.239.79.79,0,0,0-.4.112l-2.42,1.449a.647.647,0,0,0-.283.326.462.462,0,0,0,.046.416l1.3,1.983a.584.584,0,0,0,.5.245.764.764,0,0,0,.393-.109l2.42-1.448a.648.648,0,0,0,.284-.331.47.47,0,0,0-.044-.42Z" fill="#58676a" opacity="0.7"/>
          <path id="Path_951" data-name="Path 951" d="M1186.35,754.377a.585.585,0,0,0-.5-.245.781.781,0,0,0-.394.109l-2.419,1.448a.646.646,0,0,0-.286.331.47.47,0,0,0,.046.42l1.3,1.984a.577.577,0,0,0,.491.241.788.788,0,0,0,.405-.114l2.419-1.449a.643.643,0,0,0,.284-.327.458.458,0,0,0-.046-.414Z" fill="#58676a" opacity="0.7"/>
        </g>
        <g id="Group_272" data-name="Group 272">
          <path id="Path_952" data-name="Path 952" d="M1176.82,751.086a.571.571,0,0,0-.49-.241.779.779,0,0,0-.4.114l-2.42,1.448a.646.646,0,0,0-.283.328.45.45,0,0,0,.046.413l1.3,1.985a.587.587,0,0,0,.5.245.764.764,0,0,0,.393-.109l2.421-1.449a.649.649,0,0,0,.285-.331.469.469,0,0,0-.045-.419Z" fill="#58676a" opacity="0.7"/>
          <path id="Path_953" data-name="Path 953" d="M1171.05,759.045a.578.578,0,0,0-.5-.245.784.784,0,0,0-.4.112l-2.42,1.449a.658.658,0,0,0-.286.332.46.46,0,0,0,.046.419l1.3,1.983a.574.574,0,0,0,.492.239.78.78,0,0,0,.4-.112l2.42-1.449a.649.649,0,0,0,.287-.333.451.451,0,0,0-.044-.411Z" fill="#58676a" opacity="0.7"/>
          <path id="Path_954" data-name="Path 954" d="M1167.1,761.408a.586.586,0,0,0-.5-.246.763.763,0,0,0-.4.111l-2.42,1.448a.658.658,0,0,0-.286.332.463.463,0,0,0,.046.419l1.3,1.984a.582.582,0,0,0,.492.238.793.793,0,0,0,.4-.111l2.421-1.449a.647.647,0,0,0,.282-.327.455.455,0,0,0-.046-.415Z" fill="#58676a" opacity="0.7"/>
          <path id="Path_955" data-name="Path 955" d="M1168.93,755.807a.578.578,0,0,0-.492-.24.787.787,0,0,0-.4.112l-2.42,1.45a.653.653,0,0,0-.287.333.456.456,0,0,0,.043.412l1.3,1.983a.586.586,0,0,0,.5.244.779.779,0,0,0,.4-.111l2.421-1.449a.652.652,0,0,0,.283-.33.47.47,0,0,0-.044-.42Z" fill="#58676a" opacity="0.7"/>
          <path id="Path_956" data-name="Path 956" d="M1164.98,758.171a.579.579,0,0,0-.491-.243.793.793,0,0,0-.4.111l-2.42,1.45a.657.657,0,0,0-.287.333.45.45,0,0,0,.045.412l1.3,1.984a.585.585,0,0,0,.5.242.772.772,0,0,0,.4-.11l2.419-1.448a.64.64,0,0,0,.28-.325.474.474,0,0,0-.046-.423Z" fill="#58676a" opacity="0.7"/>
          <path id="Path_957" data-name="Path 957" d="M1174.99,756.684a.584.584,0,0,0-.5-.244.78.78,0,0,0-.4.112l-2.42,1.449a.642.642,0,0,0-.282.325.469.469,0,0,0,.047.422l1.3,1.983a.577.577,0,0,0,.492.242.77.77,0,0,0,.4-.111l2.42-1.449a.651.651,0,0,0,.287-.332.456.456,0,0,0-.044-.413Z" fill="#58676a" opacity="0.7"/>
          <path id="Path_958" data-name="Path 958" d="M1172.88,753.446a.576.576,0,0,0-.492-.239.787.787,0,0,0-.4.112l-2.42,1.448a.651.651,0,0,0-.282.327.457.457,0,0,0,.046.415l1.3,1.984a.585.585,0,0,0,.5.246.763.763,0,0,0,.394-.111l2.42-1.447a.664.664,0,0,0,.284-.332.471.471,0,0,0-.044-.419Z" fill="#58676a" opacity="0.7"/>
          <path id="Path_959" data-name="Path 959" d="M1175.27,765.509a.589.589,0,0,0-.5-.242.782.782,0,0,0-.4.111l-2.42,1.448a.655.655,0,0,0-.284.332.468.468,0,0,0,.044.419l1.3,1.984a.589.589,0,0,0,.5.242.782.782,0,0,0,.4-.11l2.419-1.449a.648.648,0,0,0,.284-.331.465.465,0,0,0-.044-.419Z" fill="#58676a" opacity="0.7"/>
          <path id="Path_960" data-name="Path 960" d="M1179.21,763.149a.589.589,0,0,0-.5-.243.775.775,0,0,0-.4.111l-2.42,1.448a.644.644,0,0,0-.28.325.474.474,0,0,0,.045.422l1.3,1.984a.589.589,0,0,0,.5.245.781.781,0,0,0,.394-.109l2.419-1.449a.649.649,0,0,0,.284-.331.465.465,0,0,0-.044-.419Z" fill="#58676a" opacity="0.7"/>
          <path id="Path_961" data-name="Path 961" d="M1183.16,760.789a.585.585,0,0,0-.5-.245.8.8,0,0,0-.4.112l-2.419,1.449a.636.636,0,0,0-.28.325.472.472,0,0,0,.046.422l1.3,1.984a.586.586,0,0,0,.5.245.765.765,0,0,0,.394-.109l2.419-1.449a.649.649,0,0,0,.287-.33.473.473,0,0,0-.046-.421Z" fill="#58676a" opacity="0.7"/>
          <path id="Path_962" data-name="Path 962" d="M1171.32,767.874a.588.588,0,0,0-.5-.246.766.766,0,0,0-.394.11l-2.42,1.449a.654.654,0,0,0-.285.331.475.475,0,0,0,.044.419l1.3,1.984a.585.585,0,0,0,.5.242.78.78,0,0,0,.4-.109l2.419-1.449a.641.641,0,0,0,.28-.326.467.467,0,0,0-.046-.421Z" fill="#58676a" opacity="0.7"/>
          <path id="Path_963" data-name="Path 963" d="M1173.16,762.277a.583.583,0,0,0-.5-.244.769.769,0,0,0-.4.112l-2.419,1.448a.654.654,0,0,0-.286.332.471.471,0,0,0,.045.419l1.3,1.983a.576.576,0,0,0,.492.24.781.781,0,0,0,.4-.113l2.42-1.448a.663.663,0,0,0,.288-.333.459.459,0,0,0-.044-.412Z" fill="#58676a" opacity="0.7"/>
          <path id="Path_964" data-name="Path 964" d="M1181.04,757.557a.585.585,0,0,0-.5-.245.786.786,0,0,0-.4.112l-2.419,1.449a.638.638,0,0,0-.28.324.474.474,0,0,0,.045.422l1.3,1.984a.576.576,0,0,0,.492.242.767.767,0,0,0,.4-.111l2.42-1.448a.667.667,0,0,0,.29-.333.462.462,0,0,0-.045-.413Z" fill="#58676a" opacity="0.7"/>
          <path id="Path_965" data-name="Path 965" d="M1177.1,759.917a.584.584,0,0,0-.5-.243.773.773,0,0,0-.4.111l-2.419,1.448a.63.63,0,0,0-.279.325.469.469,0,0,0,.045.422l1.3,1.984a.58.58,0,0,0,.492.242.774.774,0,0,0,.4-.112l2.419-1.448a.658.658,0,0,0,.288-.333.456.456,0,0,0-.044-.413Z" fill="#58676a" opacity="0.7"/>
          <path id="Path_966" data-name="Path 966" d="M1169.21,764.642a.586.586,0,0,0-.5-.246.766.766,0,0,0-.394.11l-2.419,1.447a.65.65,0,0,0-.285.333.469.469,0,0,0,.044.418l1.3,1.985a.576.576,0,0,0,.491.238.784.784,0,0,0,.4-.111l2.42-1.449a.646.646,0,0,0,.283-.326.462.462,0,0,0-.045-.416Z" fill="#58676a" opacity="0.7"/>
          <path id="Path_967" data-name="Path 967" d="M1178.93,754.323a.587.587,0,0,0-.5-.246.79.79,0,0,0-.4.114l-2.419,1.449a.649.649,0,0,0-.283.325.462.462,0,0,0,.049.421l1.3,1.984a.58.58,0,0,0,.493.242.783.783,0,0,0,.4-.111l2.419-1.448a.671.671,0,0,0,.29-.333.46.46,0,0,0-.046-.413Z" fill="#58676a" opacity="0.7"/>
        </g>
        <g id="Group_273" data-name="Group 273">
          <path id="Path_968" data-name="Path 968" d="M1185.98,764.874a.575.575,0,0,0-.49-.241.794.794,0,0,0-.405.113l-2.42,1.449a.649.649,0,0,0-.283.327.458.458,0,0,0,.046.415l1.3,1.984a.587.587,0,0,0,.5.245.769.769,0,0,0,.394-.11l2.42-1.448a.65.65,0,0,0,.286-.331.469.469,0,0,0-.046-.419Z" fill="#58676a" opacity="0.7"/>
          <path id="Path_969" data-name="Path 969" d="M1180.21,772.833a.581.581,0,0,0-.5-.245.791.791,0,0,0-.4.111l-2.42,1.45a.653.653,0,0,0-.287.331.461.461,0,0,0,.047.418l1.3,1.985a.576.576,0,0,0,.492.239.785.785,0,0,0,.4-.112l2.42-1.448a.664.664,0,0,0,.287-.334.454.454,0,0,0-.043-.412Z" fill="#58676a" opacity="0.7"/>
          <path id="Path_970" data-name="Path 970" d="M1176.27,775.2a.584.584,0,0,0-.5-.247.782.782,0,0,0-.4.111l-2.421,1.449a.658.658,0,0,0-.285.331.465.465,0,0,0,.045.42l1.3,1.983a.577.577,0,0,0,.492.239h0a.779.779,0,0,0,.4-.112l2.42-1.448a.651.651,0,0,0,.283-.328.455.455,0,0,0-.046-.414Z" fill="#58676a" opacity="0.7"/>
          <path id="Path_971" data-name="Path 971" d="M1178.1,769.595a.578.578,0,0,0-.493-.24.786.786,0,0,0-.4.112l-2.421,1.45a.655.655,0,0,0-.287.332.459.459,0,0,0,.044.413l1.3,1.984a.589.589,0,0,0,.5.243.782.782,0,0,0,.4-.111l2.42-1.449a.652.652,0,0,0,.283-.33.466.466,0,0,0-.044-.421Z" fill="#58676a" opacity="0.7"/>
          <path id="Path_972" data-name="Path 972" d="M1174.15,771.959a.576.576,0,0,0-.491-.242.77.77,0,0,0-.4.111l-2.42,1.449a.662.662,0,0,0-.288.332.455.455,0,0,0,.045.412l1.3,1.985a.585.585,0,0,0,.5.243.779.779,0,0,0,.4-.111l2.42-1.449a.636.636,0,0,0,.279-.324.465.465,0,0,0-.046-.422Z" fill="#58676a" opacity="0.7"/>
          <path id="Path_973" data-name="Path 973" d="M1184.16,770.473a.582.582,0,0,0-.5-.245.786.786,0,0,0-.4.112l-2.42,1.449a.641.641,0,0,0-.282.326.46.46,0,0,0,.049.42l1.3,1.984a.576.576,0,0,0,.491.242.768.768,0,0,0,.4-.111l2.42-1.449a.651.651,0,0,0,.287-.332.449.449,0,0,0-.044-.413Z" fill="#58676a" opacity="0.7"/>
          <path id="Path_974" data-name="Path 974" d="M1182.04,767.234a.574.574,0,0,0-.492-.239.78.78,0,0,0-.4.112l-2.419,1.449a.638.638,0,0,0-.283.326.454.454,0,0,0,.046.415l1.3,1.983a.586.586,0,0,0,.5.246.774.774,0,0,0,.393-.109l2.421-1.449a.656.656,0,0,0,.283-.33.472.472,0,0,0-.043-.421Z" fill="#58676a" opacity="0.7"/>
          <path id="Path_975" data-name="Path 975" d="M1184.44,779.3a.59.59,0,0,0-.5-.242.782.782,0,0,0-.4.111l-2.419,1.449a.659.659,0,0,0-.285.331.472.472,0,0,0,.044.418l1.3,1.985a.588.588,0,0,0,.5.242.784.784,0,0,0,.4-.11l2.419-1.448a.65.65,0,0,0,.284-.332.465.465,0,0,0-.044-.419Z" fill="#58676a" opacity="0.7"/>
          <path id="Path_976" data-name="Path 976" d="M1188.38,776.938a.583.583,0,0,0-.5-.244.782.782,0,0,0-.4.111l-2.42,1.449a.638.638,0,0,0-.279.325.472.472,0,0,0,.046.422l1.3,1.983a.585.585,0,0,0,.5.246.778.778,0,0,0,.394-.109l2.419-1.449a.648.648,0,0,0,.284-.331.464.464,0,0,0-.044-.419Z" fill="#58676a" opacity="0.7"/>
          <path id="Path_977" data-name="Path 977" d="M1192.32,774.576a.586.586,0,0,0-.5-.244.782.782,0,0,0-.4.112L1189,775.893a.642.642,0,0,0-.281.325.478.478,0,0,0,.046.422l1.3,1.983a.583.583,0,0,0,.5.245.777.777,0,0,0,.394-.108l2.419-1.449a.655.655,0,0,0,.286-.331.468.468,0,0,0-.046-.42Z" fill="#58676a" opacity="0.7"/>
          <path id="Path_978" data-name="Path 978" d="M1180.49,781.662a.588.588,0,0,0-.5-.246.766.766,0,0,0-.394.11l-2.419,1.448a.647.647,0,0,0-.285.332.466.466,0,0,0,.044.418l1.3,1.985a.585.585,0,0,0,.5.242.768.768,0,0,0,.4-.111l2.42-1.447a.646.646,0,0,0,.28-.326.47.47,0,0,0-.046-.421Z" fill="#58676a" opacity="0.7"/>
          <path id="Path_979" data-name="Path 979" d="M1182.32,776.065a.584.584,0,0,0-.5-.243.779.779,0,0,0-.4.111L1179,777.381a.651.651,0,0,0-.285.331.464.464,0,0,0,.045.419l1.3,1.985a.577.577,0,0,0,.492.238.79.79,0,0,0,.4-.112l2.419-1.448a.661.661,0,0,0,.288-.334.452.452,0,0,0-.044-.411Z" fill="#58676a" opacity="0.7"/>
          <path id="Path_980" data-name="Path 980" d="M1190.21,771.344a.588.588,0,0,0-.5-.244.774.774,0,0,0-.4.112l-2.419,1.448a.642.642,0,0,0-.28.326.469.469,0,0,0,.045.422l1.3,1.983a.577.577,0,0,0,.492.242.759.759,0,0,0,.4-.112l2.42-1.447a.667.667,0,0,0,.29-.333.459.459,0,0,0-.046-.413Z" fill="#58676a" opacity="0.7"/>
          <path id="Path_981" data-name="Path 981" d="M1186.27,773.705a.587.587,0,0,0-.5-.244.782.782,0,0,0-.4.111l-2.419,1.449a.64.64,0,0,0-.28.325.475.475,0,0,0,.045.422l1.3,1.983a.578.578,0,0,0,.492.242.77.77,0,0,0,.4-.111l2.42-1.449a.661.661,0,0,0,.288-.332.458.458,0,0,0-.044-.413Z" fill="#58676a" opacity="0.7"/>
          <path id="Path_982" data-name="Path 982" d="M1178.38,778.429a.587.587,0,0,0-.5-.245.778.778,0,0,0-.4.11l-2.419,1.448a.658.658,0,0,0-.285.332.472.472,0,0,0,.045.418l1.3,1.985a.578.578,0,0,0,.492.239.779.779,0,0,0,.4-.113l2.42-1.448a.645.645,0,0,0,.283-.327.455.455,0,0,0-.046-.414Z" fill="#58676a" opacity="0.7"/>
          <path id="Path_983" data-name="Path 983" d="M1188.1,768.111a.582.582,0,0,0-.495-.246.787.787,0,0,0-.4.114l-2.42,1.448a.654.654,0,0,0-.282.326.459.459,0,0,0,.049.42l1.3,1.985a.577.577,0,0,0,.491.243.78.78,0,0,0,.4-.111l2.42-1.45a.653.653,0,0,0,.289-.332.457.457,0,0,0-.046-.413Z" fill="#58676a" opacity="0.7"/>
        </g>
        <g id="Group_274" data-name="Group 274">
          <path id="Path_984" data-name="Path 984" d="M1203.17,754.756a.572.572,0,0,0-.49-.241.779.779,0,0,0-.4.114l-2.42,1.448a.648.648,0,0,0-.283.327.46.46,0,0,0,.045.415l1.3,1.983a.586.586,0,0,0,.5.246.761.761,0,0,0,.393-.109l2.421-1.449a.653.653,0,0,0,.285-.331.468.468,0,0,0-.045-.419Z" fill="#58676a" opacity="0.7"/>
          <path id="Path_985" data-name="Path 985" d="M1197.4,762.714a.583.583,0,0,0-.5-.245.787.787,0,0,0-.4.113l-2.419,1.448a.661.661,0,0,0-.287.333.458.458,0,0,0,.047.418l1.3,1.984a.576.576,0,0,0,.492.239.778.778,0,0,0,.4-.112l2.42-1.449a.649.649,0,0,0,.287-.333.456.456,0,0,0-.043-.413Z" fill="#58676a" opacity="0.7"/>
          <path id="Path_986" data-name="Path 986" d="M1193.45,765.078a.585.585,0,0,0-.5-.246.779.779,0,0,0-.4.11l-2.421,1.448a.671.671,0,0,0-.286.332.465.465,0,0,0,.046.419l1.3,1.984a.579.579,0,0,0,.491.239h0a.79.79,0,0,0,.4-.111l2.421-1.449a.644.644,0,0,0,.282-.328.452.452,0,0,0-.046-.414Z" fill="#58676a" opacity="0.7"/>
          <path id="Path_987" data-name="Path 987" d="M1195.29,759.477a.578.578,0,0,0-.492-.24.779.779,0,0,0-.4.113l-2.42,1.448a.662.662,0,0,0-.287.333.455.455,0,0,0,.044.413l1.3,1.983a.585.585,0,0,0,.5.243.777.777,0,0,0,.4-.11l2.421-1.449a.65.65,0,0,0,.283-.331.465.465,0,0,0-.044-.419Z" fill="#58676a" opacity="0.7"/>
          <path id="Path_988" data-name="Path 988" d="M1191.34,761.841a.577.577,0,0,0-.491-.243.777.777,0,0,0-.4.111l-2.42,1.449a.665.665,0,0,0-.288.334.455.455,0,0,0,.045.411l1.3,1.985a.589.589,0,0,0,.5.242.763.763,0,0,0,.4-.111l2.419-1.447a.646.646,0,0,0,.28-.326.469.469,0,0,0-.045-.421Z" fill="#58676a" opacity="0.7"/>
          <path id="Path_989" data-name="Path 989" d="M1201.34,760.354a.583.583,0,0,0-.5-.244.772.772,0,0,0-.4.112l-2.42,1.448a.649.649,0,0,0-.282.326.462.462,0,0,0,.049.421l1.3,1.983a.575.575,0,0,0,.492.243.779.779,0,0,0,.4-.111l2.42-1.448a.655.655,0,0,0,.287-.334.454.454,0,0,0-.044-.412Z" fill="#58676a" opacity="0.7"/>
          <path id="Path_990" data-name="Path 990" d="M1199.23,757.116a.575.575,0,0,0-.492-.24.788.788,0,0,0-.4.113l-2.419,1.448a.651.651,0,0,0-.283.328.459.459,0,0,0,.046.414l1.3,1.984a.586.586,0,0,0,.5.245.775.775,0,0,0,.394-.109l2.42-1.449a.653.653,0,0,0,.284-.331.47.47,0,0,0-.044-.42Z" fill="#58676a" opacity="0.7"/>
          <path id="Path_991" data-name="Path 991" d="M1201.62,769.18a.586.586,0,0,0-.5-.243.783.783,0,0,0-.4.111l-2.42,1.448a.655.655,0,0,0-.284.332.466.466,0,0,0,.044.418l1.3,1.984a.582.582,0,0,0,.5.243.784.784,0,0,0,.4-.11l2.42-1.449a.659.659,0,0,0,.284-.33.472.472,0,0,0-.044-.42Z" fill="#58676a" opacity="0.7"/>
          <path id="Path_992" data-name="Path 992" d="M1205.56,766.818a.584.584,0,0,0-.5-.242.769.769,0,0,0-.4.11l-2.42,1.449a.634.634,0,0,0-.279.325.471.471,0,0,0,.045.422l1.3,1.984a.586.586,0,0,0,.5.245.778.778,0,0,0,.394-.109l2.419-1.449a.653.653,0,0,0,.284-.331.467.467,0,0,0-.044-.42Z" fill="#58676a" opacity="0.7"/>
          <path id="Path_993" data-name="Path 993" d="M1209.51,764.459a.583.583,0,0,0-.5-.244.775.775,0,0,0-.4.111l-2.419,1.449a.634.634,0,0,0-.279.325.464.464,0,0,0,.046.421l1.3,1.984a.585.585,0,0,0,.5.246.775.775,0,0,0,.394-.109l2.42-1.449a.652.652,0,0,0,.286-.33.47.47,0,0,0-.046-.421Z" fill="#58676a" opacity="0.7"/>
          <path id="Path_994" data-name="Path 994" d="M1197.68,771.543a.587.587,0,0,0-.5-.245.775.775,0,0,0-.394.109l-2.42,1.449a.648.648,0,0,0-.284.331.47.47,0,0,0,.044.42l1.3,1.984a.587.587,0,0,0,.5.242.763.763,0,0,0,.4-.111l2.421-1.448a.647.647,0,0,0,.279-.325.466.466,0,0,0-.047-.421Z" fill="#58676a" opacity="0.7"/>
          <path id="Path_995" data-name="Path 995" d="M1199.51,765.946a.585.585,0,0,0-.5-.242.772.772,0,0,0-.4.11l-2.42,1.449a.643.643,0,0,0-.284.331.468.468,0,0,0,.043.419l1.3,1.984a.573.573,0,0,0,.492.239.774.774,0,0,0,.4-.112l2.421-1.448a.666.666,0,0,0,.287-.333.458.458,0,0,0-.044-.413Z" fill="#58676a" opacity="0.7"/>
          <path id="Path_996" data-name="Path 996" d="M1207.4,761.227a.585.585,0,0,0-.5-.245.773.773,0,0,0-.4.112l-2.42,1.449a.638.638,0,0,0-.28.324.474.474,0,0,0,.046.422l1.3,1.984a.579.579,0,0,0,.492.242.771.771,0,0,0,.4-.111l2.421-1.449a.662.662,0,0,0,.289-.332.46.46,0,0,0-.046-.413Z" fill="#58676a" opacity="0.7"/>
          <path id="Path_997" data-name="Path 997" d="M1203.45,763.586a.589.589,0,0,0-.5-.242.76.76,0,0,0-.4.111l-2.419,1.448a.627.627,0,0,0-.28.325.468.468,0,0,0,.045.422l1.3,1.983a.58.58,0,0,0,.493.242.767.767,0,0,0,.4-.111l2.42-1.448a.666.666,0,0,0,.288-.334.457.457,0,0,0-.045-.412Z" fill="#58676a" opacity="0.7"/>
          <path id="Path_998" data-name="Path 998" d="M1195.56,768.311a.585.585,0,0,0-.5-.245.771.771,0,0,0-.393.109l-2.42,1.449a.654.654,0,0,0-.285.332.471.471,0,0,0,.045.419l1.3,1.983a.574.574,0,0,0,.491.239.79.79,0,0,0,.4-.111l2.42-1.45a.647.647,0,0,0,.282-.325.459.459,0,0,0-.045-.416Z" fill="#58676a" opacity="0.7"/>
          <path id="Path_999" data-name="Path 999" d="M1205.28,757.993a.582.582,0,0,0-.5-.246.793.793,0,0,0-.4.114l-2.419,1.449a.635.635,0,0,0-.282.325.461.461,0,0,0,.048.421l1.3,1.984a.578.578,0,0,0,.492.242.773.773,0,0,0,.4-.111l2.419-1.449a.651.651,0,0,0,.289-.332.453.453,0,0,0-.045-.413Z" fill="#58676a" opacity="0.7"/>
        </g>
      </g>
      <g id="Group_276" data-name="Group 276" opacity="0.1">
        <path id="Path_1000" data-name="Path 1000" d="M1153.54,753.622l3.37,5.27,22.86-31.665-14.47,8.744Z" fill="#fff"/>
      </g>
      <g id="Group_277" data-name="Group 277" opacity="0.1">
        <path id="Path_1001" data-name="Path 1001" d="M1164.97,771.484l7.25,11.335,28.86-37.173-7.25-11.334Z" fill="#fff"/>
      </g>
      <g id="Group_278" data-name="Group 278" opacity="0.1">
        <path id="Path_1002" data-name="Path 1002" d="M1178.99,788.183l15.28-9.23,13.41-22.99-1.93-3.025Z" fill="#fff"/>
      </g>
    </g>
  </g>
</svg>
