<svg xmlns="http://www.w3.org/2000/svg" xmlns:xlink="http://www.w3.org/1999/xlink" width="308.348" height="210.436" viewBox="0 0 308.348 210.436"><defs><linearGradient id="a" x1="0.339" y1="0.94" x2="0.649" y2="0.097" gradientUnits="objectBoundingBox"><stop offset="0" stop-color="#a1a1bd"/><stop offset="1" stop-color="#fff"/></linearGradient><clipPath id="b"><path d="M780.379,718.744c8.884,9.9,28.8,13.234,43.928,6.845s18.306-19.472,7.743-28.659c-9.924-8.633-28.475-10.632-41.97-4.938S772.032,709.441,780.379,718.744Z"/></clipPath><clipPath id="c"><path d="M844.164,754.729c8.885,9.9,28.8,13.234,43.928,6.845s18.306-19.473,7.744-28.66c-9.924-8.631-28.475-10.631-41.97-4.937S835.817,745.427,844.164,754.729Z"/></clipPath></defs><g transform="translate(-732.573 -683.273)"><path d="M1038.41,787.518l-133.024-78a5.083,5.083,0,0,0-5.11-.019L735.117,806.591a5.084,5.084,0,0,0-.04,8.785L867,893.007a5.083,5.083,0,0,0,5.1.033l166.26-96.725A5.084,5.084,0,0,0,1038.41,787.518Z" fill="url(#a)"/><path d="M740.9,817.207l19-10.91V774.23l-19,10.911Z" fill="#283838"/><path d="M767.32,786.332l-9.614,5.551a14.974,14.974,0,0,0-6.792,11.764l.021,7.322c.006,2.144.763,3.652,1.985,4.363l31.412,18.408c-1.222-.71-1.979-2.22-1.985-4.363l-.021-7.322a14.973,14.973,0,0,1,6.792-11.764l9.613-5.551c1.894-1.094,3.609-1.193,4.848-.474l-31.413-18.408C770.929,785.139,769.214,785.238,767.32,786.332Z" fill="#8d8c91"/><path d="M798.732,804.74l-9.613,5.551a14.971,14.971,0,0,0-6.792,11.764l.021,7.322c.013,4.317,3.071,6.061,6.836,3.888l9.614-5.551a14.961,14.961,0,0,0,6.792-11.756l-.021-7.322C805.557,804.318,802.5,802.566,798.732,804.74Z" fill="#455354"/><path d="M786.4,822.674h0l13.94-8.048a2.362,2.362,0,0,0,1.18-2.044h0l-13.94,8.049A2.36,2.36,0,0,0,786.4,822.674Z" fill="#1e2a28" opacity="0.5"/><path d="M786.4,819.923h0l13.94-8.048a2.363,2.363,0,0,0,1.18-2.044h0l-13.94,8.049A2.361,2.361,0,0,0,786.4,819.923Z" fill="#1e2a28" opacity="0.5"/><path d="M786.4,828.176l13.94-8.049a2.361,2.361,0,0,0,1.18-2.043h0l-13.94,8.049A2.36,2.36,0,0,0,786.4,828.176Z" fill="#1e2a28" opacity="0.5"/><path d="M786.4,825.424h0l13.94-8.047a2.362,2.362,0,0,0,1.18-2.044h0l-13.94,8.048A2.361,2.361,0,0,0,786.4,825.424Z" fill="#1e2a28" opacity="0.5"/><path d="M865.095,842.377c-8.345,4.817-15.108,16.533-15.108,26.168s6.764,13.54,15.108,8.723S880.2,860.735,880.2,851.1,873.438,837.561,865.095,842.377Z" fill="#1e2a28"/><path d="M808.517,809.713c-8.344,4.816-15.107,16.532-15.107,26.167,0,4.76,1.65,8.121,4.327,9.724l56.577,32.664c-2.676-1.6-4.327-4.963-4.327-9.723,0-9.635,6.764-21.351,15.108-26.168,4.222-2.438,8.039-2.642,10.78-1L819.3,808.712C816.557,807.07,812.739,807.275,808.517,809.713Z" fill="#283838"/><path d="M845.848,866.707l-48.677-28.1v.988l48.678,28.1c0-.129-.012-.256-.013-.385C845.833,867.107,845.845,866.908,845.848,866.707Z" fill="#d84c4b" opacity="0.8"/><path d="M734.381,781.518l136.6,78.866V806.438l-136.6-78.866Z" fill="#58676a"/><path d="M734.381,723.837,870.98,802.7l70.255-40.564-136.6-78.866Z" fill="#b8b4a9"/><path d="M734.381,727.572l136.6,78.866v-3.72l-136.6-78.866Z" fill="#8d8c91"/><path d="M864.46,888.69l6.517,3.763V860.387l-6.517-3.763Z" fill="#58676a"/><path d="M734.381,813.444l6.516,3.763V785.141l-6.516-3.763Z" fill="#58676a"/><path d="M870.98,860.384l70.308-40.593V765.846L870.98,806.438Z" fill="#ebe7dc"/><path d="M870.98,806.438l70.308-40.592v-3.754L870.98,802.685Z" fill="#8d8c91"/><path d="M870.977,892.453l70.308-40.44v-32.22l-70.308,40.594Z" fill="#8d8c91"/><path d="M873.581,864.431l65.106-37.588V823.76l-65.106,37.588Z" fill="#58676a"/><path d="M873.581,862.761v1.67l65.106-37.588-1.446-.837Z" fill="#b8b4a9"/><path d="M873.581,869.363l65.106-37.589v-3.083L873.581,866.28Z" fill="#58676a"/><path d="M873.581,867.694v1.669l65.106-37.589-1.446-.835Z" fill="#b8b4a9"/><path d="M873.581,874.3l65.106-37.589v-3.083l-65.106,37.589Z" fill="#58676a"/><path d="M873.581,872.627V874.3l65.106-37.589-1.446-.834Z" fill="#b8b4a9"/><path d="M873.581,879.229l65.106-37.589v-3.083l-65.106,37.589Z" fill="#58676a"/><path d="M873.581,877.559v1.67l65.106-37.589-1.446-.835Z" fill="#b8b4a9"/><path d="M873.581,884.161l65.106-37.589V843.49l-65.106,37.588Z" fill="#58676a"/><path d="M873.581,882.491v1.67l65.106-37.589-1.446-.835Z" fill="#b8b4a9"/><path d="M873.581,889.094l65.106-37.588v-3.084l-65.106,37.59Z" fill="#58676a"/><path d="M873.581,887.424v1.67l65.106-37.588-1.446-.836Z" fill="#b8b4a9"/><path d="M937.241,850.67l1.446.836v-3.084l-1.446.835Z" fill="#58676a"/><path d="M937.241,845.737l1.446.835V843.49l-1.446.834Z" fill="#58676a"/><path d="M937.241,840.8l1.446.835v-3.083l-1.446.834Z" fill="#58676a"/><path d="M937.241,835.873l1.446.834v-3.083l-1.446.835Z" fill="#58676a"/><path d="M937.241,830.939l1.446.835v-3.083l-1.446.835Z" fill="#58676a"/><path d="M937.241,826.006l1.446.837V823.76l-1.446.834Z" fill="#58676a"/><path d="M843.658,829.971l2.023-1.176.07-24.866-2.022,1.175Z" fill="#283838"/><path d="M761.479,757.617l82.25,47.487,2.022-1.175L763.5,756.441Z" fill="#b8b4a9"/><path d="M761.408,782.483l82.25,47.488.071-24.867-82.25-47.487Z" fill="#8d8c91"/><path d="M765.878,781.688l53.2,30.714V794.223l-53.15-30.688Z" fill="#cfd2d2"/><path d="M821.51,798.109l19.381,11.19v-2.143l-19.365-11.179Z" fill="#283838"/><path d="M821.51,802.364l19.381,11.19v-2.142l-19.365-11.18Z" fill="#283838"/><path d="M821.51,806.619l19.381,11.19v-2.141l-19.365-11.181Z" fill="#283838"/><path d="M821.51,810.875l19.381,11.189v-2.141l-19.365-11.181Z" fill="#283838"/><path d="M812.2,804.191l3.232,1.867V795.609l-3.232-1.865Z" fill="#48484d"/><path d="M810.356,805.052l2.624,1.524,1.312-10.152-2.624-1.526Z" fill="#85bc2d"/><path d="M811.668,794.9l2.624,1.526.808-.467-2.624-1.525Z" fill="#acdf46"/><path d="M814.292,796.424l-1.312,10.152,2.135-1.22-.015-9.4Z" fill="#458401"/><path d="M803.862,799.989l3.233,1.865V791.406l-3.233-1.865Z" fill="#48484d"/><path d="M802.017,800.849l2.624,1.524,1.31-10.152-2.624-1.526Z" fill="#85bc2d"/><path d="M803.327,790.7l2.624,1.526.809-.467-2.624-1.525Z" fill="#acdf46"/><path d="M805.951,792.221l-1.31,10.152,2.133-1.22-.014-9.4Z" fill="#458401"/><path d="M839.62,704.912l-64.741-.51-7.327,12.639a18.362,18.362,0,0,0,5.449,19.8,34.374,34.374,0,0,0,4.773,3.292c16.26,9.388,42.479,9.137,58.88,0a26.635,26.635,0,0,0,5.759-4.318,18.469,18.469,0,0,0,4.406-18.882Z" fill="#fff"/><path d="M833.227,695.238c-6.285-5.469-15.882-8.607-26.32-8.607a45.415,45.415,0,0,0-17.5,3.354c-8.182,3.452-13.6,9.211-14.859,15.794-.967,5.043.627,10.188,4.483,14.483C784.97,726.89,795.855,731,807.424,731a45.532,45.532,0,0,0,17.56-3.41c8.63-3.647,14.111-9.686,15.037-16.564C840.79,705.328,838.377,699.72,833.227,695.238Z" fill="#d1cec5"/><path d="M832.05,696.93c-9.924-8.633-28.475-10.633-41.97-4.938s-18.048,17.449-9.7,26.752c8.884,9.9,28.8,13.234,43.928,6.844S842.612,706.117,832.05,696.93Z" fill="#283838"/><g clip-path="url(#b)"><path d="M780.27,710.63c-4.566,4.349-.406,8.875-.406,8.875,7.235-8.874,20.725-8.934,20.725-8.934l-1.152-2.147S785.512,705.637,780.27,710.63Z" fill="#58676a"/><path d="M783.913,698.347c-6,1.485-5.705,6.824-5.705,6.824,12.3-2.406,23.254,3.841,23.254,3.841l.728-2.745S788.8,697.137,783.913,698.347Z" fill="#58676a"/><path d="M793.866,692.477c-4.475-.785-7.353,2.9-7.353,2.9,9.084,1.753,16.119,9.541,16.119,9.541l1.312-1.883S799.3,693.429,793.866,692.477Z" fill="#58676a"/><path d="M822.824,693.417c-1.093,8.694-10.741,13.267-10.741,13.267l-.484,3.354c2.262,2.037,15.209,1.689,17.438-5.707C831.581,695.886,822.824,693.417,822.824,693.417Z" fill="#58676a"/><path d="M802.55,691.44c6.968,4.265,3.809,12.736,3.809,12.736l2.648,1.7c3.212-1.175,9.1-6.783,5.229-12.848C810.806,687.648,802.55,691.44,802.55,691.44Z" fill="#58676a"/><path d="M811.731,710.359l-3.472,2.232c5.287,5.245,17.51,13.838,24.479,7.629,7.417-6.609,3.4-12.054,3.4-12.054C821.694,713.709,811.731,710.359,811.731,710.359Z" fill="#58676a"/><path d="M835.885,708.259a7.384,7.384,0,0,1-1.711,5.264c-3.014,3.991-9.782,4.768-14,4.179-2.352-.328-4.472-1.517-6.584-2.387a25.2,25.2,0,0,1-5.252-2.771l-.076.049c5.287,5.245,17.51,13.838,24.479,7.629,7.417-6.609,3.4-12.054,3.4-12.054Z" fill="#455354"/><path d="M805.718,712.775c1.53,7.561,6.52,20.877,15.225,18.547,9.264-2.48,11.339-8.9,11.339-8.9a70.149,70.149,0,0,1-22.665-10Z" fill="#58676a"/><path d="M829.864,725.283c-12.2,7.157-20.429-8.147-21.721-12.729l-2.426.221c1.53,7.561,6.52,20.877,15.225,18.547,9.264-2.48,11.339-8.9,11.339-8.9l-.05-.013A6.514,6.514,0,0,1,829.864,725.283Z" fill="#455354"/><path d="M807.1,713.324l-3.42-1.37c-4.829,2.991-5.865,22.451,1.264,22.528s11.229-7.225,11.229-7.225C806.029,717.665,807.1,713.324,807.1,713.324Z" fill="#58676a"/><path d="M803.729,711.976l-.053-.021c-4.829,2.991-5.865,22.451,1.264,22.528a10.416,10.416,0,0,0,4.176-.832C799.642,734.376,799.943,715.871,803.729,711.976Z" fill="#455354"/><path d="M787.761,726.033a9.844,9.844,0,0,0,10.132-.06c1.078-9.546,6.289-13.778,6.289-13.778l-3.282-1.571C792.191,714.281,782.175,722.92,787.761,726.033Z" fill="#58676a"/></g><path d="M812.751,710.864c-3.4,1.882-8.6,1.535-11.446-.642a3.842,3.842,0,0,1-1.767-3.414l-.431,1.818a4.236,4.236,0,0,0,1.811,3.687c2.932,2.392,8.315,2.872,11.838.921,1.8-1,2.685-2.412,2.644-3.849l-.095-2.159C815.344,708.566,814.492,709.9,812.751,710.864Z" fill="#b8b4a9"/><path d="M812.915,703.8a11.773,11.773,0,0,0-10.837-.227c-3.033,1.677-3.445,4.6-.773,6.65,2.844,2.177,8.047,2.523,11.446.642S816.136,705.766,812.915,703.8Z" fill="#fff"/><path d="M811.382,704.752a8.488,8.488,0,0,0-7.814-.163c-2.188,1.21-2.484,3.321-.559,4.8a8.292,8.292,0,0,0,8.255.462C813.714,708.49,813.7,706.171,811.382,704.752Z" fill="#54608a"/><path d="M811.382,704.752a8.488,8.488,0,0,0-7.814-.163c-1.516.838-2.123,2.108-1.713,3.3a3.234,3.234,0,0,1,1.588-1.714,7.871,7.871,0,0,1,7.244.151,2.668,2.668,0,0,1,1.548,2.818C813.654,707.785,813.34,705.948,811.382,704.752Z" fill="#676f93"/><path d="M903.405,740.9l-64.741-.511-7.327,12.64a18.363,18.363,0,0,0,5.45,19.8,34.4,34.4,0,0,0,4.773,3.292c16.259,9.388,42.479,9.138,58.879,0A26.613,26.613,0,0,0,906.2,771.8a18.466,18.466,0,0,0,4.406-18.881Z" fill="#fff"/><path d="M897.013,731.224c-6.286-5.469-15.883-8.607-26.32-8.607a45.424,45.424,0,0,0-17.5,3.354c-8.181,3.452-13.6,9.211-14.859,15.793-.966,5.043.627,10.188,4.483,14.484,5.942,6.628,16.827,10.743,28.4,10.743a45.543,45.543,0,0,0,17.559-3.41c8.631-3.647,14.111-9.686,15.037-16.564C904.576,741.313,902.163,735.705,897.013,731.224Z" fill="#d1cec5"/><path d="M895.836,732.914c-9.924-8.631-28.475-10.632-41.97-4.937s-18.049,17.449-9.7,26.752c8.885,9.9,28.8,13.235,43.928,6.845S906.4,742.1,895.836,732.914Z" fill="#283838"/><g clip-path="url(#c)"><path d="M844.056,746.615c-4.566,4.349-.407,8.875-.407,8.875,7.236-8.874,20.725-8.934,20.725-8.934l-1.152-2.147S849.3,741.623,844.056,746.615Z" fill="#58676a"/><path d="M847.7,734.332c-6,1.485-5.705,6.824-5.705,6.824,12.3-2.406,23.254,3.841,23.254,3.841l.729-2.745S852.587,733.121,847.7,734.332Z" fill="#58676a"/><path d="M857.652,728.462c-4.476-.785-7.354,2.9-7.354,2.9,9.084,1.752,16.119,9.541,16.119,9.541l1.313-1.885S863.089,729.414,857.652,728.462Z" fill="#58676a"/><path d="M886.609,729.4c-1.092,8.694-10.741,13.267-10.741,13.267l-.484,3.354c2.263,2.037,15.209,1.689,17.438-5.707C895.366,731.871,886.609,729.4,886.609,729.4Z" fill="#58676a"/><path d="M866.335,727.426c6.968,4.265,3.809,12.736,3.809,12.736l2.648,1.7c3.212-1.176,9.1-6.784,5.23-12.849C874.591,723.634,866.335,727.426,866.335,727.426Z" fill="#58676a"/><path d="M875.518,746.345l-3.473,2.232c5.287,5.245,17.511,13.837,24.479,7.628,7.416-6.607,3.4-12.053,3.4-12.053C885.48,749.694,875.518,746.345,875.518,746.345Z" fill="#58676a"/><path d="M899.671,744.244a7.387,7.387,0,0,1-1.712,5.264c-3.014,3.99-9.782,4.768-14,4.179-2.352-.328-4.473-1.517-6.585-2.387a25.153,25.153,0,0,1-5.251-2.772l-.077.05c5.287,5.245,17.511,13.837,24.479,7.628,7.416-6.607,3.4-12.053,3.4-12.053C899.836,744.186,899.754,744.213,899.671,744.244Z" fill="#455354"/><path d="M869.5,748.761c1.53,7.56,6.52,20.878,15.225,18.546,9.265-2.48,11.34-8.9,11.34-8.9a70.149,70.149,0,0,1-22.666-10Z" fill="#58676a"/><path d="M893.649,761.27c-12.2,7.156-20.428-8.148-21.72-12.729l-2.427.221c1.53,7.56,6.52,20.878,15.225,18.546,9.265-2.48,11.34-8.9,11.34-8.9-.018,0-.033-.009-.05-.014A6.529,6.529,0,0,1,893.649,761.27Z" fill="#455354"/><path d="M870.882,749.309l-3.419-1.369c-4.83,2.991-5.866,22.451,1.264,22.528s11.229-7.226,11.229-7.226C869.815,753.65,870.882,749.309,870.882,749.309Z" fill="#58676a"/><path d="M867.516,747.961l-.054-.021c-4.829,2.991-5.865,22.451,1.265,22.528a10.413,10.413,0,0,0,4.175-.833C863.428,770.361,863.729,751.855,867.516,747.961Z" fill="#455354"/><path d="M851.547,762.019a9.842,9.842,0,0,0,10.131-.06c1.079-9.546,6.29-13.778,6.29-13.778l-3.283-1.571C855.977,750.267,845.961,758.905,851.547,762.019Z" fill="#58676a"/></g><path d="M876.537,746.85c-3.4,1.881-8.6,1.535-11.447-.642a3.845,3.845,0,0,1-1.767-3.414l-.43,1.817a4.233,4.233,0,0,0,1.81,3.688c2.932,2.393,8.316,2.871,11.839.921,1.8-1,2.685-2.412,2.643-3.85l-.095-2.158C879.129,744.552,878.278,745.886,876.537,746.85Z" fill="#b8b4a9"/><path d="M876.7,739.784a11.778,11.778,0,0,0-10.838-.228c-3.033,1.678-3.445,4.606-.773,6.651,2.844,2.177,8.048,2.522,11.447.642S879.922,741.751,876.7,739.784Z" fill="#fff"/><path d="M875.167,740.737a8.485,8.485,0,0,0-7.814-.163c-2.187,1.209-2.484,3.32-.558,4.795a8.288,8.288,0,0,0,8.254.463C877.5,744.476,877.489,742.156,875.167,740.737Z" fill="#54608a"/><path d="M875.167,740.737a8.485,8.485,0,0,0-7.814-.163c-1.516.837-2.123,2.108-1.712,3.3a3.233,3.233,0,0,1,1.587-1.715,7.874,7.874,0,0,1,7.244.152,2.67,2.67,0,0,1,1.549,2.818C877.439,743.771,877.126,741.934,875.167,740.737Z" fill="#676f93"/><path d="M908.777,798.9c-.489-.563-1.365-.564-2.344,0a5.92,5.92,0,0,0-2.345,2.708l-14.043,32.431a2.635,2.635,0,0,0,0,2.711c.49.561,1.365.562,2.345,0l28.085-16.215a5.93,5.93,0,0,0,2.345-2.7,2.641,2.641,0,0,0,0-2.712Z" fill="#85bc2d"/><path d="M906.466,819.13c-.334.192-.61.1-.638-.219l-.77-8.974c-.3-3.138,4.713-5.692,4.446-2.566l-.771,9.861a1.349,1.349,0,0,1-.637.955Zm.814,1.628a3.887,3.887,0,0,0-1.873,2.955c0,1.035.839,1.389,1.873.792a3.89,3.89,0,0,0,1.874-2.955C909.154,820.516,908.314,820.16,907.28,820.758Z" fill="#fff"/><path d="M771.016,776.7a.957.957,0,0,0-.96-.095l-1.075.665,2,3.262,1-.6a.953.953,0,0,0,.4-.878A3,3,0,0,0,771.016,776.7Z" fill="#283838"/><path d="M769.977,777.339c-.75-.433-1.358-.082-1.358.784a3,3,0,0,0,1.358,2.353c.75.433,1.357.081,1.357-.784A3,3,0,0,0,769.977,777.339Z" fill="#8d8c91"/><path d="M775.292,779.313a.957.957,0,0,0-.96-.095l-1.075.665,2,3.262,1-.6a.955.955,0,0,0,.4-.879A3,3,0,0,0,775.292,779.313Z" fill="#283838"/><path d="M774.253,779.956c-.75-.434-1.358-.082-1.358.784a3.006,3.006,0,0,0,1.358,2.353c.75.433,1.358.081,1.358-.784A3,3,0,0,0,774.253,779.956Z" fill="#8d8c91"/><path d="M779.568,781.93a.955.955,0,0,0-.96-.095l-1.074.665,2,3.262,1-.6a.955.955,0,0,0,.4-.879A2.994,2.994,0,0,0,779.568,781.93Z" fill="#283838"/><path d="M778.529,782.572c-.75-.433-1.358-.081-1.358.785a3,3,0,0,0,1.358,2.352c.75.434,1.358.082,1.358-.783A3,3,0,0,0,778.529,782.572Z" fill="#8d8c91"/><path d="M771.016,770.571a.955.955,0,0,0-.96-.095l-1.075.665,2,3.261,1-.6a.954.954,0,0,0,.4-.879A3,3,0,0,0,771.016,770.571Z" fill="#283838"/><path d="M769.977,771.215c-.75-.434-1.358-.082-1.358.783a3,3,0,0,0,1.358,2.353c.75.434,1.357.082,1.357-.784A3,3,0,0,0,769.977,771.215Z" fill="#8d8c91"/><path d="M775.292,773.188a.952.952,0,0,0-.96-.095l-1.075.665,2,3.261,1-.6a.957.957,0,0,0,.4-.879A3,3,0,0,0,775.292,773.188Z" fill="#283838"/><path d="M774.253,773.832c-.75-.434-1.358-.082-1.358.783a3,3,0,0,0,1.358,2.353c.75.433,1.358.082,1.358-.784A3,3,0,0,0,774.253,773.832Z" fill="#8d8c91"/><path d="M779.568,775.8a.954.954,0,0,0-.96-.094l-1.074.664,2,3.262,1-.6a.954.954,0,0,0,.4-.878A3,3,0,0,0,779.568,775.8Z" fill="#283838"/><path d="M778.529,776.448c-.75-.433-1.358-.082-1.358.784a3,3,0,0,0,1.358,2.353c.75.433,1.358.082,1.358-.784A3,3,0,0,0,778.529,776.448Z" fill="#8d8c91"/><path d="M786.462,785.947a.954.954,0,0,0-.959-.1l-1.075.665,2,3.262,1-.6a.954.954,0,0,0,.4-.879A3,3,0,0,0,786.462,785.947Z" fill="#283838"/><path d="M785.423,786.59c-.75-.434-1.357-.082-1.357.784a3,3,0,0,0,1.357,2.353c.75.433,1.358.082,1.358-.784A3,3,0,0,0,785.423,786.59Z" fill="#85bc2d"/><path d="M786.462,779.822a.953.953,0,0,0-.959-.095l-1.075.665,2,3.262,1-.6a.955.955,0,0,0,.4-.879A3,3,0,0,0,786.462,779.822Z" fill="#283838"/><path d="M785.423,780.465c-.75-.433-1.357-.081-1.357.785a3,3,0,0,0,1.357,2.352c.75.434,1.358.082,1.358-.784A3,3,0,0,0,785.423,780.465Z" fill="#85bc2d"/><path d="M797.506,786.034a2.38,2.38,0,0,0-2.4-.237l-2.211,1.32,4.985,8.139,2.015-1.163a2.379,2.379,0,0,0,.992-2.192A7.481,7.481,0,0,0,797.506,786.034Z" fill="#283838"/><path d="M795.386,787.3c-1.872-1.081-3.39-.205-3.39,1.956a7.491,7.491,0,0,0,3.39,5.87c1.871,1.081,3.389.2,3.389-1.956A7.493,7.493,0,0,0,795.386,787.3Z" fill="#8d8c91"/><path d="M795.386,788.431c-1.331-.768-2.409-.146-2.409,1.392A5.323,5.323,0,0,0,795.386,794c1.33.769,2.408.146,2.408-1.391A5.324,5.324,0,0,0,795.386,788.431Z" fill="#b8b4a9"/><path d="M795.386,790.64c-.274-.158-.5-.03-.5.286a1.1,1.1,0,0,0,.5.86c.273.158.5.03.5-.286A1.1,1.1,0,0,0,795.386,790.64Z" fill="#8d8c91"/><path d="M790.2,789.479l.681,1.178L792.9,789.5l-.68-1.18Z" fill="#283838"/><path d="M792.561,788.354c-.266-.153-.481-.029-.481.278a1.062,1.062,0,0,0,.481.833c.266.154.481.029.481-.277A1.069,1.069,0,0,0,792.561,788.354Z" fill="#283838"/><path d="M790.538,789.512c-.266-.153-.48-.029-.48.278a1.063,1.063,0,0,0,.48.833c.267.154.481.029.481-.277A1.063,1.063,0,0,0,790.538,789.512Z" fill="#8d8c91"/></g></svg>