<svg xmlns="http://www.w3.org/2000/svg" xmlns:xlink="http://www.w3.org/1999/xlink" width="318.596" height="212.899" viewBox="0 0 318.596 212.899"><defs><linearGradient id="a" x1="0.329" y1="0.855" x2="0.717" y2="0.132" gradientUnits="objectBoundingBox"><stop offset="0" stop-color="#a1a1bd"/><stop offset="1" stop-color="#fff"/></linearGradient></defs><g transform="translate(-187.088 -125.869)"><path d="M344.691,142.447,240.349,199.34l-53.26,99.873,26.242,19.018c17.663,12.635,21.361,11.89,31.051,12.605l15.222.115,5.5,0s3.032,7.774,3.033,7.773l15.155-20.6v-1.65c1.715,4.947,7.731,22.3,7.73,22.3h30.467c5.737,0,10.286-.783,13.311-2.2a11.794,11.794,0,0,0,2.111-1.57L505.684,234.845Z" fill="url(#a)"/><path d="M215.594,161.549h-.089Z" fill="#d1cec5"/><path d="M255.225,138.459l29.995,4.949V263.1L255.225,247.8Z" fill="#58676a"/><path d="M255.225,138.459l-9.566,14,.8,117.5,8.77-22.163Z" fill="#283838"/><path d="M259.354,156.034l-43.848.537V276.258l43.848-2.586Z" fill="#8d8c91"/><path d="M188.767,137.054l26.739,19.517V276.258L188.767,254.69Z" fill="#dadada"/><path d="M263.393,208.825V328.417h-5.5l-15.222-.115c-9.689-.716-12.74-.379-30.4-13.014l-25.175-18.073V174.248l.1.8c.389,2.157,3.719,5.192,3.979,5.379,3.89,2.782,21.1,15.23,21.1,15.23,17.663,12.624,20.714,12.287,30.4,13.013Z" fill="#8d8c91"/><path d="M240.974,212.766c-10.2-.734-14.6-1.613-31.792-13.9,0,0-10.382-7.509-22.092-16.1v13.447c11.71,8.591,22.092,16.1,22.092,16.1,17.192,12.288,21.593,13.166,31.792,13.9l17.159.229V212.994Z" fill="#58676a"/><path d="M187.088,188.322c2.923,2.155,4.407,3.239,5.827,4.281v5.08c-1.441-1.052-2.925-2.135-5.827-4.28Z" fill="#85bc2d"/><path d="M200.367,198.221V203.3c-1.7-1.241-3.556-2.588-6.158-4.6V193.62C196.853,195.664,198.715,197.011,200.367,198.221Z" fill="#85bc2d"/><path d="M207.11,203.123v5.092c-1.462-1.063-3.335-2.43-5.513-4.019v-5.081C204.144,200.967,206.079,202.365,207.11,203.123Z" fill="#85bc2d"/><path d="M213.854,207.867v5.166c-1.083-.747-2.23-1.558-3.451-2.431-.021-.021-.768-.558-2.062-1.5V204C210.34,205.427,212.16,206.711,213.854,207.867Z" fill="#85bc2d"/><path d="M221.733,213v5.186c-1.946-1.156-4.134-2.577-6.648-4.3V208.72C217.578,210.414,219.755,211.823,221.733,213Z" fill="#85bc2d"/><path d="M229.612,216.894v5.2a41.689,41.689,0,0,1-6.648-3.177v-5.2A44.591,44.591,0,0,0,229.612,216.894Z" fill="#85bc2d"/><path d="M237.629,218.767v5.05a33.566,33.566,0,0,1-6.786-1.315v-5.187A35.21,35.21,0,0,0,237.629,218.767Z" fill="#85bc2d"/><path d="M246.455,219.145v5.039l-5.386-.072c-.768-.053-1.5-.116-2.209-.169V218.9c.642.063,1.293.116,1.967.168Z" fill="#85bc2d"/><path d="M240.974,229.706c-10.2-.735-14.6-1.613-31.792-13.9,0,0-10.382-7.509-22.092-16.1v13.448c11.71,8.591,22.092,16.1,22.092,16.1,17.192,12.288,21.593,13.166,31.792,13.9l17.159.228V229.934Z" fill="#58676a"/><path d="M187.088,205.263c2.923,2.155,4.407,3.239,5.827,4.28v5.082c-1.441-1.053-2.925-2.136-5.827-4.281Z" fill="#85bc2d"/><path d="M200.367,215.161v5.081c-1.7-1.241-3.556-2.588-6.158-4.6V210.56C196.853,212.6,198.715,213.951,200.367,215.161Z" fill="#85bc2d"/><path d="M207.11,220.063v5.092c-1.462-1.063-3.335-2.431-5.513-4.019v-5.081C204.144,217.907,206.079,219.307,207.11,220.063Z" fill="#85bc2d"/><path d="M213.854,224.809v5.165c-1.083-.747-2.23-1.558-3.451-2.431-.021-.021-.768-.557-2.062-1.5v-5.1C210.34,222.367,212.16,223.65,213.854,224.809Z" fill="#85bc2d"/><path d="M221.733,229.941v5.188c-1.946-1.158-4.134-2.578-6.648-4.3V225.66C217.578,227.354,219.755,228.764,221.733,229.941Z" fill="#85bc2d"/><path d="M229.612,233.834v5.2a41.529,41.529,0,0,1-6.648-3.178v-5.2A44.5,44.5,0,0,0,229.612,233.834Z" fill="#85bc2d"/><path d="M237.629,235.707v5.05a33.566,33.566,0,0,1-6.786-1.315v-5.186A35.209,35.209,0,0,0,237.629,235.707Z" fill="#85bc2d"/><path d="M246.455,236.086v5.039l-5.386-.074c-.768-.053-1.5-.115-2.209-.168v-5.039c.642.063,1.293.115,1.967.168Z" fill="#85bc2d"/><path d="M240.974,246.646c-10.2-.734-14.6-1.613-31.792-13.9,0,0-10.382-7.509-22.092-16.1v13.447c11.71,8.59,22.092,16.1,22.092,16.1,17.192,12.288,21.593,13.166,31.792,13.9l17.159.229V246.874Z" fill="#58676a"/><path d="M187.088,222.2c2.923,2.156,4.407,3.239,5.827,4.281v5.08c-1.441-1.052-2.925-2.135-5.827-4.28Z" fill="#85bc2d"/><path d="M200.367,232.1v5.082c-1.7-1.242-3.556-2.589-6.158-4.6V227.5C196.853,229.545,198.715,230.892,200.367,232.1Z" fill="#85bc2d"/><path d="M207.11,237V242.1c-1.462-1.063-3.335-2.43-5.513-4.019V233C204.144,234.848,206.079,236.246,207.11,237Z" fill="#85bc2d"/><path d="M213.854,241.748v5.166c-1.083-.747-2.23-1.558-3.451-2.43-.021-.021-.768-.559-2.062-1.505v-5.1C210.34,239.308,212.16,240.592,213.854,241.748Z" fill="#85bc2d"/><path d="M221.733,246.883v5.186c-1.946-1.156-4.134-2.577-6.648-4.3V242.6C217.578,244.295,219.755,245.7,221.733,246.883Z" fill="#85bc2d"/><path d="M229.612,250.775v5.2a41.689,41.689,0,0,1-6.648-3.177v-5.2A44.5,44.5,0,0,0,229.612,250.775Z" fill="#85bc2d"/><path d="M237.629,252.647v5.05a33.564,33.564,0,0,1-6.786-1.315v-5.187A35.061,35.061,0,0,0,237.629,252.647Z" fill="#85bc2d"/><path d="M246.455,253.025v5.04l-5.386-.073c-.768-.053-1.5-.116-2.209-.169v-5.039c.642.063,1.293.116,1.967.168Z" fill="#85bc2d"/><path d="M353.444,176.076V306.251c0,2.647-1.988,5.755-5.1,9.689l-11.478,14.886-1.662,1.641V197.947Z" fill="#58676a"/><path d="M240.974,263.587c-10.2-.735-14.6-1.613-31.792-13.9,0,0-10.382-7.509-22.092-16.1v13.448c11.71,8.591,22.092,16.1,22.092,16.1,17.192,12.288,21.593,13.166,31.792,13.9l17.159.228V263.815Z" fill="#58676a"/><path d="M187.088,239.144c2.923,2.155,4.407,3.239,5.827,4.28v5.082c-1.441-1.053-2.925-2.136-5.827-4.281Z" fill="#85bc2d"/><path d="M200.367,249.042v5.081c-1.7-1.241-3.556-2.588-6.158-4.6v-5.081C196.853,246.486,198.715,247.832,200.367,249.042Z" fill="#85bc2d"/><path d="M207.11,253.944v5.092c-1.462-1.063-3.335-2.431-5.513-4.019v-5.081C204.144,251.788,206.079,253.188,207.11,253.944Z" fill="#85bc2d"/><path d="M213.854,258.689v5.165c-1.083-.747-2.23-1.558-3.451-2.431-.021-.021-.768-.557-2.062-1.5v-5.1C210.34,256.248,212.16,257.532,213.854,258.689Z" fill="#85bc2d"/><path d="M221.733,263.823v5.187c-1.946-1.157-4.134-2.578-6.648-4.3v-5.165C217.578,261.235,219.755,262.645,221.733,263.823Z" fill="#85bc2d"/><path d="M229.612,267.715v5.2a41.515,41.515,0,0,1-6.648-3.177v-5.2A44.493,44.493,0,0,0,229.612,267.715Z" fill="#85bc2d"/><path d="M237.629,269.588v5.05a33.564,33.564,0,0,1-6.786-1.315v-5.186A35.21,35.21,0,0,0,237.629,269.588Z" fill="#85bc2d"/><path d="M246.455,269.967v5.039l-5.386-.074c-.768-.053-1.5-.115-2.209-.168v-5.039c.642.063,1.293.115,1.967.168Z" fill="#85bc2d"/><path d="M240.974,280.527c-10.2-.734-14.6-1.613-31.792-13.9,0,0-10.382-7.509-22.092-16.1v13.447c11.71,8.591,22.092,16.1,22.092,16.1,17.192,12.288,21.593,13.166,31.792,13.9l17.159.229V280.755Z" fill="#58676a"/><path d="M187.088,256.084c2.923,2.156,4.407,3.239,5.827,4.281v5.08c-1.441-1.052-2.925-2.135-5.827-4.28Z" fill="#85bc2d"/><path d="M200.367,265.982v5.082c-1.7-1.242-3.556-2.589-6.158-4.6v-5.081C196.853,263.427,198.715,264.772,200.367,265.982Z" fill="#85bc2d"/><path d="M207.11,270.885v5.092c-1.462-1.063-3.335-2.43-5.513-4.019v-5.081C204.144,268.729,206.079,270.127,207.11,270.885Z" fill="#85bc2d"/><path d="M213.854,275.629v5.166c-1.083-.747-2.23-1.557-3.451-2.43-.021-.021-.768-.559-2.062-1.505v-5.1C210.34,273.188,212.16,274.473,213.854,275.629Z" fill="#85bc2d"/><path d="M221.733,280.764v5.186c-1.946-1.156-4.134-2.577-6.648-4.3v-5.165C217.578,278.176,219.755,279.585,221.733,280.764Z" fill="#85bc2d"/><path d="M229.612,284.656v5.2a41.6,41.6,0,0,1-6.648-3.177v-5.2A44.509,44.509,0,0,0,229.612,284.656Z" fill="#85bc2d"/><path d="M237.629,286.528v5.05a33.564,33.564,0,0,1-6.786-1.315v-5.187A35.136,35.136,0,0,0,237.629,286.528Z" fill="#85bc2d"/><path d="M246.455,286.907v5.039l-5.386-.073c-.768-.053-1.5-.116-2.209-.169v-5.039c.642.063,1.293.116,1.967.169Z" fill="#85bc2d"/><path d="M240.974,297.468c-10.2-.735-14.6-1.613-31.792-13.9,0,0-10.382-7.509-22.092-16.1v13.448c11.71,8.591,22.092,16.1,22.092,16.1,17.192,12.288,21.593,13.166,31.792,13.9l17.159.228V297.7Z" fill="#58676a"/><path d="M187.088,273.024c2.923,2.155,4.407,3.239,5.827,4.28v5.082c-1.441-1.053-2.925-2.136-5.827-4.281Z" fill="#85bc2d"/><path d="M200.367,282.923V288c-1.7-1.24-3.556-2.588-6.158-4.6v-5.082C196.853,280.367,198.715,281.713,200.367,282.923Z" fill="#85bc2d"/><path d="M207.11,287.825v5.092c-1.462-1.063-3.335-2.431-5.513-4.019v-5.081C204.144,285.669,206.079,287.068,207.11,287.825Z" fill="#85bc2d"/><path d="M213.854,292.57v5.165c-1.083-.747-2.23-1.558-3.451-2.431-.021-.021-.768-.557-2.062-1.5v-5.1C210.34,290.129,212.16,291.413,213.854,292.57Z" fill="#85bc2d"/><path d="M221.733,297.7v5.187c-1.946-1.157-4.134-2.578-6.648-4.3v-5.166C217.578,295.116,219.755,296.525,221.733,297.7Z" fill="#85bc2d"/><path d="M229.612,301.6v5.2a41.515,41.515,0,0,1-6.648-3.177v-5.2A44.493,44.493,0,0,0,229.612,301.6Z" fill="#85bc2d"/><path d="M237.629,303.469v5.05a33.564,33.564,0,0,1-6.786-1.315v-5.186A35.281,35.281,0,0,0,237.629,303.469Z" fill="#85bc2d"/><path d="M246.455,303.848v5.039l-5.386-.074c-.768-.052-1.5-.115-2.209-.168v-5.039c.642.063,1.293.115,1.967.168Z" fill="#85bc2d"/><path d="M320.108,147.875l-34.888-4.467V263.1l34.888-5.876Z" fill="#283838"/><path d="M240.159,167.5v30.963l-19.451-13.034Z" fill="#283838"/><path d="M303.184,168.775v28.41l17.847-13.823Z" fill="#283838"/><path d="M291.8,175.357v21.854l11.386-.026v-28.41Z" fill="#58676a"/><path d="M213.831,185.59c3.225,0,13.23.271,13.23.271l13.1-18.363-40.623-11.359-10.769,13.409C182.69,177.637,193.582,185.59,213.831,185.59Z" fill="#b8b4a9"/><path d="M337.012,199.2V327.666a6.989,6.989,0,0,1-3.921,6.372c-3.025,1.411-7.573,2.2-13.311,2.2H289.314V206.941Z" fill="#8d8c91"/><path d="M333.656,208.649v11.636c-3.083,1.619-7.985,2.514-14.286,2.472h-26.7V211.121h26.7C325.671,211.164,330.584,210.27,333.656,208.649Z" fill="#58676a"/><path d="M323.985,216.032v5.018a29.074,29.074,0,0,0,6.849-1.277V214.92A36.156,36.156,0,0,1,323.985,216.032Z" fill="#85bc2d"/><rect width="8.355" height="5.021" transform="translate(293.937 216.074)" fill="#85bc2d"/><rect width="8.356" height="5.021" transform="translate(303.965 216.074)" fill="#85bc2d"/><rect width="8.356" height="5.021" transform="translate(313.994 216.074)" fill="#85bc2d"/><path d="M333.656,223.243v11.636c-3.083,1.619-7.985,2.514-14.286,2.472h-26.7V225.716h26.7C325.671,225.758,330.584,224.863,333.656,223.243Z" fill="#58676a"/><path d="M323.985,230.626v5.018a29.074,29.074,0,0,0,6.849-1.277v-4.853A36.156,36.156,0,0,1,323.985,230.626Z" fill="#85bc2d"/><rect width="8.355" height="5.021" transform="translate(293.937 230.668)" fill="#85bc2d"/><rect width="8.356" height="5.021" transform="translate(303.965 230.668)" fill="#85bc2d"/><rect width="8.356" height="5.021" transform="translate(313.994 230.668)" fill="#85bc2d"/><path d="M333.656,237.837v11.636c-3.083,1.62-7.985,2.514-14.286,2.472h-26.7V240.31h26.7C325.671,240.352,330.584,239.457,333.656,237.837Z" fill="#58676a"/><path d="M323.985,245.22v5.018a29.074,29.074,0,0,0,6.849-1.277v-4.853A36.317,36.317,0,0,1,323.985,245.22Z" fill="#85bc2d"/><rect width="8.355" height="5.021" transform="translate(293.937 245.262)" fill="#85bc2d"/><rect width="8.356" height="5.021" transform="translate(303.965 245.262)" fill="#85bc2d"/><rect width="8.356" height="5.021" transform="translate(313.994 245.262)" fill="#85bc2d"/><path d="M333.656,252.431v11.636c-3.083,1.619-7.985,2.514-14.286,2.472h-26.7V254.9h26.7C325.671,254.945,330.584,254.051,333.656,252.431Z" fill="#58676a"/><path d="M323.985,259.813v5.018a29.073,29.073,0,0,0,6.849-1.277V258.7A36.154,36.154,0,0,1,323.985,259.813Z" fill="#85bc2d"/><rect width="8.355" height="5.021" transform="translate(293.937 259.855)" fill="#85bc2d"/><rect width="8.356" height="5.021" transform="translate(303.965 259.855)" fill="#85bc2d"/><rect width="8.356" height="5.021" transform="translate(313.994 259.855)" fill="#85bc2d"/><path d="M333.656,267.024V278.66c-3.083,1.619-7.985,2.514-14.286,2.472h-26.7V269.5h26.7C325.671,269.539,330.584,268.645,333.656,267.024Z" fill="#58676a"/><path d="M323.985,274.407v5.018a29.073,29.073,0,0,0,6.849-1.277V273.3A36.156,36.156,0,0,1,323.985,274.407Z" fill="#85bc2d"/><rect width="8.355" height="5.021" transform="translate(293.937 274.449)" fill="#85bc2d"/><rect width="8.356" height="5.021" transform="translate(303.965 274.449)" fill="#85bc2d"/><rect width="8.356" height="5.021" transform="translate(313.994 274.449)" fill="#85bc2d"/><path d="M333.656,281.618v11.636c-3.083,1.619-7.985,2.514-14.286,2.472h-26.7V284.091h26.7C325.671,284.133,330.584,283.238,333.656,281.618Z" fill="#58676a"/><path d="M323.985,289v5.018a29.073,29.073,0,0,0,6.849-1.277v-4.853A36.156,36.156,0,0,1,323.985,289Z" fill="#85bc2d"/><rect width="8.355" height="5.021" transform="translate(293.937 289.043)" fill="#85bc2d"/><rect width="8.356" height="5.021" transform="translate(303.965 289.043)" fill="#85bc2d"/><rect width="8.356" height="5.021" transform="translate(313.994 289.043)" fill="#85bc2d"/><path d="M333.656,296.212v11.636c-3.083,1.62-7.985,2.514-14.286,2.472h-26.7V298.685h26.7C325.671,298.727,330.584,297.832,333.656,296.212Z" fill="#58676a"/><path d="M323.985,303.6v5.018a29.073,29.073,0,0,0,6.849-1.277v-4.853A36.316,36.316,0,0,1,323.985,303.6Z" fill="#85bc2d"/><rect width="8.355" height="5.021" transform="translate(293.937 303.637)" fill="#85bc2d"/><rect width="8.356" height="5.021" transform="translate(303.965 303.637)" fill="#85bc2d"/><rect width="8.356" height="5.021" transform="translate(313.994 303.637)" fill="#85bc2d"/><path d="M333.656,310.806v11.636c-3.083,1.619-7.985,2.514-14.286,2.472h-26.7V313.279h26.7C325.671,313.32,330.584,312.426,333.656,310.806Z" fill="#58676a"/><path d="M323.985,318.188v5.018a29.073,29.073,0,0,0,6.849-1.277v-4.853A36.154,36.154,0,0,1,323.985,318.188Z" fill="#85bc2d"/><rect width="8.355" height="5.021" transform="translate(293.937 318.23)" fill="#85bc2d"/><rect width="8.356" height="5.021" transform="translate(303.965 318.23)" fill="#85bc2d"/><rect width="8.356" height="5.021" transform="translate(313.994 318.23)" fill="#85bc2d"/><path d="M319.366,207.447c17.848.112,24.465-7.225,10.217-17.547-2.062-1.493-8.406-6.141-8.406-6.141l-40.05.066,8.185,23.623Z" fill="#b8b4a9"/><path d="M202.916,140.979l-14.149-3.8,26.682,19.393,44.144-.365-13.934-3.743,10.255-14.2-5.214-3.729c-11.645-8.328-32.8-12.354-40.669-2.947Z" fill="#b8b4a9"/><path d="M303.227,171.609l26.883,19.226c2.611,1.608,8.472,6.036,6.6,11.427l11.48-14.88c9.671-12.241,4.129-16.944-1.921-20.792l-9.936-6.951,11.14-3.925-41.827-.792-13.937,20.436Z" fill="#d1cec5"/><path d="M247.689,133.065c15.9,10.848,37.531,26.538,37.531,26.538l34.889-11.555-23.452-16.52s-7.791-5.659-21.609-5.659c-11.733,0-47.864.38-47.864.38S238.5,126.8,247.689,133.065Z" fill="#d1cec5"/><path d="M281.127,183.826l8.186,23.623V336.233l-8.186-23.613Z" fill="#283838"/><path d="M281.583,197.946,266.427,216.5V336.188l15.156-20.6Z" fill="#58676a"/><path d="M263.395,208.764l3.032,7.738V336.188l-3.032-7.774Z" fill="#b8b4a9"/><path d="M242.666,208.664l20.763.156,3.009,7.727,15.145-18.6-30.208-20.07,2.964,7.607-41.441-.07a49.653,49.653,0,0,1-21.955-5.147l21.327,15.385C229.926,208.279,232.979,207.944,242.666,208.664Z" fill="#d1cec5"/></g></svg>