<svg xmlns="http://www.w3.org/2000/svg" xmlns:xlink="http://www.w3.org/1999/xlink" width="296.264" height="199.422" viewBox="0 0 296.264 199.422"><defs><linearGradient id="a" x1="0.339" y1="0.94" x2="0.649" y2="0.097" gradientUnits="objectBoundingBox"><stop offset="0" stop-color="#a1a1bd"/><stop offset="1" stop-color="#fff"/></linearGradient></defs><g transform="translate(-1010.35 -413.97)"><path d="M1304.28,514.75l-123.57-72.457a4.721,4.721,0,0,0-4.746-.018l-153.421,90.192a4.721,4.721,0,0,0-.037,8.16l122.548,72.113a4.724,4.724,0,0,0,4.736.031l154.443-89.85A4.719,4.719,0,0,0,1304.28,514.75Z" fill="url(#a)"/><path d="M1201.05,511.781v66.514l2.59,1.5-.01-66.513Z" fill="#b8b4a9"/><path d="M1203.63,513.285l0,66.513,3-1.735v-69.4a2.865,2.865,0,0,0-.458.213A5.626,5.626,0,0,0,1203.63,513.285Z" fill="#8d8c91"/><path d="M1146.3,541.426v66.512l2.59,1.5V542.928Z" fill="#b8b4a9"/><path d="M1148.89,542.928l0,66.514,3-1.734v-69.4a3.087,3.087,0,0,0-.459.211A5.606,5.606,0,0,0,1148.89,542.928Z" fill="#8d8c91"/><path d="M1031.74,476.18l.01,66.512,2.58,1.5V477.683Z" fill="#b8b4a9"/><path d="M1034.33,477.683l0,66.513,3-1.734v-69.4a2.983,2.983,0,0,0-.458.212A5.626,5.626,0,0,0,1034.33,477.683Z" fill="#8d8c91"/><path d="M1142.62,575.759l75.61-64.716V487.936L1142.62,553.3Z" fill="#8d8c91"/><path d="M1021.67,504.917l120.95,70.842V553.3L1021.67,481.81Z" fill="#b8b4a9"/><path d="M1010.35,489.373l.85,2.9,126.31,73.979-.85-2.9Z" fill="#fff"/><path d="M1010.35,489.373l126.31,73.98,87.26-75.406L1097.61,413.97Z" fill="#ebe7dc"/><path d="M1014.41,488.566l121.69,71.288,83.2-71.91-121.68-71.288Z" fill="#283838"/><path d="M1136.66,563.353l.85,2.9,87.26-75.4-.85-2.9Z" fill="#d1cec5"/><path d="M1199.02,497.84l-4.131-2.395a1.5,1.5,0,0,0-.754-.185,1.827,1.827,0,0,0-1.158.4l-3.846,3.278a.843.843,0,0,0-.349.7.716.716,0,0,0,.389.539l4.131,2.393a1.526,1.526,0,0,0,.763.186,1.843,1.843,0,0,0,1.169-.4l3.848-3.279a.808.808,0,0,0,.333-.68A.726.726,0,0,0,1199.02,497.84Z" fill="#58676a" opacity="0.7"/><path d="M1185.56,490.039l-4.13-2.395a1.526,1.526,0,0,0-.765-.187,1.836,1.836,0,0,0-1.158.4l-3.847,3.278a.833.833,0,0,0-.343.692.724.724,0,0,0,.4.549l4.13,2.393a1.491,1.491,0,0,0,.75.184h0a1.847,1.847,0,0,0,1.17-.408l3.848-3.278a.822.822,0,0,0,.339-.684A.721.721,0,0,0,1185.56,490.039Z" fill="#58676a" opacity="0.7"/><path d="M1192.29,493.939l-4.131-2.4a1.53,1.53,0,0,0-.764-.186,1.824,1.824,0,0,0-1.158.4l-3.847,3.278a.834.834,0,0,0-.343.692.723.723,0,0,0,.394.548l4.131,2.394a1.526,1.526,0,0,0,.763.187,1.833,1.833,0,0,0,1.169-.4l3.848-3.278a.81.81,0,0,0,.334-.681A.73.73,0,0,0,1192.29,493.939Z" fill="#58676a" opacity="0.7"/><path d="M1178.83,486.139l-4.131-2.394a1.53,1.53,0,0,0-.768-.188,1.821,1.821,0,0,0-1.155.4l-3.847,3.279a.84.84,0,0,0-.347.693.729.729,0,0,0,.4.547l4.132,2.394a1.5,1.5,0,0,0,.75.183,1.854,1.854,0,0,0,1.171-.406l3.847-3.28a.818.818,0,0,0,.34-.685A.711.711,0,0,0,1178.83,486.139Z" fill="#58676a" opacity="0.7"/><path d="M1169.75,480.88l-4.129-2.394a1.512,1.512,0,0,0-.754-.185,1.829,1.829,0,0,0-1.158.4l-3.847,3.279a.846.846,0,0,0-.349.694.711.711,0,0,0,.39.539l4.13,2.394a1.522,1.522,0,0,0,.765.188,1.847,1.847,0,0,0,1.167-.4l3.847-3.279a.819.819,0,0,0,.338-.681A.726.726,0,0,0,1169.75,480.88Z" fill="#58676a" opacity="0.7"/><path d="M1163.02,476.979l-4.131-2.394a1.488,1.488,0,0,0-.752-.184,1.829,1.829,0,0,0-1.158.4l-3.847,3.278a.842.842,0,0,0-.349.7.711.711,0,0,0,.388.537l4.133,2.4a1.523,1.523,0,0,0,.761.186,1.845,1.845,0,0,0,1.17-.4l3.848-3.279a.817.817,0,0,0,.334-.681A.712.712,0,0,0,1163.02,476.979Z" fill="#58676a" opacity="0.7"/><path d="M1156.76,482.32l-4.131-2.394a1.5,1.5,0,0,0-.749-.184,1.844,1.844,0,0,0-1.172.408l-3.847,3.278a.827.827,0,0,0-.341.686.715.715,0,0,0,.391.541l4.131,2.394a1.538,1.538,0,0,0,.764.186,1.823,1.823,0,0,0,1.157-.4l3.848-3.278a.832.832,0,0,0,.344-.691A.751.751,0,0,0,1156.76,482.32Z" fill="#58676a" opacity="0.7"/><path d="M1163.49,486.221l-4.131-2.394a1.5,1.5,0,0,0-.75-.185,1.845,1.845,0,0,0-1.171.409l-3.847,3.277a.826.826,0,0,0-.341.686.718.718,0,0,0,.391.54l4.13,2.394a1.536,1.536,0,0,0,.77.19,1.827,1.827,0,0,0,1.153-.4l3.848-3.278a.847.847,0,0,0,.347-.692A.768.768,0,0,0,1163.49,486.221Z" fill="#58676a" opacity="0.7"/><path d="M1179.29,495.38l-4.131-2.394a1.525,1.525,0,0,0-.762-.186,1.843,1.843,0,0,0-1.17.4l-3.848,3.277a.819.819,0,0,0-.334.682.73.73,0,0,0,.4.55l4.131,2.394a1.5,1.5,0,0,0,.754.184,1.835,1.835,0,0,0,1.158-.4l3.847-3.278a.847.847,0,0,0,.349-.7A.711.711,0,0,0,1179.29,495.38Z" fill="#58676a" opacity="0.7"/><path d="M1172.56,491.479l-4.13-2.394a1.527,1.527,0,0,0-.765-.188,1.846,1.846,0,0,0-1.167.407l-3.848,3.277a.829.829,0,0,0-.339.682.735.735,0,0,0,.4.551l4.131,2.393a1.493,1.493,0,0,0,.754.184,1.821,1.821,0,0,0,1.157-.4l3.847-3.278a.843.843,0,0,0,.349-.7A.719.719,0,0,0,1172.56,491.479Z" fill="#58676a" opacity="0.7"/><path d="M1186.02,499.28l-4.129-2.394a1.531,1.531,0,0,0-.763-.186,1.838,1.838,0,0,0-1.17.4l-3.847,3.278a.817.817,0,0,0-.335.681.726.726,0,0,0,.4.55l4.132,2.395a1.516,1.516,0,0,0,.765.187,1.823,1.823,0,0,0,1.157-.4l3.848-3.278a.831.831,0,0,0,.341-.692A.7.7,0,0,0,1186.02,499.28Z" fill="#58676a" opacity="0.7"/><path d="M1192.75,503.179l-4.129-2.392a1.493,1.493,0,0,0-.751-.185,1.836,1.836,0,0,0-1.17.408l-3.848,3.278a.824.824,0,0,0-.34.686.717.717,0,0,0,.389.539l4.132,2.395a1.536,1.536,0,0,0,.765.186,1.82,1.82,0,0,0,1.156-.4l3.849-3.279a.836.836,0,0,0,.343-.69A.753.753,0,0,0,1192.75,503.179Z" fill="#58676a" opacity="0.7"/><path d="M1162.11,458.489l-4.131-2.394a1.525,1.525,0,0,0-.76-.186,1.843,1.843,0,0,0-1.172.4l-3.848,3.277a.823.823,0,0,0-.338.683.729.729,0,0,0,.4.549l4.13,2.4a1.521,1.521,0,0,0,.753.184,1.831,1.831,0,0,0,1.159-.4l3.847-3.279a.842.842,0,0,0,.344-.7A.688.688,0,0,0,1162.11,458.489Z" fill="#58676a" opacity="0.7"/><path d="M1175.57,466.29l-4.131-2.4a1.5,1.5,0,0,0-.745-.181,1.861,1.861,0,0,0-1.177.4l-3.848,3.279a.822.822,0,0,0-.338.684.714.714,0,0,0,.391.542l4.129,2.394a1.523,1.523,0,0,0,.767.186,1.826,1.826,0,0,0,1.156-.395l3.848-3.279a.845.845,0,0,0,.338-.693A.72.72,0,0,0,1175.57,466.29Z" fill="#58676a" opacity="0.7"/><path d="M1168.84,462.389,1164.708,460a1.5,1.5,0,0,0-.759-.184,1.859,1.859,0,0,0-1.173.4l-3.848,3.279a.823.823,0,0,0-.334.682.725.725,0,0,0,.4.55l4.13,2.394a1.5,1.5,0,0,0,.755.185,1.83,1.83,0,0,0,1.157-.4l3.847-3.279a.846.846,0,0,0,.344-.7A.688.688,0,0,0,1168.84,462.389Z" fill="#58676a" opacity="0.7"/><path d="M1182.3,470.189l-4.133-2.395a1.487,1.487,0,0,0-.744-.18,1.855,1.855,0,0,0-1.175.4l-3.85,3.278a.829.829,0,0,0-.338.685.714.714,0,0,0,.391.542l4.129,2.392a1.521,1.521,0,0,0,.768.19,1.818,1.818,0,0,0,1.154-.4l3.849-3.277a.851.851,0,0,0,.343-.7A.7.7,0,0,0,1182.3,470.189Z" fill="#58676a" opacity="0.7"/><path d="M1204.83,483.248l-4.132-2.394a1.5,1.5,0,0,0-.757-.185,1.861,1.861,0,0,0-1.175.4l-3.846,3.278a.817.817,0,0,0-.335.683.719.719,0,0,0,.4.549l4.129,2.4a1.543,1.543,0,0,0,.766.186,1.82,1.82,0,0,0,1.156-.4l3.848-3.278a.844.844,0,0,0,.339-.694A.677.677,0,0,0,1204.83,483.248Z" fill="#58676a" opacity="0.7"/><path d="M1198.11,479.348l-4.133-2.394a1.507,1.507,0,0,0-.757-.183,1.86,1.86,0,0,0-1.175.4l-3.846,3.279a.816.816,0,0,0-.336.681.727.727,0,0,0,.4.551l4.132,2.394a1.5,1.5,0,0,0,.754.184,1.826,1.826,0,0,0,1.157-.4l3.846-3.279a.844.844,0,0,0,.345-.7A.734.734,0,0,0,1198.11,479.348Z" fill="#58676a" opacity="0.7"/><path d="M1191.38,475.449l-4.13-2.4a1.523,1.523,0,0,0-.761-.186,1.843,1.843,0,0,0-1.171.4l-3.847,3.278a.814.814,0,0,0-.338.683.724.724,0,0,0,.4.549l4.132,2.394a1.493,1.493,0,0,0,.753.185,1.824,1.824,0,0,0,1.156-.4l3.849-3.279a.844.844,0,0,0,.344-.7A.737.737,0,0,0,1191.38,475.449Z" fill="#58676a" opacity="0.7"/><path d="M1143.3,474.521l-4.131-2.395a1.54,1.54,0,0,0-.765-.188,1.828,1.828,0,0,0-1.166.406l-3.849,3.278a.822.822,0,0,0-.338.681.731.731,0,0,0,.4.551l4.129,2.394a1.517,1.517,0,0,0,.756.185,1.824,1.824,0,0,0,1.156-.4l3.848-3.279a.838.838,0,0,0,.348-.7A.7.7,0,0,0,1143.3,474.521Z" fill="#58676a" opacity="0.7"/><path d="M1155.83,463.84l-4.131-2.395a1.528,1.528,0,0,0-.768-.189,1.822,1.822,0,0,0-1.155.4l-3.847,3.278a.851.851,0,0,0-.344.692.729.729,0,0,0,.4.548l4.131,2.394a1.5,1.5,0,0,0,.747.181,1.845,1.845,0,0,0,1.174-.4l3.849-3.279a.818.818,0,0,0,.338-.684A.694.694,0,0,0,1155.83,463.84Z" fill="#58676a" opacity="0.7"/><path d="M1149.56,469.179l-4.13-2.394a1.538,1.538,0,0,0-.768-.188,1.816,1.816,0,0,0-1.153.4l-3.848,3.278a.835.835,0,0,0-.348.692.732.732,0,0,0,.4.548l4.133,2.394a1.505,1.505,0,0,0,.749.183,1.838,1.838,0,0,0,1.17-.407l3.849-3.277a.828.828,0,0,0,.339-.686A.681.681,0,0,0,1149.56,469.179Z" fill="#58676a" opacity="0.7"/><path d="M1211.56,487.148l-4.132-2.394a1.489,1.489,0,0,0-.745-.181,1.87,1.87,0,0,0-1.176.4l-3.847,3.278a.828.828,0,0,0-.34.684.718.718,0,0,0,.391.542l4.131,2.394a1.511,1.511,0,0,0,.763.187,1.832,1.832,0,0,0,1.16-.4l3.846-3.277a.841.841,0,0,0,.339-.694A.681.681,0,0,0,1211.56,487.148Z" fill="#58676a" opacity="0.7"/><path d="M1176.02,475.539l-4.133-2.395a1.491,1.491,0,0,0-.752-.184,1.832,1.832,0,0,0-1.158.4l-3.848,3.278a.853.853,0,0,0-.345.7.713.713,0,0,0,.385.537l4.132,2.394a1.516,1.516,0,0,0,.761.186,1.84,1.84,0,0,0,1.169-.4l3.849-3.278a.818.818,0,0,0,.338-.682A.717.717,0,0,0,1176.02,475.539Z" fill="#58676a" opacity="0.7"/><path d="M1162.56,467.738l-4.13-2.394a1.538,1.538,0,0,0-.767-.186,1.826,1.826,0,0,0-1.156.395l-3.847,3.28a.84.84,0,0,0-.339.692.72.72,0,0,0,.39.548l4.131,2.394a1.5,1.5,0,0,0,.746.181,1.85,1.85,0,0,0,1.175-.407l3.848-3.277a.819.819,0,0,0,.339-.685A.7.7,0,0,0,1162.56,467.738Z" fill="#58676a" opacity="0.7"/><path d="M1185.1,480.8l-4.131-2.393a1.515,1.515,0,0,0-.768-.189,1.806,1.806,0,0,0-1.153.4l-3.848,3.277a.848.848,0,0,0-.343.693.716.716,0,0,0,.394.545l4.131,2.4a1.5,1.5,0,0,0,.746.181,1.861,1.861,0,0,0,1.175-.4l3.848-3.28a.823.823,0,0,0,.34-.684A.729.729,0,0,0,1185.1,480.8Z" fill="#58676a" opacity="0.7"/><path d="M1169.29,471.639l-4.131-2.394a1.5,1.5,0,0,0-.754-.185,1.838,1.838,0,0,0-1.158.4l-3.846,3.28a.847.847,0,0,0-.345.7.706.706,0,0,0,.385.536l4.133,2.395a1.518,1.518,0,0,0,.757.184,1.84,1.84,0,0,0,1.173-.4l3.848-3.277a.814.814,0,0,0,.334-.681A.706.706,0,0,0,1169.29,471.639Z" fill="#58676a" opacity="0.7"/><path d="M1191.83,484.7,1187.7,482.3a1.513,1.513,0,0,0-.765-.186,1.814,1.814,0,0,0-1.156.395l-3.848,3.279a.835.835,0,0,0-.339.692.719.719,0,0,0,.39.546l4.132,2.395a1.476,1.476,0,0,0,.745.182,1.857,1.857,0,0,0,1.175-.406l3.848-3.278a.826.826,0,0,0,.34-.684A.728.728,0,0,0,1191.83,484.7Z" fill="#58676a" opacity="0.7"/><path d="M1205.29,492.5l-4.129-2.395a1.516,1.516,0,0,0-.755-.185,1.827,1.827,0,0,0-1.157.4L1195.4,493.6a.846.846,0,0,0-.345.7.708.708,0,0,0,.384.537l4.132,2.395a1.517,1.517,0,0,0,.757.182,1.855,1.855,0,0,0,1.175-.4l3.846-3.279a.819.819,0,0,0,.336-.68A.759.759,0,0,0,1205.29,492.5Z" fill="#58676a" opacity="0.7"/><path d="M1198.56,488.6l-4.131-2.394a1.523,1.523,0,0,0-.763-.187,1.829,1.829,0,0,0-1.158.4l-3.848,3.277a.84.84,0,0,0-.338.694.718.718,0,0,0,.39.546l4.131,2.395a1.52,1.52,0,0,0,.757.184,1.859,1.859,0,0,0,1.175-.4l3.847-3.278a.819.819,0,0,0,.335-.681A.76.76,0,0,0,1198.56,488.6Z" fill="#58676a" opacity="0.7"/><path d="M1150.03,478.42l-4.131-2.394a1.527,1.527,0,0,0-.762-.186,1.845,1.845,0,0,0-1.17.4l-3.846,3.279a.818.818,0,0,0-.336.681.722.722,0,0,0,.4.549l4.131,2.4a1.507,1.507,0,0,0,.752.185,1.826,1.826,0,0,0,1.158-.4l3.85-3.278a.846.846,0,0,0,.347-.693A.717.717,0,0,0,1150.03,478.42Z" fill="#58676a" opacity="0.7"/><path d="M1156.3,473.081l-4.131-2.4a1.543,1.543,0,0,0-.766-.186,1.823,1.823,0,0,0-1.157.4l-3.848,3.277a.836.836,0,0,0-.342.693.724.724,0,0,0,.393.548l4.133,2.394a1.506,1.506,0,0,0,.749.184,1.839,1.839,0,0,0,1.17-.408l3.849-3.277a.828.828,0,0,0,.339-.686A.716.716,0,0,0,1156.3,473.081Z" fill="#58676a" opacity="0.7"/><path d="M1148.7,489.188l-4.131-2.394a1.517,1.517,0,0,0-.756-.185,1.824,1.824,0,0,0-1.156.4l-3.848,3.279a.844.844,0,0,0-.343.7.706.706,0,0,0,.384.537l4.131,2.395a1.514,1.514,0,0,0,.758.184,1.857,1.857,0,0,0,1.174-.4l3.847-3.279a.82.82,0,0,0,.335-.681A.726.726,0,0,0,1148.7,489.188Z" fill="#58676a" opacity="0.7"/><path d="M1155.43,493.088l-4.132-2.394a1.49,1.49,0,0,0-.753-.184,1.833,1.833,0,0,0-1.157.4l-3.847,3.28a.841.841,0,0,0-.344.693.7.7,0,0,0,.384.539l4.131,2.394a1.514,1.514,0,0,0,.76.186,1.855,1.855,0,0,0,1.172-.4l3.847-3.278a.824.824,0,0,0,.338-.683A.721.721,0,0,0,1155.43,493.088Z" fill="#58676a" opacity="0.7"/><path d="M1122.7,492.07l-4.131-2.394a1.516,1.516,0,0,0-.759-.187,1.849,1.849,0,0,0-1.173.4l-3.846,3.278a.82.82,0,0,0-.34.683.734.734,0,0,0,.4.549l4.131,2.394a1.509,1.509,0,0,0,.754.185,1.829,1.829,0,0,0,1.157-.4l3.849-3.279a.851.851,0,0,0,.343-.7A.691.691,0,0,0,1122.7,492.07Z" fill="#58676a" opacity="0.7"/><path d="M1128.97,486.729l-4.131-2.4a1.532,1.532,0,0,0-.765-.187,1.834,1.834,0,0,0-1.167.407l-3.848,3.277a.82.82,0,0,0-.338.681.729.729,0,0,0,.4.551l4.131,2.394a1.491,1.491,0,0,0,.752.184,1.829,1.829,0,0,0,1.158-.4l3.848-3.279a.842.842,0,0,0,.349-.7A.71.71,0,0,0,1128.97,486.729Z" fill="#58676a" opacity="0.7"/><path d="M1135.24,481.389l-4.131-2.4a1.546,1.546,0,0,0-.768-.187,1.815,1.815,0,0,0-1.153.4l-3.848,3.278a.848.848,0,0,0-.343.694.725.725,0,0,0,.394.546l4.133,2.394a1.489,1.489,0,0,0,.745.181,1.855,1.855,0,0,0,1.176-.4l3.846-3.278a.825.825,0,0,0,.34-.685A.721.721,0,0,0,1135.24,481.389Z" fill="#58676a" opacity="0.7"/><path d="M1129.43,495.969l-4.131-2.392a1.5,1.5,0,0,0-.757-.185,1.858,1.858,0,0,0-1.175.4l-3.847,3.279a.819.819,0,0,0-.335.681.728.728,0,0,0,.4.551l4.13,2.394a1.516,1.516,0,0,0,.755.185,1.829,1.829,0,0,0,1.157-.4l3.848-3.278a.842.842,0,0,0,.343-.7A.7.7,0,0,0,1129.43,495.969Z" fill="#58676a" opacity="0.7"/><path d="M1129.9,505.211l-4.131-2.395a1.5,1.5,0,0,0-.746-.181,1.86,1.86,0,0,0-1.175.4L1120,506.319a.854.854,0,0,0-.345.7.712.712,0,0,0,.385.537l4.133,2.394a1.515,1.515,0,0,0,.755.184h0a1.843,1.843,0,0,0,1.173-.4l3.848-3.277a.844.844,0,0,0,.34-.693A.729.729,0,0,0,1129.9,505.211Z" fill="#58676a" opacity="0.7"/><path d="M1116.44,497.412l-4.131-2.395a1.5,1.5,0,0,0-.761-.186,1.849,1.849,0,0,0-1.17.4l-3.849,3.279a.846.846,0,0,0-.342.693.72.72,0,0,0,.393.547l4.131,2.395a1.5,1.5,0,0,0,.745.181,1.857,1.857,0,0,0,1.176-.4l3.849-3.279a.846.846,0,0,0,.342-.7A.73.73,0,0,0,1116.44,497.412Z" fill="#58676a" opacity="0.7"/><path d="M1123.17,501.311l-4.13-2.395a1.524,1.524,0,0,0-.758-.182,1.854,1.854,0,0,0-1.174.4l-3.849,3.278a.845.845,0,0,0-.339.694.722.722,0,0,0,.392.547l4.129,2.393a1.487,1.487,0,0,0,.745.183,1.856,1.856,0,0,0,1.176-.407l3.848-3.277a.849.849,0,0,0,.344-.7A.738.738,0,0,0,1123.17,501.311Z" fill="#58676a" opacity="0.7"/><path d="M1136.16,499.869l-4.13-2.394a1.494,1.494,0,0,0-.745-.181,1.861,1.861,0,0,0-1.176.4l-3.847,3.279a.827.827,0,0,0-.34.686.717.717,0,0,0,.389.54l4.133,2.394a1.533,1.533,0,0,0,.765.186,1.82,1.82,0,0,0,1.156-.4l3.848-3.278a.845.845,0,0,0,.34-.692A.714.714,0,0,0,1136.16,499.869Z" fill="#58676a" opacity="0.7"/><path d="M1136.63,509.111l-4.131-2.395a1.49,1.49,0,0,0-.746-.181,1.854,1.854,0,0,0-1.175.4l-3.848,3.277a.849.849,0,0,0-.343.7.7.7,0,0,0,.385.537l4.13,2.4a1.526,1.526,0,0,0,.761.186,1.846,1.846,0,0,0,1.171-.4l3.847-3.279a.841.841,0,0,0,.344-.693A.745.745,0,0,0,1136.63,509.111Z" fill="#58676a" opacity="0.7"/><path d="M1135.7,490.628l-4.131-2.394a1.526,1.526,0,0,0-.763-.186,1.844,1.844,0,0,0-1.169.4l-3.848,3.279a.818.818,0,0,0-.335.681.731.731,0,0,0,.4.551l4.13,2.394a1.522,1.522,0,0,0,.754.184,1.826,1.826,0,0,0,1.157-.4l3.848-3.279a.846.846,0,0,0,.349-.694A.714.714,0,0,0,1135.7,490.628Z" fill="#58676a" opacity="0.7"/><path d="M1142.43,494.528l-4.13-2.394a1.51,1.51,0,0,0-.75-.184,1.84,1.84,0,0,0-1.171.408l-3.847,3.277a.828.828,0,0,0-.341.688.711.711,0,0,0,.391.538l4.13,2.4a1.541,1.541,0,0,0,.767.186,1.824,1.824,0,0,0,1.156-.4l3.846-3.278a.835.835,0,0,0,.345-.69A.7.7,0,0,0,1142.43,494.528Z" fill="#58676a" opacity="0.7"/><path d="M1149.16,498.429l-4.131-2.394a1.511,1.511,0,0,0-.751-.184,1.847,1.847,0,0,0-1.17.408l-3.846,3.277a.832.832,0,0,0-.342.686.716.716,0,0,0,.393.54l4.129,2.394a1.53,1.53,0,0,0,.768.188,1.823,1.823,0,0,0,1.155-.4l3.846-3.278a.836.836,0,0,0,.348-.694A.718.718,0,0,0,1149.16,498.429Z" fill="#58676a" opacity="0.7"/><path d="M1141.97,485.289l-4.133-2.4a1.531,1.531,0,0,0-.765-.186,1.82,1.82,0,0,0-1.156.4l-3.848,3.278a.839.839,0,0,0-.338.692.716.716,0,0,0,.389.548l4.132,2.394a1.489,1.489,0,0,0,.745.181,1.855,1.855,0,0,0,1.176-.4l3.847-3.278a.83.83,0,0,0,.34-.687A.711.711,0,0,0,1141.97,485.289Z" fill="#58676a" opacity="0.7"/><path d="M1142.89,503.77l-4.131-2.394a1.5,1.5,0,0,0-.746-.181,1.849,1.849,0,0,0-1.176.4l-3.847,3.278a.826.826,0,0,0-.34.685.71.71,0,0,0,.391.54l4.131,2.394a1.525,1.525,0,0,0,.767.19,1.822,1.822,0,0,0,1.155-.4l3.847-3.278a.849.849,0,0,0,.343-.693A.692.692,0,0,0,1142.89,503.77Z" fill="#58676a" opacity="0.7"/><path d="M1164.5,498.347l-4.131-2.394a1.513,1.513,0,0,0-.766-.188,1.807,1.807,0,0,0-1.155.4l-3.848,3.277a.846.846,0,0,0-.343.693.718.718,0,0,0,.394.545l4.132,2.4a1.5,1.5,0,0,0,.745.181,1.868,1.868,0,0,0,1.176-.4l3.847-3.279a.827.827,0,0,0,.34-.684A.725.725,0,0,0,1164.5,498.347Z" fill="#58676a" opacity="0.7"/><path d="M1171.69,511.488l-4.131-2.395a1.522,1.522,0,0,0-.762-.187,1.84,1.84,0,0,0-1.17.4l-3.846,3.278a.814.814,0,0,0-.335.681.723.723,0,0,0,.4.551l4.131,2.394a1.532,1.532,0,0,0,.766.186,1.811,1.811,0,0,0,1.157-.4l3.848-3.277a.837.837,0,0,0,.342-.693A.7.7,0,0,0,1171.69,511.488Z" fill="#58676a" opacity="0.7"/><path d="M1178.43,515.389l-4.13-2.4a1.493,1.493,0,0,0-.751-.184,1.849,1.849,0,0,0-1.172.407l-3.847,3.279a.818.818,0,0,0-.339.685.712.712,0,0,0,.389.541l4.132,2.394a1.536,1.536,0,0,0,.765.186,1.824,1.824,0,0,0,1.156-.4l3.848-3.277a.834.834,0,0,0,.343-.693A.739.739,0,0,0,1178.43,515.389Z" fill="#58676a" opacity="0.7"/><path d="M1177.96,506.146l-4.131-2.395a1.536,1.536,0,0,0-.765-.186,1.832,1.832,0,0,0-1.158.4l-3.846,3.277a.845.845,0,0,0-.34.694.718.718,0,0,0,.389.546l4.133,2.395a1.518,1.518,0,0,0,.757.184,1.861,1.861,0,0,0,1.175-.4l3.848-3.277a.825.825,0,0,0,.334-.682A.709.709,0,0,0,1177.96,506.146Z" fill="#58676a" opacity="0.7"/><path d="M1184.69,510.047l-4.131-2.395a1.512,1.512,0,0,0-.754-.185,1.827,1.827,0,0,0-1.156.4l-3.848,3.277a.849.849,0,0,0-.345.7.7.7,0,0,0,.385.537l4.131,2.4a1.525,1.525,0,0,0,.759.182,1.849,1.849,0,0,0,1.172-.4l3.847-3.278a.822.822,0,0,0,.337-.682A.71.71,0,0,0,1184.69,510.047Z" fill="#58676a" opacity="0.7"/><path d="M1164.96,507.588l-4.131-2.395a1.523,1.523,0,0,0-.761-.185,1.846,1.846,0,0,0-1.17.4l-3.847,3.278a.815.815,0,0,0-.335.683.723.723,0,0,0,.4.549l4.131,2.394a1.5,1.5,0,0,0,.754.185,1.822,1.822,0,0,0,1.158-.4l3.848-3.277a.848.848,0,0,0,.348-.7A.7.7,0,0,0,1164.96,507.588Z" fill="#58676a" opacity="0.7"/><path d="M1171.23,502.247l-4.131-2.394a1.522,1.522,0,0,0-.766-.186,1.814,1.814,0,0,0-1.156.395l-3.848,3.279a.843.843,0,0,0-.339.693.726.726,0,0,0,.39.547l4.132,2.393a1.479,1.479,0,0,0,.745.183,1.858,1.858,0,0,0,1.176-.407l3.847-3.277a.819.819,0,0,0,.339-.686A.693.693,0,0,0,1171.23,502.247Z" fill="#58676a" opacity="0.7"/><path d="M1159.16,522.17l-4.13-2.394a1.513,1.513,0,0,0-.757-.184,1.864,1.864,0,0,0-1.175.4l-3.847,3.279a.837.837,0,0,0-.339.692.718.718,0,0,0,.39.548l4.13,2.394a1.514,1.514,0,0,0,.758.183,1.857,1.857,0,0,0,1.175-.4l3.848-3.277a.847.847,0,0,0,.339-.692A.733.733,0,0,0,1159.16,522.17Z" fill="#58676a" opacity="0.7"/><path d="M1152.43,518.27l-4.131-2.394a1.51,1.51,0,0,0-.757-.185,1.854,1.854,0,0,0-1.175.4l-3.847,3.277a.84.84,0,0,0-.339.692.715.715,0,0,0,.39.548l4.13,2.394a1.487,1.487,0,0,0,.746.182,1.851,1.851,0,0,0,1.175-.406l3.85-3.277a.848.848,0,0,0,.342-.7A.712.712,0,0,0,1152.43,518.27Z" fill="#58676a" opacity="0.7"/><path d="M1145.7,514.369l-4.131-2.394a1.522,1.522,0,0,0-.76-.185,1.85,1.85,0,0,0-1.172.4l-3.848,3.278a.849.849,0,0,0-.343.693.723.723,0,0,0,.4.547l4.129,2.393a1.475,1.475,0,0,0,.746.182,1.859,1.859,0,0,0,1.175-.4l3.848-3.279a.856.856,0,0,0,.345-.7A.72.72,0,0,0,1145.7,514.369Z" fill="#58676a" opacity="0.7"/><path d="M1165.89,526.07l-4.13-2.394a1.476,1.476,0,0,0-.747-.183,1.851,1.851,0,0,0-1.174.406l-3.847,3.278a.85.85,0,0,0-.345.7.712.712,0,0,0,.385.538l4.131,2.394a1.515,1.515,0,0,0,.757.183,1.85,1.85,0,0,0,1.175-.4l3.848-3.279a.84.84,0,0,0,.338-.691A.73.73,0,0,0,1165.89,526.07Z" fill="#58676a" opacity="0.7"/><path d="M1165.43,516.829l-4.129-2.394a1.513,1.513,0,0,0-.757-.185,1.848,1.848,0,0,0-1.175.4l-3.848,3.278a.819.819,0,0,0-.335.681.732.732,0,0,0,.4.551l4.13,2.394a1.537,1.537,0,0,0,.765.188,1.82,1.82,0,0,0,1.156-.4l3.849-3.278a.843.843,0,0,0,.339-.692A.726.726,0,0,0,1165.43,516.829Z" fill="#58676a" opacity="0.7"/><path d="M1151.97,509.028l-4.129-2.394a1.53,1.53,0,0,0-.762-.186,1.85,1.85,0,0,0-1.171.4l-3.848,3.277a.832.832,0,0,0-.339.683.734.734,0,0,0,.4.55l4.131,2.393a1.491,1.491,0,0,0,.752.184,1.822,1.822,0,0,0,1.158-.4l3.848-3.278a.85.85,0,0,0,.343-.7A.718.718,0,0,0,1151.97,509.028Z" fill="#58676a" opacity="0.7"/><path d="M1158.7,512.929l-4.129-2.394a1.528,1.528,0,0,0-.759-.183,1.849,1.849,0,0,0-1.174.4l-3.847,3.277a.817.817,0,0,0-.335.683.728.728,0,0,0,.4.549l4.13,2.394a1.5,1.5,0,0,0,.753.186,1.831,1.831,0,0,0,1.158-.4l3.848-3.278a.852.852,0,0,0,.343-.7A.713.713,0,0,0,1158.7,512.929Z" fill="#58676a" opacity="0.7"/><path d="M1172.16,520.728l-4.131-2.392a1.476,1.476,0,0,0-.747-.183,1.853,1.853,0,0,0-1.174.406l-3.849,3.278a.828.828,0,0,0-.339.686.713.713,0,0,0,.391.54l4.13,2.394a1.538,1.538,0,0,0,.766.186,1.825,1.825,0,0,0,1.155-.4l3.849-3.28a.842.842,0,0,0,.339-.69A.724.724,0,0,0,1172.16,520.728Z" fill="#58676a" opacity="0.7"/><path d="M1158.23,503.688l-4.13-2.394a1.532,1.532,0,0,0-.765-.188,1.846,1.846,0,0,0-1.167.406l-3.849,3.278a.831.831,0,0,0-.338.683.736.736,0,0,0,.4.551l4.131,2.393a1.511,1.511,0,0,0,.753.185,1.835,1.835,0,0,0,1.159-.4l3.847-3.277a.844.844,0,0,0,.349-.7A.693.693,0,0,0,1158.23,503.688Z" fill="#58676a" opacity="0.7"/><path d="M1137.44,521.127l-4.13-2.394a1.525,1.525,0,0,0-.768-.188,1.811,1.811,0,0,0-1.153.4l-3.849,3.278a.847.847,0,0,0-.343.692.719.719,0,0,0,.394.546l4.132,2.4a1.484,1.484,0,0,0,.745.182,1.865,1.865,0,0,0,1.177-.405l3.846-3.279a.826.826,0,0,0,.34-.685A.724.724,0,0,0,1137.44,521.127Z" fill="#58676a" opacity="0.7"/><path d="M1144.63,534.269l-4.13-2.4a1.522,1.522,0,0,0-.762-.186,1.835,1.835,0,0,0-1.17.406l-3.848,3.277a.814.814,0,0,0-.334.681.725.725,0,0,0,.4.551l4.13,2.394a1.523,1.523,0,0,0,.767.186,1.814,1.814,0,0,0,1.156-.4l3.847-3.279a.837.837,0,0,0,.344-.691A.75.75,0,0,0,1144.63,534.269Z" fill="#58676a" opacity="0.7"/><path d="M1151.36,538.169l-4.132-2.4a1.511,1.511,0,0,0-.75-.182,1.854,1.854,0,0,0-1.171.406l-3.847,3.279a.818.818,0,0,0-.34.684.716.716,0,0,0,.389.542l4.131,2.394a1.542,1.542,0,0,0,.765.186h0a1.829,1.829,0,0,0,1.157-.4l3.848-3.276a.843.843,0,0,0,.343-.694A.741.741,0,0,0,1151.36,538.169Z" fill="#58676a" opacity="0.7"/><path d="M1150.9,528.928l-4.133-2.4a1.526,1.526,0,0,0-.763-.185,1.824,1.824,0,0,0-1.158.4L1141,530.021a.845.845,0,0,0-.34.694.723.723,0,0,0,.39.546l4.132,2.394a1.513,1.513,0,0,0,.757.185,1.859,1.859,0,0,0,1.175-.4l3.847-3.278a.82.82,0,0,0,.335-.683A.75.75,0,0,0,1150.9,528.928Z" fill="#58676a" opacity="0.7"/><path d="M1157.63,532.828l-4.131-2.4a1.506,1.506,0,0,0-.754-.184,1.829,1.829,0,0,0-1.156.4l-3.848,3.278a.84.84,0,0,0-.344.7.708.708,0,0,0,.384.537l4.131,2.394a1.51,1.51,0,0,0,.757.183,1.856,1.856,0,0,0,1.175-.4l3.847-3.279a.821.821,0,0,0,.336-.681A.756.756,0,0,0,1157.63,532.828Z" fill="#58676a" opacity="0.7"/><path d="M1137.9,530.369l-4.131-2.4a1.528,1.528,0,0,0-.762-.186,1.845,1.845,0,0,0-1.17.4l-3.847,3.277a.818.818,0,0,0-.335.683.722.722,0,0,0,.4.549l4.131,2.394a1.485,1.485,0,0,0,.753.185,1.826,1.826,0,0,0,1.157-.4l3.848-3.278a.839.839,0,0,0,.349-.7A.713.713,0,0,0,1137.9,530.369Z" fill="#58676a" opacity="0.7"/><path d="M1144.17,525.027l-4.131-2.394a1.51,1.51,0,0,0-.765-.186,1.811,1.811,0,0,0-1.156.4l-3.848,3.277a.845.845,0,0,0-.338.694.722.722,0,0,0,.389.546l4.133,2.394a1.488,1.488,0,0,0,.744.181,1.854,1.854,0,0,0,1.176-.4l3.847-3.278a.827.827,0,0,0,.34-.686A.727.727,0,0,0,1144.17,525.027Z" fill="#58676a" opacity="0.7"/><path d="M1132.09,544.951l-4.131-2.4a1.518,1.518,0,0,0-.757-.184,1.866,1.866,0,0,0-1.175.4l-3.846,3.279a.84.84,0,0,0-.34.693.716.716,0,0,0,.391.547l4.129,2.4a1.525,1.525,0,0,0,.757.182,1.853,1.853,0,0,0,1.176-.4l3.849-3.279a.842.842,0,0,0,.338-.691A.7.7,0,0,0,1132.09,544.951Z" fill="#58676a" opacity="0.7"/><path d="M1125.36,541.051l-4.131-2.4a1.518,1.518,0,0,0-.757-.184,1.85,1.85,0,0,0-1.174.4l-3.847,3.278a.84.84,0,0,0-.34.692.72.72,0,0,0,.391.548l4.129,2.394a1.5,1.5,0,0,0,.747.181,1.851,1.851,0,0,0,1.174-.405l3.848-3.277a.854.854,0,0,0,.345-.7A.689.689,0,0,0,1125.36,541.051Z" fill="#58676a" opacity="0.7"/><path d="M1118.64,537.15l-4.13-2.4a1.533,1.533,0,0,0-.76-.186,1.851,1.851,0,0,0-1.171.4l-3.849,3.278a.848.848,0,0,0-.342.694.721.721,0,0,0,.394.546l4.13,2.394a1.489,1.489,0,0,0,.747.182,1.859,1.859,0,0,0,1.175-.406l3.848-3.277a.854.854,0,0,0,.344-.7A.75.75,0,0,0,1118.64,537.15Z" fill="#58676a" opacity="0.7"/><path d="M1138.82,548.85l-4.131-2.393a1.48,1.48,0,0,0-.746-.182,1.855,1.855,0,0,0-1.175.406l-3.847,3.277a.847.847,0,0,0-.344.7.708.708,0,0,0,.385.538l4.13,2.393a1.5,1.5,0,0,0,.758.184,1.846,1.846,0,0,0,1.174-.4l3.848-3.279a.845.845,0,0,0,.339-.691A.705.705,0,0,0,1138.82,548.85Z" fill="#58676a" opacity="0.7"/><path d="M1138.36,539.609l-4.13-2.394a1.518,1.518,0,0,0-.757-.184,1.848,1.848,0,0,0-1.175.4l-3.848,3.278a.816.816,0,0,0-.335.68.73.73,0,0,0,.4.551l4.131,2.4a1.534,1.534,0,0,0,.765.186,1.815,1.815,0,0,0,1.156-.4l3.848-3.279a.838.838,0,0,0,.34-.691A.729.729,0,0,0,1138.36,539.609Z" fill="#58676a" opacity="0.7"/><path d="M1124.9,531.809l-4.131-2.393a1.5,1.5,0,0,0-.76-.186,1.85,1.85,0,0,0-1.172.4l-3.848,3.278a.823.823,0,0,0-.338.682.735.735,0,0,0,.4.551l4.132,2.393a1.5,1.5,0,0,0,.753.184,1.822,1.822,0,0,0,1.157-.4l3.849-3.278a.848.848,0,0,0,.342-.7A.689.689,0,0,0,1124.9,531.809Z" fill="#58676a" opacity="0.7"/><path d="M1131.63,535.709l-4.13-2.393a1.514,1.514,0,0,0-.758-.185,1.859,1.859,0,0,0-1.175.4l-3.847,3.278a.82.82,0,0,0-.335.682.728.728,0,0,0,.4.549l4.131,2.4a1.5,1.5,0,0,0,.753.184,1.826,1.826,0,0,0,1.157-.4l3.849-3.278a.849.849,0,0,0,.342-.7A.687.687,0,0,0,1131.63,535.709Z" fill="#58676a" opacity="0.7"/><path d="M1145.09,543.509l-4.131-2.393a1.48,1.48,0,0,0-.746-.183,1.855,1.855,0,0,0-1.175.406l-3.848,3.279a.825.825,0,0,0-.34.685.718.718,0,0,0,.391.54l4.131,2.394a1.52,1.52,0,0,0,.765.186,1.821,1.821,0,0,0,1.156-.4l3.848-3.279a.848.848,0,0,0,.34-.691A.727.727,0,0,0,1145.09,543.509Z" fill="#58676a" opacity="0.7"/><path d="M1131.17,526.469l-4.131-2.4a1.54,1.54,0,0,0-.765-.188,1.847,1.847,0,0,0-1.167.407l-3.848,3.277a.826.826,0,0,0-.338.683.731.731,0,0,0,.4.55l4.131,2.4a1.517,1.517,0,0,0,.752.184,1.825,1.825,0,0,0,1.158-.4l3.848-3.279a.839.839,0,0,0,.349-.694A.712.712,0,0,0,1131.17,526.469Z" fill="#58676a" opacity="0.7"/><path d="M1108,504.41l-4.13-2.394a1.525,1.525,0,0,0-.768-.188,1.815,1.815,0,0,0-1.153.4l-3.849,3.28a.843.843,0,0,0-.343.691.721.721,0,0,0,.4.547l4.132,2.394a1.468,1.468,0,0,0,.745.181,1.851,1.851,0,0,0,1.176-.4l3.846-3.277a.826.826,0,0,0,.34-.686A.725.725,0,0,0,1108,504.41Z" fill="#58676a" opacity="0.7"/><path d="M1115.19,517.551l-4.13-2.4a1.528,1.528,0,0,0-.762-.186,1.843,1.843,0,0,0-1.17.4l-3.847,3.277a.823.823,0,0,0-.335.683.725.725,0,0,0,.4.551l4.131,2.394a1.517,1.517,0,0,0,.766.186,1.829,1.829,0,0,0,1.156-.4l3.847-3.279a.838.838,0,0,0,.344-.691A.755.755,0,0,0,1115.19,517.551Z" fill="#58676a" opacity="0.7"/><path d="M1121.92,521.45l-4.132-2.394a1.51,1.51,0,0,0-.751-.183,1.848,1.848,0,0,0-1.17.407l-3.847,3.277a.824.824,0,0,0-.34.686.71.71,0,0,0,.389.541l4.133,2.4a1.526,1.526,0,0,0,.763.186h0a1.829,1.829,0,0,0,1.156-.4l3.848-3.278a.835.835,0,0,0,.343-.692A.746.746,0,0,0,1121.92,521.45Z" fill="#58676a" opacity="0.7"/><path d="M1121.46,512.209l-4.131-2.394a1.539,1.539,0,0,0-.765-.186,1.824,1.824,0,0,0-1.158.4l-3.846,3.278a.837.837,0,0,0-.34.692.723.723,0,0,0,.389.548l4.132,2.394a1.523,1.523,0,0,0,.757.183,1.859,1.859,0,0,0,1.175-.4l3.847-3.278a.817.817,0,0,0,.335-.682A.754.754,0,0,0,1121.46,512.209Z" fill="#58676a" opacity="0.7"/><path d="M1128.19,516.109l-4.13-2.394a1.513,1.513,0,0,0-.755-.185,1.824,1.824,0,0,0-1.157.4l-3.849,3.278a.846.846,0,0,0-.342.7.711.711,0,0,0,.385.539l4.13,2.392a1.492,1.492,0,0,0,.757.185,1.864,1.864,0,0,0,1.175-.4l3.847-3.279a.826.826,0,0,0,.336-.681A.762.762,0,0,0,1128.19,516.109Z" fill="#58676a" opacity="0.7"/><path d="M1108.46,513.65l-4.131-2.393a1.505,1.505,0,0,0-.763-.186,1.848,1.848,0,0,0-1.169.4l-3.848,3.279a.821.821,0,0,0-.334.681.724.724,0,0,0,.4.551l4.13,2.394a1.524,1.524,0,0,0,.753.184,1.819,1.819,0,0,0,1.158-.4l3.848-3.278a.841.841,0,0,0,.349-.694A.721.721,0,0,0,1108.46,513.65Z" fill="#58676a" opacity="0.7"/><path d="M1114.73,508.311l-4.129-2.395a1.534,1.534,0,0,0-.767-.187,1.822,1.822,0,0,0-1.156.4l-3.848,3.278a.841.841,0,0,0-.338.692.721.721,0,0,0,.389.548l4.133,2.394a1.488,1.488,0,0,0,.744.181,1.852,1.852,0,0,0,1.177-.405l3.847-3.278a.829.829,0,0,0,.339-.685A.724.724,0,0,0,1114.73,508.311Z" fill="#58676a" opacity="0.7"/><path d="M1102.65,528.233l-4.131-2.394a1.519,1.519,0,0,0-.758-.184,1.849,1.849,0,0,0-1.173.4l-3.849,3.279a.84.84,0,0,0-.338.693.718.718,0,0,0,.389.546l4.131,2.4a1.545,1.545,0,0,0,.758.182,1.842,1.842,0,0,0,1.174-.4l3.848-3.277a.838.838,0,0,0,.34-.691A.705.705,0,0,0,1102.65,528.233Z" fill="#58676a" opacity="0.7"/><path d="M1095.92,524.334l-4.13-2.4a1.524,1.524,0,0,0-.758-.182,1.856,1.856,0,0,0-1.174.4l-3.848,3.279a.842.842,0,0,0-.339.693.723.723,0,0,0,.391.548l4.13,2.394a1.5,1.5,0,0,0,.746.181,1.851,1.851,0,0,0,1.174-.405l3.849-3.278a.849.849,0,0,0,.343-.7A.685.685,0,0,0,1095.92,524.334Z" fill="#58676a" opacity="0.7"/><path d="M1089.19,520.434l-4.13-2.4a1.507,1.507,0,0,0-.762-.186,1.845,1.845,0,0,0-1.17.4l-3.848,3.277a.848.848,0,0,0-.343.7.72.72,0,0,0,.394.545l4.13,2.4a1.51,1.51,0,0,0,.747.181,1.856,1.856,0,0,0,1.175-.405l3.846-3.279a.843.843,0,0,0,.345-.7A.687.687,0,0,0,1089.19,520.434Z" fill="#58676a" opacity="0.7"/><path d="M1109.38,532.133l-4.131-2.4a1.5,1.5,0,0,0-.746-.181,1.856,1.856,0,0,0-1.175.405l-3.846,3.279a.843.843,0,0,0-.345.7.7.7,0,0,0,.383.537l4.132,2.4a1.509,1.509,0,0,0,.758.184,1.854,1.854,0,0,0,1.174-.4l3.847-3.279a.842.842,0,0,0,.34-.693A.728.728,0,0,0,1109.38,532.133Z" fill="#58676a" opacity="0.7"/><path d="M1108.92,522.893l-4.131-2.4a1.528,1.528,0,0,0-.757-.183,1.848,1.848,0,0,0-1.173.4l-3.849,3.278a.823.823,0,0,0-.335.682.734.734,0,0,0,.4.551l4.132,2.393a1.523,1.523,0,0,0,.765.187,1.809,1.809,0,0,0,1.156-.4l3.848-3.278a.843.843,0,0,0,.339-.692A.726.726,0,0,0,1108.92,522.893Z" fill="#58676a" opacity="0.7"/><path d="M1095.46,515.092l-4.131-2.394a1.506,1.506,0,0,0-.76-.186,1.85,1.85,0,0,0-1.172.4l-3.848,3.278a.824.824,0,0,0-.338.682.73.73,0,0,0,.4.549l4.132,2.394a1.5,1.5,0,0,0,.753.185,1.834,1.834,0,0,0,1.157-.4l3.847-3.279a.85.85,0,0,0,.345-.7A.693.693,0,0,0,1095.46,515.092Z" fill="#58676a" opacity="0.7"/><path d="M1102.19,518.992l-4.131-2.394a1.5,1.5,0,0,0-.757-.185,1.866,1.866,0,0,0-1.175.4l-3.847,3.279a.822.822,0,0,0-.335.681.729.729,0,0,0,.4.551l4.132,2.394a1.5,1.5,0,0,0,.751.185,1.83,1.83,0,0,0,1.16-.4l3.848-3.276a.847.847,0,0,0,.342-.7A.689.689,0,0,0,1102.19,518.992Z" fill="#58676a" opacity="0.7"/><path d="M1115.65,526.791l-4.131-2.394a1.5,1.5,0,0,0-.746-.181,1.853,1.853,0,0,0-1.176.405l-3.847,3.278a.828.828,0,0,0-.34.687.716.716,0,0,0,.39.538l4.132,2.4a1.532,1.532,0,0,0,.766.186,1.82,1.82,0,0,0,1.155-.4l3.848-3.278a.848.848,0,0,0,.34-.691A.729.729,0,0,0,1115.65,526.791Z" fill="#58676a" opacity="0.7"/><path d="M1101.73,509.751l-4.131-2.394a1.53,1.53,0,0,0-.765-.188,1.834,1.834,0,0,0-1.167.407l-3.848,3.277a.822.822,0,0,0-.338.683.727.727,0,0,0,.4.549l4.131,2.394a1.5,1.5,0,0,0,.753.186,1.832,1.832,0,0,0,1.157-.4l3.848-3.279a.838.838,0,0,0,.349-.7A.711.711,0,0,0,1101.73,509.751Z" fill="#58676a" opacity="0.7"/><path d="M1120.06,471.769l-4.131-2.394a1.522,1.522,0,0,0-.754-.184,1.824,1.824,0,0,0-1.156.4l-3.848,3.28a.84.84,0,0,0-.345.7.7.7,0,0,0,.385.537l4.13,2.394a1.514,1.514,0,0,0,.758.184h0a1.844,1.844,0,0,0,1.172-.4l3.849-3.277a.817.817,0,0,0,.333-.681A.7.7,0,0,0,1120.06,471.769Z" fill="#58676a" opacity="0.7"/><path d="M1126.79,475.669l-4.131-2.4a1.518,1.518,0,0,0-.753-.184,1.829,1.829,0,0,0-1.158.4l-3.848,3.278a.85.85,0,0,0-.344.7.711.711,0,0,0,.385.538l4.131,2.394a1.522,1.522,0,0,0,.76.186,1.844,1.844,0,0,0,1.171-.4l3.849-3.277a.831.831,0,0,0,.338-.683A.725.725,0,0,0,1126.79,475.669Z" fill="#58676a" opacity="0.7"/><path d="M1094.07,474.65l-4.131-2.395a1.525,1.525,0,0,0-.758-.186,1.864,1.864,0,0,0-1.174.4l-3.846,3.278a.823.823,0,0,0-.338.683.731.731,0,0,0,.4.55l4.132,2.393a1.5,1.5,0,0,0,.753.184,1.833,1.833,0,0,0,1.158-.4l3.848-3.277a.85.85,0,0,0,.343-.7A.716.716,0,0,0,1094.07,474.65Z" fill="#58676a" opacity="0.7"/><path d="M1100.34,469.309l-4.131-2.393a1.524,1.524,0,0,0-.765-.189,1.84,1.84,0,0,0-1.166.407l-3.847,3.278a.825.825,0,0,0-.34.682.732.732,0,0,0,.4.551l4.131,2.394a1.507,1.507,0,0,0,.752.185,1.82,1.82,0,0,0,1.158-.4l3.848-3.278a.839.839,0,0,0,.349-.7A.713.713,0,0,0,1100.34,469.309Z" fill="#58676a" opacity="0.7"/><path d="M1106.6,463.969l-4.131-2.395a1.522,1.522,0,0,0-.767-.188,1.818,1.818,0,0,0-1.154.4l-3.847,3.278a.84.84,0,0,0-.344.692.714.714,0,0,0,.393.546l4.133,2.4a1.488,1.488,0,0,0,.745.18,1.862,1.862,0,0,0,1.176-.4l3.847-3.279a.814.814,0,0,0,.339-.684A.7.7,0,0,0,1106.6,463.969Z" fill="#58676a" opacity="0.7"/><path d="M1100.8,478.551l-4.131-2.395a1.53,1.53,0,0,0-.759-.182,1.85,1.85,0,0,0-1.173.4l-3.848,3.278a.823.823,0,0,0-.335.683.732.732,0,0,0,.4.549l4.13,2.394a1.5,1.5,0,0,0,.753.184,1.829,1.829,0,0,0,1.158-.4l3.848-3.277a.856.856,0,0,0,.344-.7A.706.706,0,0,0,1100.8,478.551Z" fill="#58676a" opacity="0.7"/><path d="M1101.26,487.792l-4.13-2.394a1.474,1.474,0,0,0-.745-.182,1.855,1.855,0,0,0-1.176.4l-3.847,3.278a.85.85,0,0,0-.345.7.709.709,0,0,0,.385.537l4.131,2.394a1.507,1.507,0,0,0,.757.183,1.848,1.848,0,0,0,1.173-.4l3.848-3.277a.841.841,0,0,0,.34-.692A.729.729,0,0,0,1101.26,487.792Z" fill="#58676a" opacity="0.7"/><path d="M1087.8,479.991l-4.131-2.394a1.526,1.526,0,0,0-.761-.186,1.84,1.84,0,0,0-1.171.4l-3.848,3.279a.844.844,0,0,0-.343.692.718.718,0,0,0,.394.546l4.131,2.394a1.475,1.475,0,0,0,.746.181,1.854,1.854,0,0,0,1.175-.4l3.849-3.278a.848.848,0,0,0,.342-.7A.688.688,0,0,0,1087.8,479.991Z" fill="#58676a" opacity="0.7"/><path d="M1094.53,483.892,1090.4,481.5a1.514,1.514,0,0,0-.758-.185,1.846,1.846,0,0,0-1.174.4l-3.847,3.278a.843.843,0,0,0-.339.692.716.716,0,0,0,.39.548l4.131,2.394a1.489,1.489,0,0,0,.745.181,1.853,1.853,0,0,0,1.176-.4l3.848-3.277a.852.852,0,0,0,.343-.7A.688.688,0,0,0,1094.53,483.892Z" fill="#58676a" opacity="0.7"/><path d="M1107.53,482.451l-4.13-2.395a1.489,1.489,0,0,0-.747-.181,1.856,1.856,0,0,0-1.175.4l-3.848,3.278a.83.83,0,0,0-.34.685.716.716,0,0,0,.391.541l4.131,2.393a1.513,1.513,0,0,0,.765.188,1.824,1.824,0,0,0,1.158-.4l3.847-3.277a.843.843,0,0,0,.339-.693A.727.727,0,0,0,1107.53,482.451Z" fill="#58676a" opacity="0.7"/><path d="M1107.99,491.69l-4.131-2.392a1.47,1.47,0,0,0-.746-.184,1.858,1.858,0,0,0-1.175.407l-3.846,3.278a.848.848,0,0,0-.345.7.711.711,0,0,0,.385.539l4.131,2.392a1.507,1.507,0,0,0,.76.186,1.844,1.844,0,0,0,1.171-.4l3.849-3.279a.848.848,0,0,0,.343-.692A.758.758,0,0,0,1107.99,491.69Z" fill="#58676a" opacity="0.7"/><path d="M1107.06,473.209l-4.131-2.394a1.525,1.525,0,0,0-.762-.186,1.849,1.849,0,0,0-1.17.4l-3.846,3.278a.815.815,0,0,0-.335.682.725.725,0,0,0,.4.551l4.132,2.393a1.492,1.492,0,0,0,.753.184,1.817,1.817,0,0,0,1.156-.4l3.849-3.278a.84.84,0,0,0,.348-.7A.673.673,0,0,0,1107.06,473.209Z" fill="#58676a" opacity="0.7"/><path d="M1113.8,477.109l-4.132-2.395a1.516,1.516,0,0,0-.749-.183,1.844,1.844,0,0,0-1.172.408l-3.847,3.278a.822.822,0,0,0-.339.685.707.707,0,0,0,.389.54l4.131,2.395a1.529,1.529,0,0,0,.766.185,1.814,1.814,0,0,0,1.156-.395l3.848-3.279a.829.829,0,0,0,.343-.691A.742.742,0,0,0,1113.8,477.109Z" fill="#58676a" opacity="0.7"/><path d="M1120.53,481.01l-4.132-2.394a1.485,1.485,0,0,0-.751-.185,1.844,1.844,0,0,0-1.17.409l-3.847,3.278a.829.829,0,0,0-.34.685.715.715,0,0,0,.391.54l4.131,2.394a1.538,1.538,0,0,0,.768.188,1.829,1.829,0,0,0,1.153-.4l3.848-3.278a.842.842,0,0,0,.348-.693A.766.766,0,0,0,1120.53,481.01Z" fill="#58676a" opacity="0.7"/><path d="M1113.33,467.869l-4.131-2.395a1.537,1.537,0,0,0-.766-.186,1.828,1.828,0,0,0-1.157.395l-3.846,3.28a.837.837,0,0,0-.34.692.726.726,0,0,0,.391.548l4.131,2.392a1.485,1.485,0,0,0,.746.182,1.849,1.849,0,0,0,1.175-.406l3.847-3.277a.83.83,0,0,0,.341-.686A.722.722,0,0,0,1113.33,467.869Z" fill="#58676a" opacity="0.7"/><path d="M1114.26,486.35l-4.131-2.393a1.485,1.485,0,0,0-.746-.182,1.857,1.857,0,0,0-1.175.406l-3.848,3.277a.833.833,0,0,0-.34.686.715.715,0,0,0,.391.54l4.131,2.394a1.521,1.521,0,0,0,.768.189,1.838,1.838,0,0,0,1.155-.4l3.846-3.279a.837.837,0,0,0,.343-.693A.742.742,0,0,0,1114.26,486.35Z" fill="#58676a" opacity="0.7"/><path d="M1079.36,486.99l-4.131-2.395a1.544,1.544,0,0,0-.766-.188,1.818,1.818,0,0,0-1.155.4l-3.847,3.278a.848.848,0,0,0-.344.694.726.726,0,0,0,.394.546l4.132,2.394a1.494,1.494,0,0,0,.745.182,1.863,1.863,0,0,0,1.176-.406l3.848-3.277a.825.825,0,0,0,.339-.686A.728.728,0,0,0,1079.36,486.99Z" fill="#58676a" opacity="0.7"/><path d="M1086.55,500.131l-4.131-2.393a1.51,1.51,0,0,0-.761-.186,1.833,1.833,0,0,0-1.17.4l-3.847,3.278a.813.813,0,0,0-.335.68.723.723,0,0,0,.4.551l4.131,2.4a1.543,1.543,0,0,0,.766.186,1.815,1.815,0,0,0,1.156-.4l3.849-3.278a.833.833,0,0,0,.342-.692A.7.7,0,0,0,1086.55,500.131Z" fill="#58676a" opacity="0.7"/><path d="M1093.28,504.031l-4.13-2.394a1.5,1.5,0,0,0-.751-.184,1.844,1.844,0,0,0-1.171.408l-3.848,3.278a.83.83,0,0,0-.34.685.713.713,0,0,0,.391.54l4.131,2.395a1.526,1.526,0,0,0,.765.187,1.842,1.842,0,0,0,1.158-.4l3.847-3.278a.835.835,0,0,0,.342-.692A.7.7,0,0,0,1093.28,504.031Z" fill="#58676a" opacity="0.7"/><path d="M1092.82,494.791l-4.131-2.395a1.536,1.536,0,0,0-.765-.186,1.819,1.819,0,0,0-1.157.395l-3.847,3.28a.839.839,0,0,0-.34.692.716.716,0,0,0,.391.546l4.131,2.4a1.528,1.528,0,0,0,.757.183,1.85,1.85,0,0,0,1.175-.4l3.848-3.278a.812.812,0,0,0,.333-.681A.7.7,0,0,0,1092.82,494.791Z" fill="#58676a" opacity="0.7"/><path d="M1099.55,498.69l-4.131-2.394a1.5,1.5,0,0,0-.753-.184,1.831,1.831,0,0,0-1.157.4l-3.849,3.279a.853.853,0,0,0-.344.7.708.708,0,0,0,.387.537l4.129,2.394a1.5,1.5,0,0,0,.758.185,1.856,1.856,0,0,0,1.173-.4l3.849-3.279a.822.822,0,0,0,.335-.682A.71.71,0,0,0,1099.55,498.69Z" fill="#58676a" opacity="0.7"/><path d="M1079.82,496.231l-4.131-2.394a1.521,1.521,0,0,0-.761-.186,1.849,1.849,0,0,0-1.171.4l-3.846,3.279a.814.814,0,0,0-.335.681.728.728,0,0,0,.4.551l4.131,2.394a1.515,1.515,0,0,0,.754.185,1.824,1.824,0,0,0,1.158-.4l3.848-3.278a.841.841,0,0,0,.347-.693A.693.693,0,0,0,1079.82,496.231Z" fill="#58676a" opacity="0.7"/><path d="M1086.09,490.892l-4.13-2.4a1.544,1.544,0,0,0-.767-.186,1.822,1.822,0,0,0-1.156.4l-3.847,3.279a.837.837,0,0,0-.34.692.722.722,0,0,0,.391.548l4.131,2.394a1.49,1.49,0,0,0,.746.182,1.844,1.844,0,0,0,1.175-.407l3.848-3.276a.835.835,0,0,0,.34-.688A.724.724,0,0,0,1086.09,490.892Z" fill="#58676a" opacity="0.7"/><path d="M1074.02,510.813l-4.13-2.394a1.51,1.51,0,0,0-.757-.183,1.858,1.858,0,0,0-1.175.4l-3.847,3.278a.847.847,0,0,0-.34.694.722.722,0,0,0,.391.546l4.131,2.394a1.513,1.513,0,0,0,.757.185,1.859,1.859,0,0,0,1.175-.4l3.848-3.278a.845.845,0,0,0,.338-.692A.731.731,0,0,0,1074.02,510.813Z" fill="#58676a" opacity="0.7"/><path d="M1067.29,506.913l-4.131-2.394a1.513,1.513,0,0,0-.757-.184,1.853,1.853,0,0,0-1.175.4l-3.847,3.277a.842.842,0,0,0-.339.694.721.721,0,0,0,.391.548l4.129,2.392a1.5,1.5,0,0,0,.746.183,1.851,1.851,0,0,0,1.175-.406l3.85-3.278a.853.853,0,0,0,.343-.7A.719.719,0,0,0,1067.29,506.913Z" fill="#58676a" opacity="0.7"/><path d="M1060.56,503.014l-4.131-2.393a1.5,1.5,0,0,0-.76-.188,1.847,1.847,0,0,0-1.172.4l-3.848,3.279a.847.847,0,0,0-.343.692.717.717,0,0,0,.4.546l4.129,2.4a1.5,1.5,0,0,0,.746.181,1.86,1.86,0,0,0,1.175-.4l3.848-3.279a.844.844,0,0,0,.344-.7A.715.715,0,0,0,1060.56,503.014Z" fill="#58676a" opacity="0.7"/><path d="M1080.75,514.714l-4.131-2.394a1.486,1.486,0,0,0-.747-.182,1.86,1.86,0,0,0-1.175.405l-3.846,3.278a.852.852,0,0,0-.345.7.709.709,0,0,0,.385.537l4.131,2.394a1.52,1.52,0,0,0,.759.183,1.843,1.843,0,0,0,1.173-.4l3.848-3.277a.852.852,0,0,0,.34-.692A.732.732,0,0,0,1080.75,514.714Z" fill="#58676a" opacity="0.7"/><path d="M1080.29,505.473l-4.131-2.395a1.523,1.523,0,0,0-.757-.184,1.859,1.859,0,0,0-1.175.4l-3.848,3.278a.827.827,0,0,0-.336.682.736.736,0,0,0,.4.551l4.131,2.393a1.526,1.526,0,0,0,.765.187,1.818,1.818,0,0,0,1.156-.4l3.849-3.277a.847.847,0,0,0,.34-.693A.723.723,0,0,0,1080.29,505.473Z" fill="#58676a" opacity="0.7"/><path d="M1066.83,497.674l-4.131-2.4a1.53,1.53,0,0,0-.762-.186,1.847,1.847,0,0,0-1.171.4l-3.849,3.277a.831.831,0,0,0-.338.683.732.732,0,0,0,.4.549l4.13,2.394a1.513,1.513,0,0,0,.753.185,1.829,1.829,0,0,0,1.158-.4l3.848-3.279a.847.847,0,0,0,.343-.7A.7.7,0,0,0,1066.83,497.674Z" fill="#58676a" opacity="0.7"/><path d="M1073.56,501.572l-4.131-2.393a1.5,1.5,0,0,0-.759-.184,1.854,1.854,0,0,0-1.173.4l-3.848,3.28a.818.818,0,0,0-.335.681.73.73,0,0,0,.4.549l4.131,2.4a1.515,1.515,0,0,0,.752.184,1.826,1.826,0,0,0,1.158-.4l3.848-3.277a.848.848,0,0,0,.343-.7A.734.734,0,0,0,1073.56,501.572Z" fill="#58676a" opacity="0.7"/><path d="M1087.02,509.373l-4.131-2.395a1.494,1.494,0,0,0-.745-.181,1.855,1.855,0,0,0-1.176.4l-3.847,3.278a.824.824,0,0,0-.341.685.715.715,0,0,0,.391.541l4.13,2.393a1.521,1.521,0,0,0,.767.186,1.812,1.812,0,0,0,1.154-.4l3.85-3.277a.845.845,0,0,0,.338-.693A.724.724,0,0,0,1087.02,509.373Z" fill="#58676a" opacity="0.7"/><path d="M1073.09,492.332l-4.131-2.395a1.533,1.533,0,0,0-.765-.189,1.839,1.839,0,0,0-1.167.409l-3.848,3.278a.826.826,0,0,0-.339.68.733.733,0,0,0,.4.551l4.131,2.395a1.5,1.5,0,0,0,.753.184,1.828,1.828,0,0,0,1.159-.4l3.848-3.278a.842.842,0,0,0,.348-.7A.685.685,0,0,0,1073.09,492.332Z" fill="#58676a" opacity="0.7"/><path d="M1091.43,454.349l-4.133-2.392a1.486,1.486,0,0,0-.754-.185,1.822,1.822,0,0,0-1.156.4l-3.848,3.279a.853.853,0,0,0-.344.7.707.707,0,0,0,.386.538l4.129,2.395a1.523,1.523,0,0,0,.757.182h0a1.858,1.858,0,0,0,1.174-.4l3.847-3.277a.82.82,0,0,0,.335-.684A.749.749,0,0,0,1091.43,454.349Z" fill="#58676a" opacity="0.7"/><path d="M1098.16,458.249l-4.131-2.394a1.507,1.507,0,0,0-.752-.185,1.816,1.816,0,0,0-1.158.4l-3.848,3.277a.853.853,0,0,0-.345.7.709.709,0,0,0,.386.539l4.13,2.393a1.512,1.512,0,0,0,.762.187,1.855,1.855,0,0,0,1.171-.4l3.847-3.279a.821.821,0,0,0,.338-.683A.728.728,0,0,0,1098.16,458.249Z" fill="#58676a" opacity="0.7"/><path d="M1065.43,457.231l-4.131-2.394a1.522,1.522,0,0,0-.76-.186,1.845,1.845,0,0,0-1.172.4l-3.848,3.277a.82.82,0,0,0-.338.682.733.733,0,0,0,.4.55l4.131,2.394a1.517,1.517,0,0,0,.752.184,1.829,1.829,0,0,0,1.158-.4l3.849-3.279a.855.855,0,0,0,.344-.7A.691.691,0,0,0,1065.43,457.231Z" fill="#58676a" opacity="0.7"/><path d="M1071.7,451.891l-4.13-2.4a1.551,1.551,0,0,0-.766-.187,1.837,1.837,0,0,0-1.167.406l-3.847,3.278a.813.813,0,0,0-.338.683.731.731,0,0,0,.4.549l4.133,2.394a1.491,1.491,0,0,0,.752.184,1.829,1.829,0,0,0,1.158-.4l3.848-3.279a.841.841,0,0,0,.348-.693A.705.705,0,0,0,1071.7,451.891Z" fill="#58676a" opacity="0.7"/><path d="M1077.97,446.549l-4.13-2.395a1.541,1.541,0,0,0-.768-.187,1.819,1.819,0,0,0-1.155.4l-3.846,3.277a.847.847,0,0,0-.343.7.718.718,0,0,0,.394.546l4.13,2.394a1.489,1.489,0,0,0,.747.181,1.849,1.849,0,0,0,1.174-.4l3.848-3.278a.817.817,0,0,0,.339-.685A.721.721,0,0,0,1077.97,446.549Z" fill="#58676a" opacity="0.7"/><path d="M1072.16,461.132l-4.131-2.394a1.5,1.5,0,0,0-.757-.185,1.852,1.852,0,0,0-1.175.4l-3.846,3.277a.816.816,0,0,0-.335.681.725.725,0,0,0,.4.551l4.131,2.394a1.52,1.52,0,0,0,.754.184,1.823,1.823,0,0,0,1.156-.4l3.848-3.279a.848.848,0,0,0,.345-.7A.694.694,0,0,0,1072.16,461.132Z" fill="#58676a" opacity="0.7"/><path d="M1072.62,470.373l-4.131-2.4a1.492,1.492,0,0,0-.746-.18,1.859,1.859,0,0,0-1.175.4l-3.848,3.279a.846.846,0,0,0-.344.7.71.71,0,0,0,.385.536l4.13,2.395a1.537,1.537,0,0,0,.758.183h0a1.841,1.841,0,0,0,1.173-.4l3.848-3.278a.835.835,0,0,0,.338-.692A.7.7,0,0,0,1072.62,470.373Z" fill="#58676a" opacity="0.7"/><path d="M1059.16,462.572l-4.131-2.394a1.512,1.512,0,0,0-.76-.186,1.858,1.858,0,0,0-1.171.4l-3.847,3.279a.851.851,0,0,0-.345.692.724.724,0,0,0,.4.548l4.131,2.394a1.479,1.479,0,0,0,.745.182,1.852,1.852,0,0,0,1.176-.406l3.848-3.279a.85.85,0,0,0,.343-.7A.7.7,0,0,0,1059.16,462.572Z" fill="#58676a" opacity="0.7"/><path d="M1065.89,466.473l-4.131-2.4a1.5,1.5,0,0,0-.757-.183,1.853,1.853,0,0,0-1.175.4l-3.846,3.278a.839.839,0,0,0-.34.692.719.719,0,0,0,.391.548l4.131,2.394a1.488,1.488,0,0,0,.744.182,1.85,1.85,0,0,0,1.176-.406l3.849-3.279a.845.845,0,0,0,.343-.7A.692.692,0,0,0,1065.89,466.473Z" fill="#58676a" opacity="0.7"/><path d="M1078.89,465.031l-4.131-2.395a1.492,1.492,0,0,0-.745-.182,1.863,1.863,0,0,0-1.176.406l-3.849,3.279a.832.832,0,0,0-.338.686.71.71,0,0,0,.39.539l4.13,2.395a1.534,1.534,0,0,0,.765.186,1.822,1.822,0,0,0,1.158-.4l3.847-3.278a.845.845,0,0,0,.34-.692A.727.727,0,0,0,1078.89,465.031Z" fill="#58676a" opacity="0.7"/><path d="M1079.35,474.271l-4.131-2.394a1.5,1.5,0,0,0-.746-.181,1.848,1.848,0,0,0-1.175.4l-3.848,3.279a.846.846,0,0,0-.343.7.7.7,0,0,0,.384.537l4.132,2.395a1.511,1.511,0,0,0,.76.185,1.852,1.852,0,0,0,1.172-.4l3.846-3.278a.846.846,0,0,0,.343-.693A.7.7,0,0,0,1079.35,474.271Z" fill="#58676a" opacity="0.7"/><path d="M1078.43,455.789,1074.3,453.4a1.52,1.52,0,0,0-.763-.186,1.848,1.848,0,0,0-1.169.4l-3.848,3.28a.819.819,0,0,0-.335.681.73.73,0,0,0,.4.551l4.131,2.393a1.5,1.5,0,0,0,.754.185,1.823,1.823,0,0,0,1.156-.4l3.848-3.279a.84.84,0,0,0,.348-.694A.718.718,0,0,0,1078.43,455.789Z" fill="#58676a" opacity="0.7"/><path d="M1085.16,459.689l-4.131-2.394a1.5,1.5,0,0,0-.751-.183,1.851,1.851,0,0,0-1.17.406l-3.848,3.28a.822.822,0,0,0-.34.685.713.713,0,0,0,.391.541l4.13,2.393a1.536,1.536,0,0,0,.765.186,1.825,1.825,0,0,0,1.158-.395l3.847-3.279a.837.837,0,0,0,.343-.691A.723.723,0,0,0,1085.16,459.689Z" fill="#58676a" opacity="0.7"/><path d="M1091.89,463.59l-4.131-2.394a1.5,1.5,0,0,0-.751-.183,1.849,1.849,0,0,0-1.17.406l-3.849,3.278a.827.827,0,0,0-.339.686.716.716,0,0,0,.39.541l4.131,2.393a1.534,1.534,0,0,0,.768.19,1.823,1.823,0,0,0,1.155-.4l3.847-3.277a.837.837,0,0,0,.347-.693A.717.717,0,0,0,1091.89,463.59Z" fill="#58676a" opacity="0.7"/><path d="M1084.7,450.449l-4.131-2.395a1.532,1.532,0,0,0-.766-.186,1.826,1.826,0,0,0-1.156.4l-3.847,3.277a.847.847,0,0,0-.34.693.72.72,0,0,0,.391.547l4.131,2.395a1.507,1.507,0,0,0,.747.181,1.853,1.853,0,0,0,1.174-.4l3.849-3.278a.825.825,0,0,0,.339-.685A.723.723,0,0,0,1084.7,450.449Z" fill="#58676a" opacity="0.7"/><path d="M1085.62,468.931l-4.13-2.394a1.492,1.492,0,0,0-.745-.182,1.852,1.852,0,0,0-1.176.406l-3.847,3.277a.829.829,0,0,0-.34.686.71.71,0,0,0,.39.54l4.13,2.4a1.554,1.554,0,0,0,.77.188,1.818,1.818,0,0,0,1.153-.4l3.848-3.278a.851.851,0,0,0,.343-.694A.7.7,0,0,0,1085.62,468.931Z" fill="#58676a" opacity="0.7"/><path d="M1146.67,448.919l-4.132-2.392a1.493,1.493,0,0,0-.753-.185,1.826,1.826,0,0,0-1.158.4l-3.848,3.279a.852.852,0,0,0-.344.7.715.715,0,0,0,.386.539l4.131,2.394a1.518,1.518,0,0,0,.757.183,1.849,1.849,0,0,0,1.174-.4l3.847-3.277a.819.819,0,0,0,.335-.683A.751.751,0,0,0,1146.67,448.919Z" fill="#58676a" opacity="0.7"/><path d="M1153.4,452.819l-4.132-2.394a1.513,1.513,0,0,0-.753-.184,1.838,1.838,0,0,0-1.158.4l-3.847,3.28a.85.85,0,0,0-.344.7.7.7,0,0,0,.385.538l4.131,2.393a1.5,1.5,0,0,0,.76.186,1.848,1.848,0,0,0,1.171-.4l3.847-3.279a.82.82,0,0,0,.34-.683A.78.78,0,0,0,1153.4,452.819Z" fill="#58676a" opacity="0.7"/><path d="M1120.67,451.8l-4.131-2.395a1.514,1.514,0,0,0-.758-.186,1.847,1.847,0,0,0-1.173.4l-3.847,3.277a.818.818,0,0,0-.338.683.729.729,0,0,0,.4.549l4.131,2.394a1.509,1.509,0,0,0,.754.185,1.833,1.833,0,0,0,1.158-.4l3.848-3.279a.848.848,0,0,0,.343-.7A.709.709,0,0,0,1120.67,451.8Z" fill="#58676a" opacity="0.7"/><path d="M1126.94,446.461l-4.13-2.395a1.553,1.553,0,0,0-.765-.188,1.832,1.832,0,0,0-1.167.407l-3.848,3.277a.824.824,0,0,0-.339.683.734.734,0,0,0,.4.549l4.131,2.394a1.487,1.487,0,0,0,.753.185,1.83,1.83,0,0,0,1.157-.4l3.849-3.28a.841.841,0,0,0,.349-.693A.712.712,0,0,0,1126.94,446.461Z" fill="#58676a" opacity="0.7"/><path d="M1133.2,441.12l-4.131-2.4a1.548,1.548,0,0,0-.768-.187,1.813,1.813,0,0,0-1.153.4l-3.848,3.278a.845.845,0,0,0-.343.694.721.721,0,0,0,.394.546l4.132,2.394a1.469,1.469,0,0,0,.745.182,1.854,1.854,0,0,0,1.176-.406l3.847-3.277a.832.832,0,0,0,.34-.686A.7.7,0,0,0,1133.2,441.12Z" fill="#58676a" opacity="0.7"/><path d="M1127.4,455.7l-4.13-2.393a1.5,1.5,0,0,0-.758-.184,1.854,1.854,0,0,0-1.174.4l-3.847,3.279a.818.818,0,0,0-.335.681.726.726,0,0,0,.4.551l4.133,2.394a1.5,1.5,0,0,0,.752.185,1.822,1.822,0,0,0,1.158-.4l3.848-3.277a.847.847,0,0,0,.343-.7A.72.72,0,0,0,1127.4,455.7Z" fill="#58676a" opacity="0.7"/><path d="M1127.86,464.942l-4.13-2.394a1.486,1.486,0,0,0-.747-.182,1.85,1.85,0,0,0-1.174.406l-3.848,3.279a.842.842,0,0,0-.343.7.705.705,0,0,0,.383.537l4.132,2.395a1.522,1.522,0,0,0,.756.184h0a1.842,1.842,0,0,0,1.173-.4l3.849-3.277a.843.843,0,0,0,.339-.692A.731.731,0,0,0,1127.86,464.942Z" fill="#58676a" opacity="0.7"/><path d="M1114.4,457.143l-4.131-2.393a1.5,1.5,0,0,0-.76-.186,1.849,1.849,0,0,0-1.172.4l-3.848,3.279a.847.847,0,0,0-.343.692.725.725,0,0,0,.394.548l4.131,2.394a1.49,1.49,0,0,0,.746.181,1.86,1.86,0,0,0,1.175-.4l3.848-3.279a.847.847,0,0,0,.343-.7A.686.686,0,0,0,1114.4,457.143Z" fill="#58676a" opacity="0.7"/><path d="M1121.13,461.042,1117,458.648a1.512,1.512,0,0,0-.757-.183,1.853,1.853,0,0,0-1.175.4l-3.848,3.277a.844.844,0,0,0-.338.694.716.716,0,0,0,.391.548l4.129,2.394a1.5,1.5,0,0,0,.746.181,1.85,1.85,0,0,0,1.175-.407l3.848-3.277a.847.847,0,0,0,.343-.7A.719.719,0,0,0,1121.13,461.042Z" fill="#58676a" opacity="0.7"/><path d="M1134.13,459.6l-4.131-2.4a1.489,1.489,0,0,0-.745-.181,1.863,1.863,0,0,0-1.176.4l-3.847,3.279a.826.826,0,0,0-.339.686.713.713,0,0,0,.389.54l4.132,2.394a1.515,1.515,0,0,0,.765.186,1.828,1.828,0,0,0,1.158-.4l3.847-3.277a.839.839,0,0,0,.338-.693A.724.724,0,0,0,1134.13,459.6Z" fill="#58676a" opacity="0.7"/><path d="M1134.59,468.843l-4.131-2.394a1.486,1.486,0,0,0-.747-.182,1.854,1.854,0,0,0-1.175.4l-3.848,3.279a.847.847,0,0,0-.343.7.707.707,0,0,0,.385.537l4.131,2.394a1.514,1.514,0,0,0,.76.186,1.85,1.85,0,0,0,1.172-.4l3.847-3.277a.85.85,0,0,0,.344-.694A.724.724,0,0,0,1134.59,468.843Z" fill="#58676a" opacity="0.7"/><path d="M1133.67,450.359l-4.131-2.393a1.513,1.513,0,0,0-.761-.186,1.845,1.845,0,0,0-1.171.4l-3.848,3.279a.825.825,0,0,0-.335.681.734.734,0,0,0,.4.551l4.131,2.394a1.509,1.509,0,0,0,.754.185,1.822,1.822,0,0,0,1.156-.4l3.849-3.279a.842.842,0,0,0,.348-.693A.715.715,0,0,0,1133.67,450.359Z" fill="#58676a" opacity="0.7"/><path d="M1140.4,454.261l-4.131-2.395a1.5,1.5,0,0,0-.749-.183,1.851,1.851,0,0,0-1.172.407l-3.848,3.279a.832.832,0,0,0-.34.686.715.715,0,0,0,.391.54l4.131,2.394a1.537,1.537,0,0,0,.766.186,1.824,1.824,0,0,0,1.156-.4l3.847-3.279a.831.831,0,0,0,.344-.69A.746.746,0,0,0,1140.4,454.261Z" fill="#58676a" opacity="0.7"/><path d="M1147.13,458.16,1143,455.766a1.5,1.5,0,0,0-.751-.183,1.848,1.848,0,0,0-1.17.407l-3.847,3.278a.831.831,0,0,0-.341.685.72.72,0,0,0,.392.542l4.13,2.393a1.541,1.541,0,0,0,.768.189,1.822,1.822,0,0,0,1.154-.4l3.847-3.278a.84.84,0,0,0,.348-.692A.772.772,0,0,0,1147.13,458.16Z" fill="#58676a" opacity="0.7"/><path d="M1139.94,445.021l-4.132-2.4a1.533,1.533,0,0,0-.765-.186,1.82,1.82,0,0,0-1.156.4l-3.849,3.278a.841.841,0,0,0-.338.692.723.723,0,0,0,.39.548l4.132,2.394a1.489,1.489,0,0,0,.745.181,1.857,1.857,0,0,0,1.176-.4l3.847-3.277a.828.828,0,0,0,.339-.686A.712.712,0,0,0,1139.94,445.021Z" fill="#58676a" opacity="0.7"/><path d="M1140.86,463.5l-4.13-2.395a1.5,1.5,0,0,0-.747-.181,1.847,1.847,0,0,0-1.174.4l-3.849,3.277a.825.825,0,0,0-.339.686.707.707,0,0,0,.391.54l4.13,2.4a1.538,1.538,0,0,0,.768.188,1.822,1.822,0,0,0,1.155-.4l3.846-3.277a.848.848,0,0,0,.343-.7A.745.745,0,0,0,1140.86,463.5Z" fill="#58676a" opacity="0.7"/><path d="M1118.03,431.5l-4.131-2.394a1.517,1.517,0,0,0-.754-.184,1.823,1.823,0,0,0-1.156.4l-3.848,3.279a.842.842,0,0,0-.344.7.7.7,0,0,0,.384.537l4.131,2.395a1.523,1.523,0,0,0,.757.184h0a1.843,1.843,0,0,0,1.173-.4l3.848-3.278a.818.818,0,0,0,.334-.681A.756.756,0,0,0,1118.03,431.5Z" fill="#58676a" opacity="0.7"/><path d="M1124.76,435.4l-4.131-2.395a1.509,1.509,0,0,0-.754-.183,1.825,1.825,0,0,0-1.156.4l-3.848,3.277a.856.856,0,0,0-.345.7.71.71,0,0,0,.385.538l4.131,2.395a1.525,1.525,0,0,0,.762.186,1.853,1.853,0,0,0,1.17-.4l3.848-3.278a.825.825,0,0,0,.338-.683A.725.725,0,0,0,1124.76,435.4Z" fill="#58676a" opacity="0.7"/><path d="M1092.03,434.382l-4.131-2.394a1.521,1.521,0,0,0-.759-.186,1.849,1.849,0,0,0-1.173.4l-3.847,3.279a.818.818,0,0,0-.338.682.729.729,0,0,0,.4.55l4.131,2.394a1.513,1.513,0,0,0,.753.184,1.823,1.823,0,0,0,1.157-.4l3.849-3.278a.848.848,0,0,0,.342-.7A.689.689,0,0,0,1092.03,434.382Z" fill="#58676a" opacity="0.7"/><path d="M1098.3,429.041l-4.131-2.394a1.527,1.527,0,0,0-.765-.188,1.842,1.842,0,0,0-1.167.406l-3.847,3.278a.82.82,0,0,0-.338.683.726.726,0,0,0,.4.55l4.13,2.394a1.511,1.511,0,0,0,.753.185,1.816,1.816,0,0,0,1.158-.4l3.848-3.277a.842.842,0,0,0,.349-.7A.713.713,0,0,0,1098.3,429.041Z" fill="#58676a" opacity="0.7"/><path d="M1104.57,423.7l-4.131-2.393a1.51,1.51,0,0,0-.768-.189,1.819,1.819,0,0,0-1.153.4l-3.846,3.277a.845.845,0,0,0-.345.694.722.722,0,0,0,.4.546l4.131,2.394a1.49,1.49,0,0,0,.746.181,1.862,1.862,0,0,0,1.174-.4l3.847-3.28a.818.818,0,0,0,.34-.684A.725.725,0,0,0,1104.57,423.7Z" fill="#58676a" opacity="0.7"/><path d="M1098.76,438.282l-4.131-2.394a1.515,1.515,0,0,0-.759-.183,1.844,1.844,0,0,0-1.172.4l-3.849,3.279a.819.819,0,0,0-.335.68.734.734,0,0,0,.4.551l4.131,2.395a1.517,1.517,0,0,0,.752.184,1.826,1.826,0,0,0,1.158-.4l3.848-3.277a.853.853,0,0,0,.345-.7A.694.694,0,0,0,1098.76,438.282Z" fill="#58676a" opacity="0.7"/><path d="M1099.22,447.523l-4.131-2.394a1.489,1.489,0,0,0-.745-.182,1.857,1.857,0,0,0-1.176.4l-3.847,3.28a.844.844,0,0,0-.344.7.707.707,0,0,0,.385.537l4.13,2.394a1.514,1.514,0,0,0,.758.184,1.852,1.852,0,0,0,1.174-.4l3.847-3.277a.847.847,0,0,0,.34-.693A.685.685,0,0,0,1099.22,447.523Z" fill="#58676a" opacity="0.7"/><path d="M1085.77,439.725l-4.13-2.4a1.529,1.529,0,0,0-.761-.186,1.846,1.846,0,0,0-1.171.4l-3.847,3.279a.844.844,0,0,0-.345.692.719.719,0,0,0,.4.546l4.13,2.394a1.481,1.481,0,0,0,.747.182,1.854,1.854,0,0,0,1.174-.4l3.85-3.279a.856.856,0,0,0,.343-.7A.735.735,0,0,0,1085.77,439.725Z" fill="#58676a" opacity="0.7"/><path d="M1092.49,443.623l-4.131-2.394a1.508,1.508,0,0,0-.757-.185,1.856,1.856,0,0,0-1.174.4l-3.847,3.278a.842.842,0,0,0-.34.694.715.715,0,0,0,.391.546l4.131,2.394a1.475,1.475,0,0,0,.744.182,1.864,1.864,0,0,0,1.177-.4l3.848-3.278a.852.852,0,0,0,.343-.7A.7.7,0,0,0,1092.49,443.623Z" fill="#58676a" opacity="0.7"/><path d="M1105.49,442.183l-4.131-2.394a1.475,1.475,0,0,0-.746-.182,1.849,1.849,0,0,0-1.175.406l-3.848,3.277a.834.834,0,0,0-.34.686.712.712,0,0,0,.391.539l4.131,2.4a1.531,1.531,0,0,0,.765.185,1.821,1.821,0,0,0,1.157-.4l3.847-3.277a.844.844,0,0,0,.34-.692A.727.727,0,0,0,1105.49,442.183Z" fill="#58676a" opacity="0.7"/><path d="M1105.95,451.424l-4.131-2.395a1.5,1.5,0,0,0-.746-.181,1.854,1.854,0,0,0-1.175.4l-3.847,3.278a.849.849,0,0,0-.344.7.71.71,0,0,0,.385.537l4.13,2.394a1.529,1.529,0,0,0,.761.186,1.846,1.846,0,0,0,1.171-.4l3.849-3.279a.846.846,0,0,0,.342-.692A.7.7,0,0,0,1105.95,451.424Z" fill="#58676a" opacity="0.7"/><path d="M1105.03,432.941l-4.13-2.395a1.538,1.538,0,0,0-.762-.186,1.849,1.849,0,0,0-1.17.4l-3.847,3.278a.823.823,0,0,0-.335.683.725.725,0,0,0,.4.55l4.132,2.394a1.5,1.5,0,0,0,.752.183,1.809,1.809,0,0,0,1.157-.4l3.848-3.277a.844.844,0,0,0,.349-.7A.722.722,0,0,0,1105.03,432.941Z" fill="#58676a" opacity="0.7"/><path d="M1111.76,436.842l-4.133-2.395a1.5,1.5,0,0,0-.749-.184,1.849,1.849,0,0,0-1.172.408l-3.846,3.278a.825.825,0,0,0-.34.685.708.708,0,0,0,.389.541l4.131,2.395a1.544,1.544,0,0,0,.767.184,1.814,1.814,0,0,0,1.156-.395l3.848-3.277a.841.841,0,0,0,.343-.693A.72.72,0,0,0,1111.76,436.842Z" fill="#58676a" opacity="0.7"/><path d="M1118.49,440.742l-4.133-2.395a1.487,1.487,0,0,0-.751-.184,1.847,1.847,0,0,0-1.17.408l-3.846,3.278a.824.824,0,0,0-.34.685.713.713,0,0,0,.391.541l4.13,2.393a1.518,1.518,0,0,0,.768.189,1.817,1.817,0,0,0,1.154-.4l3.848-3.277a.844.844,0,0,0,.347-.7A.713.713,0,0,0,1118.49,440.742Z" fill="#58676a" opacity="0.7"/><path d="M1111.3,427.6l-4.131-2.393a1.533,1.533,0,0,0-.767-.186,1.822,1.822,0,0,0-1.156.395l-3.847,3.279a.84.84,0,0,0-.339.692.72.72,0,0,0,.39.548l4.131,2.393a1.489,1.489,0,0,0,.747.183,1.865,1.865,0,0,0,1.174-.4l3.847-3.28a.824.824,0,0,0,.341-.685A.721.721,0,0,0,1111.3,427.6Z" fill="#58676a" opacity="0.7"/><path d="M1112.22,446.082l-4.131-2.393a1.479,1.479,0,0,0-.747-.184,1.854,1.854,0,0,0-1.174.407l-3.847,3.278a.822.822,0,0,0-.341.686.715.715,0,0,0,.391.539l4.13,2.395a1.529,1.529,0,0,0,.769.188,1.821,1.821,0,0,0,1.154-.4l3.847-3.279a.842.842,0,0,0,.343-.692A.7.7,0,0,0,1112.22,446.082Z" fill="#58676a" opacity="0.7"/><path d="M1050.73,469.571l-4.131-2.394a1.518,1.518,0,0,0-.768-.189,1.81,1.81,0,0,0-1.155.4l-3.846,3.277a.844.844,0,0,0-.343.693.713.713,0,0,0,.394.545l4.131,2.4a1.5,1.5,0,0,0,.746.182,1.861,1.861,0,0,0,1.174-.4l3.849-3.279a.822.822,0,0,0,.338-.686A.717.717,0,0,0,1050.73,469.571Z" fill="#58676a" opacity="0.7"/><path d="M1057.92,482.713l-4.13-2.4a1.536,1.536,0,0,0-.763-.186,1.844,1.844,0,0,0-1.17.4l-3.847,3.278a.82.82,0,0,0-.335.681.729.729,0,0,0,.4.551l4.131,2.394a1.522,1.522,0,0,0,.766.186,1.817,1.817,0,0,0,1.156-.4l3.847-3.279a.83.83,0,0,0,.343-.69A.742.742,0,0,0,1057.92,482.713Z" fill="#58676a" opacity="0.7"/><path d="M1064.65,486.613l-4.131-2.4a1.5,1.5,0,0,0-.751-.183,1.851,1.851,0,0,0-1.17.406l-3.848,3.28a.828.828,0,0,0-.34.684.715.715,0,0,0,.391.542l4.13,2.393a1.526,1.526,0,0,0,.765.186h0a1.821,1.821,0,0,0,1.156-.4l3.847-3.275a.843.843,0,0,0,.344-.693A.741.741,0,0,0,1064.65,486.613Z" fill="#58676a" opacity="0.7"/><path d="M1064.19,477.371l-4.132-2.395a1.532,1.532,0,0,0-.764-.186,1.823,1.823,0,0,0-1.157.4l-3.849,3.277a.843.843,0,0,0-.338.694.717.717,0,0,0,.389.546l4.133,2.395a1.515,1.515,0,0,0,.757.184,1.856,1.856,0,0,0,1.174-.4l3.847-3.278a.817.817,0,0,0,.335-.682A.751.751,0,0,0,1064.19,477.371Z" fill="#58676a" opacity="0.7"/><path d="M1070.92,481.271l-4.133-2.395a1.5,1.5,0,0,0-.752-.185,1.834,1.834,0,0,0-1.158.4l-3.848,3.277a.846.846,0,0,0-.343.7.7.7,0,0,0,.385.538L1065.2,486a1.517,1.517,0,0,0,.757.182,1.854,1.854,0,0,0,1.174-.4l3.847-3.279a.813.813,0,0,0,.335-.682A.753.753,0,0,0,1070.92,481.271Z" fill="#58676a" opacity="0.7"/><path d="M1051.19,478.813l-4.129-2.395a1.528,1.528,0,0,0-.763-.186,1.85,1.85,0,0,0-1.169.4l-3.848,3.278a.826.826,0,0,0-.335.683.73.73,0,0,0,.4.549l4.131,2.394a1.491,1.491,0,0,0,.752.184,1.817,1.817,0,0,0,1.158-.4l3.849-3.277a.852.852,0,0,0,.348-.7A.719.719,0,0,0,1051.19,478.813Z" fill="#58676a" opacity="0.7"/><path d="M1057.46,473.471l-4.131-2.393a1.518,1.518,0,0,0-.767-.186,1.812,1.812,0,0,0-1.154.395l-3.849,3.279a.843.843,0,0,0-.339.692.717.717,0,0,0,.39.546l4.131,2.395a1.5,1.5,0,0,0,.747.182,1.864,1.864,0,0,0,1.176-.406l3.847-3.278a.826.826,0,0,0,.34-.685A.723.723,0,0,0,1057.46,473.471Z" fill="#58676a" opacity="0.7"/><path d="M1045.38,493.395,1041.25,491a1.511,1.511,0,0,0-.758-.185,1.86,1.86,0,0,0-1.173.4l-3.848,3.279a.841.841,0,0,0-.34.692.722.722,0,0,0,.391.548l4.13,2.394a1.514,1.514,0,0,0,.758.183,1.851,1.851,0,0,0,1.174-.4l3.849-3.277a.843.843,0,0,0,.339-.693A.731.731,0,0,0,1045.38,493.395Z" fill="#58676a" opacity="0.7"/><path d="M1038.65,489.494l-4.129-2.394a1.513,1.513,0,0,0-.757-.185,1.865,1.865,0,0,0-1.177.4l-3.846,3.278a.841.841,0,0,0-.34.692.718.718,0,0,0,.391.548l4.131,2.394a1.488,1.488,0,0,0,.744.182,1.854,1.854,0,0,0,1.177-.406l3.848-3.277a.85.85,0,0,0,.343-.7A.694.694,0,0,0,1038.65,489.494Z" fill="#58676a" opacity="0.7"/><path d="M1031.92,485.594l-4.129-2.394a1.535,1.535,0,0,0-.762-.186,1.848,1.848,0,0,0-1.171.4l-3.849,3.277a.85.85,0,0,0-.341.694.715.715,0,0,0,.394.546l4.131,2.394a1.469,1.469,0,0,0,.745.182,1.857,1.857,0,0,0,1.176-.4l3.846-3.278a.847.847,0,0,0,.345-.7A.694.694,0,0,0,1031.92,485.594Z" fill="#58676a" opacity="0.7"/><path d="M1052.11,497.293l-4.13-2.392a1.479,1.479,0,0,0-.747-.183,1.855,1.855,0,0,0-1.175.406l-3.848,3.278a.846.846,0,0,0-.343.7.71.71,0,0,0,.384.538l4.132,2.394a1.518,1.518,0,0,0,.757.183,1.848,1.848,0,0,0,1.173-.4l3.848-3.279a.842.842,0,0,0,.34-.69A.735.735,0,0,0,1052.11,497.293Z" fill="#58676a" opacity="0.7"/><path d="M1051.65,488.054l-4.131-2.394a1.508,1.508,0,0,0-.757-.185,1.848,1.848,0,0,0-1.175.4l-3.846,3.278a.819.819,0,0,0-.336.681.728.728,0,0,0,.4.551l4.131,2.394a1.543,1.543,0,0,0,.766.186,1.811,1.811,0,0,0,1.155-.395l3.848-3.278a.841.841,0,0,0,.34-.692A.724.724,0,0,0,1051.65,488.054Z" fill="#58676a" opacity="0.7"/><path d="M1038.19,480.253l-4.131-2.394a1.522,1.522,0,0,0-.76-.186,1.845,1.845,0,0,0-1.172.4l-3.848,3.277a.828.828,0,0,0-.338.683.733.733,0,0,0,.4.55l4.131,2.393a1.5,1.5,0,0,0,.754.184,1.822,1.822,0,0,0,1.156-.4l3.849-3.278a.856.856,0,0,0,.344-.7A.692.692,0,0,0,1038.19,480.253Z" fill="#58676a" opacity="0.7"/><path d="M1044.92,484.153l-4.131-2.394a1.51,1.51,0,0,0-.759-.183,1.844,1.844,0,0,0-1.172.4l-3.849,3.277a.82.82,0,0,0-.333.682.726.726,0,0,0,.4.55l4.131,2.394a1.5,1.5,0,0,0,.752.184,1.834,1.834,0,0,0,1.16-.4l3.846-3.278a.854.854,0,0,0,.345-.7A.694.694,0,0,0,1044.92,484.153Z" fill="#58676a" opacity="0.7"/><path d="M1058.38,491.952l-4.131-2.392a1.469,1.469,0,0,0-.745-.184,1.858,1.858,0,0,0-1.176.407l-3.847,3.278a.817.817,0,0,0-.339.686.709.709,0,0,0,.389.539l4.131,2.395a1.543,1.543,0,0,0,.766.186,1.824,1.824,0,0,0,1.156-.4l3.848-3.279a.845.845,0,0,0,.339-.69A.729.729,0,0,0,1058.38,491.952Z" fill="#58676a" opacity="0.7"/><path d="M1044.46,474.912l-4.129-2.395a1.549,1.549,0,0,0-.766-.188,1.849,1.849,0,0,0-1.168.406l-3.847,3.278a.828.828,0,0,0-.338.683.732.732,0,0,0,.4.551l4.131,2.393a1.506,1.506,0,0,0,.753.185,1.831,1.831,0,0,0,1.157-.4l3.848-3.277a.842.842,0,0,0,.35-.7A.721.721,0,0,0,1044.46,474.912Z" fill="#58676a" opacity="0.7"/><g opacity="0.1"><path d="M1109.32,423.511l85.55,85.549,10.07-8.706-50.27-50.276Z" fill="#fff"/></g><g opacity="0.1"><path d="M1054.48,453.943l94.65,94.651,21.67-18.729-94.65-94.648Z" fill="#fff"/></g><g opacity="0.1"><path d="M1034.76,470.988l71.21,71.218L1132,557.455l-91.46-91.465Z" fill="#fff"/></g></g></svg>