<svg xmlns="http://www.w3.org/2000/svg" xmlns:xlink="http://www.w3.org/1999/xlink" width="277.546" height="215.584" viewBox="0 0 277.546 215.584">
  <defs>
    <linearGradient id="linear-gradient" x1="0.38" y1="0.61" x2="0.729" y2="0.008" gradientUnits="objectBoundingBox">
      <stop offset="0" stop-color="#a1a1bd"/>
      <stop offset="1" stop-color="#fff"/>
    </linearGradient>
    <linearGradient id="linear-gradient-2" x1="0.323" y1="-0.03" x2="0.677" y2="1.03" gradientUnits="objectBoundingBox">
      <stop offset="0" stop-color="#d6d6dd"/>
      <stop offset="1" stop-color="#dfdfe5"/>
    </linearGradient>
  </defs>
  <g id="Inversion" transform="translate(-444.168 -677.576)">
    <path id="Path_707" data-name="Path 707" d="M580.052,747.277c-11.292,8.7-21.487,2.36-32.092,4.831-14.579,2.592-27.85,10.58-41.888,15.843-16.833,6.845-49.162,9.563-49.162,23.031,0,20.38,46.783,3.621,60.524-.435,18.292-5.4-42.806,48.388-64.559,64.058-14.236,9.716-11.242,26.071,10.657,16.357-19.828,22.934,3.818,26.362,15.52,15.6,2.326,17.688,34.664-4.883,43.529-13.3,9.811,17.5,24.124-4.024,46.059-14.518,28.377-13.576,31.263-19.92,35.372-27.3,8.831-15.86,19.641-36.263,26.465-41.4,9.346-7.034,91.237-54.915,91.237-54.915L650.4,686.629S584.847,743.582,580.052,747.277Z" fill="url(#linear-gradient)"/>
    <g id="Group_218" data-name="Group 218">
      <path id="Path_708" data-name="Path 708" d="M629.874,712.022c-7.157-3.055-13.3-2.465-17.422.943h0c-.505.419-27.6,26.675-32.4,30.37-11.292,8.7-21.487,2.359-32.092,4.83-14.579,2.592-27.85,10.58-41.888,15.843-16.833,6.845-49.162,9.563-49.162,23.032,0,20.379,46.783,3.62,60.524-.436,18.292-5.4-42.806,48.388-64.559,64.058-14.236,9.716-11.242,26.071,10.657,16.358-19.828,22.932,3.818,26.361,15.52,15.6,2.326,17.688,34.664-4.883,43.529-13.3,9.811,17.5,24.124-4.023,46.059-14.518,28.377-13.575,31.263-19.918,35.372-27.3,8.831-15.86,19.641-36.263,26.465-41.4,9.346-7.033,19.333-14.734,21.762-16.611,4.392-3.2,6.736-9.357,5.945-17.63C656.656,735.873,643.983,718.019,629.874,712.022Z" fill="#fac49e"/>
      <path id="Path_709" data-name="Path 709" d="M483.585,790.2s-27.7,9.428-22.423-10.7c-2.66,2.09-4.25,4.551-4.25,7.541,0,19.659,43.53,4.76,58.94.039C500.309,781.787,483.585,790.2,483.585,790.2Z" fill="#e6a67c"/>
      <path id="Path_710" data-name="Path 710" d="M657.122,745.885c-.29,5.869-2.593,10.094-5.92,12.8-11.1,9.028-28.109,12.187-28.109,12.187s-10.351,28.973-18.971,44.453c-4.01,7.21-13.55,27.41-41.26,40.67-21.41,10.24-41.873,23.836-32.55,2.01-8.66,8.211-45.48,37.211-47.76,19.94-11.42,10.51-35.58,9.04-16.22-13.351-14.05,6.23-19.96-1.09-18.41-9.539-8.07,9.4-3.22,20.319,15.61,11.97-19.83,22.93,3.82,26.36,15.52,15.6,2.33,17.69,34.66-4.88,43.53-13.3,9.81,17.5,24.12-4.02,46.06-14.52,28.37-13.57,31.26-19.92,35.37-27.3,8.83-15.859,19.64-36.26,26.46-41.39,9.35-7.04,19.34-14.74,21.77-16.62,4.39-3.2,6.729-9.35,5.94-17.63A39.743,39.743,0,0,0,657.122,745.885Z" fill="#e6a67c"/>
      <g id="Group_217" data-name="Group 217">
        <path id="Path_711" data-name="Path 711" d="M621.062,777.64c.31-.347,9.339-8.164,9.672-8.491-8.127-6.042-18.3-9.92-20.787-11.2C613.913,762.6,621.062,769.684,621.062,777.64Z" fill="#e6a67c"/>
        <path id="Path_712" data-name="Path 712" d="M519.416,782.056c-.421,1.076-1.1,2.729-1.98,4.55a38.975,38.975,0,0,1,5.613-1.334c.028-.393.042-.81.042-1.245a102.233,102.233,0,0,0-1.424-17.214C521.71,772.229,521.382,777.032,519.416,782.056Z" fill="#e6a67c"/>
        <path id="Path_713" data-name="Path 713" d="M478.34,773.572q-.252.105-.506.2c4.1,4.238,4.4,17.49,5.829,20.9C490.03,787.481,483.635,777.022,478.34,773.572Z" fill="#e6a67c"/>
        <path id="Path_714" data-name="Path 714" d="M511.8,826.319c-9.551,9.452-21.46,16.948-31.651,25.712C473.8,857.5,465.1,862.087,459.38,868.459c1.376-.506,2.748-1.031,4.153-1.438a141.794,141.794,0,0,1,11.994-9.363c9.1-6.784,17.214-14.8,26.212-21.731,4.6-3.544,9.425-6.756,13.862-10.5,2.519-2.121,7.608-5.482,8.5-8.516C519.309,817.519,515.165,822.986,511.8,826.319Z" fill="#e6a67c"/>
        <path id="Path_715" data-name="Path 715" d="M492.225,866.441c-13.007,12.636-14.978,17.832-14.215,17.18a13.078,13.078,0,0,0,.99-.94l.005-.009c.463-.665.922-1.325,1.357-1.938a80.363,80.363,0,0,1,10.679-11.344c8.08-7.406,16.324-14.728,24.569-21.989,10.112-8.9,20.814-16.9,31.076-25.557-7.753,1.054-15.566,8.53-21.494,13.408C513.531,844.854,503.019,855.956,492.225,866.441Z" fill="#e6a67c"/>
        <path id="Path_716" data-name="Path 716" d="M525.349,862.385a23.034,23.034,0,0,0-2.792,6.959,62.659,62.659,0,0,1,10.777-13.624c3.685-3.67,7.752-6.947,11.544-10.5,4.35-4.072,11.775-8.7,14.56-13.814C552.311,838.531,534.551,847.742,525.349,862.385Z" fill="#e6a67c"/>
        <path id="Path_717" data-name="Path 717" d="M559.216,831.623c3.708-.806,6.244-.342,8.821-.219a63.468,63.468,0,0,1,13.1,2.784C576.509,828.575,564.162,828.08,559.216,831.623Z" fill="#e6a67c"/>
        <path id="Path_718" data-name="Path 718" d="M581.134,834.188c.011.013.024.022.034.036.133.125.14.118.018-.02Z" fill="#e6a67c"/>
        <path id="Path_719" data-name="Path 719" d="M534.7,852.654a30.778,30.778,0,0,1,3.026-.688c-.076,0-.152-.01-.228-.011C535.326,851.945,533.351,853.066,534.7,852.654Z" fill="#e6a67c"/>
        <path id="Path_720" data-name="Path 720" d="M537.725,851.966a42.085,42.085,0,0,1,5.807,1.057c4.4.789,10.9.563,14.659,2.972-3.444-1.986-5.711-3.99-9.846-4.408A39.138,39.138,0,0,0,537.725,851.966Z" fill="#e6a67c"/>
        <path id="Path_721" data-name="Path 721" d="M499.362,860.352c2.433.663,3.417,2.438,6.288,3.847,2.533,1.243,6.569.405,8.256,2.853C512.572,863.956,500.619,857.8,499.362,860.352Z" fill="#e6a67c"/>
        <path id="Path_722" data-name="Path 722" d="M521.807,840.462c-.083.333.029.678-.053,1-1.8-.1-2.035.234-2.106.665,1.857.268,14.48,3.711,17.027,3.55C532.966,842.6,526.595,840.082,521.807,840.462Z" fill="#e6a67c"/>
        <path id="Path_723" data-name="Path 723" d="M542.4,823.266c2.351,2.562,10.981,4.044,19.835,3.865a58.412,58.412,0,0,0-7.6-3.342C550.351,822.5,546.615,823.465,542.4,823.266Z" fill="#e6a67c"/>
        <path id="Path_724" data-name="Path 724" d="M471.023,859.651c1.01,2.829,14.9,4.957,18.087,4.478C484.636,861.394,475.938,857.706,471.023,859.651Z" fill="#e6a67c"/>
        <path id="Path_725" data-name="Path 725" d="M499.7,837.26c4.821,2.4,10.6,1.521,16.332,3.883C512.494,837.183,504.541,837.259,499.7,837.26Z" fill="#e6a67c"/>
        <path id="Path_726" data-name="Path 726" d="M522.858,818.379c5.432-1.057,8.641-.694,17.482,1.146C536.436,817.586,526.154,815.646,522.858,818.379Z" fill="#e6a67c"/>
        <path id="Path_727" data-name="Path 727" d="M464.085,842.63c-.375.268-.74.534-1.105.8a25.2,25.2,0,0,1,6.315,4.607c1.868,1.882,2.374,4.017,3.76,5.632C473.471,849.006,469.122,843.791,464.085,842.63Z" fill="#e6a67c"/>
        <path id="Path_728" data-name="Path 728" d="M490.985,822.35q-1.215.969-2.435,1.934c3.951,1.152,6.821,7.121,10.051,8.385C499.252,829.171,495.119,823.965,490.985,822.35Z" fill="#e6a67c"/>
        <path id="Path_729" data-name="Path 729" d="M521.771,813.9a17.144,17.144,0,0,0-5.347-5.194,8.945,8.945,0,0,0-5.22-1.342,3.4,3.4,0,0,0-1.72.489c1.85.21,3.482,1.445,5.057,2.371a15.769,15.769,0,0,1,3.329,2.5,19.448,19.448,0,0,1,2.491,2.192,21.249,21.249,0,0,1,1.566,3.051c.058.118.136.569.244.637.389.241,1.4-.575,1.529-.9a3.265,3.265,0,0,0-1.042-.1C523.311,816.58,522.3,814.8,521.771,813.9Z" fill="#e6a67c"/>
      </g>
      <path id="Path_730" data-name="Path 730" d="M619.542,732.224l-5.587,4.548-5.484,4.672c-1.791,1.6-3.619,3.159-5.374,4.8-3.549,3.243-7.03,6.568-10.319,10.122,4.089-2.595,7.988-5.418,11.818-8.324,1.934-1.43,3.8-2.946,5.694-4.419l5.585-4.551,5.481-4.675c1.792-1.6,3.618-3.161,5.374-4.8,3.548-3.243,7.03-6.567,10.322-10.118-4.086,2.6-7.984,5.422-11.815,8.327C623.3,729.235,621.438,730.749,619.542,732.224Z" fill="#e6a67c"/>
      <path id="Path_731" data-name="Path 731" d="M613.709,744.449c-1.891,1.59-3.78,3.182-5.619,4.832l-2.757,2.479c-.9.854-1.813,1.683-2.689,2.561,1.021-.7,2-1.457,3-2.184l2.936-2.265c1.956-1.512,3.862-3.083,5.767-4.655,1.89-1.591,3.779-3.182,5.618-4.833s3.682-3.3,5.448-5.038c-2.03,1.423-3.989,2.93-5.938,4.449S615.615,742.877,613.709,744.449Z" fill="#e6a67c"/>
    </g>
    <g id="Group_228" data-name="Group 228">
      <g id="Group_219" data-name="Group 219">
        <path id="Path_732" data-name="Path 732" d="M550.809,817.759c-5.375-3.213-14.214-3.3-19.744-.2-3.02,1.694-4.428,3.99-4.208,6.249,1.457,10.74,14.274,13.022,21.868,8.823,3.613-2.176,5.466-4.873,6.009-8.745C554.96,821.7,553.656,819.461,550.809,817.759Z" fill="#283838"/>
      </g>
      <g id="Group_220" data-name="Group 220">
        <path id="Path_733" data-name="Path 733" d="M564.153,802.869c-11.163-6.906-31.6-6.969-43.115-.108-10.316,6.147-7.992,14.885,3.214,19.627,10.2,4.314,25.549,4.323,35.883.032C571.453,817.721,574.121,809.035,564.153,802.869ZM559.1,821.9c-9.715,4.072-24.213,4.063-33.794-.032-10.472-4.477-12.5-12.659-2.792-18.365,10.752-6.319,29.7-6.264,40.135.1C572.042,809.328,569.689,817.465,559.1,821.9Z" fill="#58676a"/>
      </g>
      <g id="Group_221" data-name="Group 221">
        <path id="Path_734" data-name="Path 734" d="M564.465,802.855c-15.563-10.082-49.58-5.494-50.621,9.161-.963,13.572,26.556,20.288,46.079,12.946.05-.021.108-.044.063-.025C573.651,818.953,573.887,808.959,564.465,802.855Zm-4.33,19.565c-10.334,4.291-25.688,4.282-35.883-.032-11.206-4.742-13.53-13.479-3.214-19.627,11.512-6.86,31.953-6.8,43.115.108C574.121,809.035,571.453,817.721,560.135,822.42Z" fill="#8d8c91"/>
      </g>
      <path id="Path_735" data-name="Path 735" d="M559.541,819.354c-9.984,4.285-24.855,4.273-34.7-.04-5.158-2.259-8.309-5.358-9.154-8.665l.772,3.02c.8,3.126,3.845,6.061,8.854,8.2,9.581,4.1,24.079,4.1,33.794.032,5.241-2.2,8.428-5.243,9.225-8.475l.745-3.022C568.232,813.822,564.936,817.038,559.541,819.354Z" fill="#283838"/>
      <g id="Group_222" data-name="Group 222">
        <path id="Path_736" data-name="Path 736" d="M565.575,795.078c-11.864-7.9-33.759-7.979-46-.146-10.889,6.97-8.259,16.8,3.649,22.1,10.78,4.795,26.939,4.811,37.859.051C573.1,811.842,576.089,802.076,565.575,795.078Zm-5.549,21.439c-10.282,4.526-25.567,4.511-35.714-.05-11.146-5.011-13.449-14.229-3.183-20.705,11.448-7.223,31.767-7.148,42.871.133C573.923,802.4,571.284,811.561,560.026,816.517Z" fill="#58676a"/>
      </g>
      <g id="Group_223" data-name="Group 223">
        <path id="Path_737" data-name="Path 737" d="M565.908,795.063c-16.564-11.55-52.991-6.3-53.845,10.35-.778,15.171,28.216,22.6,48.772,14.494l.066-.028C575.407,813.22,575.843,801.989,565.908,795.063Zm-4.824,22.018c-10.919,4.76-27.079,4.744-37.859-.051-11.909-5.3-14.538-15.128-3.649-22.1,12.24-7.834,34.135-7.751,46,.146C576.089,802.076,573.1,811.842,561.084,817.081Z" fill="#8d8c91"/>
      </g>
      <path id="Path_738" data-name="Path 738" d="M560.5,813.668c-10.576,4.773-26.265,4.754-36.7-.06-5.512-2.542-8.905-6.044-9.84-9.788l.85,3.4c.881,3.531,4.156,6.838,9.5,9.242,10.146,4.561,25.432,4.576,35.714.05,5.591-2.462,9.015-5.891,9.892-9.539l.819-3.407C569.808,807.439,566.262,811.068,560.5,813.668Z" fill="#283838"/>
      <g id="Group_224" data-name="Group 224">
        <path id="Path_739" data-name="Path 739" d="M567.2,786.172c-12.66-9.116-36.23-9.225-49.3-.191-11.526,7.969-8.53,19.109,4.176,25.066,11.434,5.361,28.49,5.385,40.065.073C574.958,805.241,578.323,794.181,567.2,786.172Zm-6.157,24.322c-10.911,5.059-27.06,5.035-37.833-.07-11.9-5.641-14.529-16.1-3.65-23.5,12.229-8.325,34.1-8.227,45.961.175C576.031,794.543,573.053,804.928,561.044,810.494Z" fill="#58676a"/>
      </g>
      <g id="Group_225" data-name="Group 225">
        <path id="Path_740" data-name="Path 740" d="M567.558,786.154c-17.7-13.361-56.906-7.29-57.51,11.788-.54,17.07,30.1,25.337,51.8,16.337.051-.023.107-.049.071-.031C577.374,806.794,578.062,794.082,567.558,786.154Zm-5.412,24.966c-11.575,5.312-28.631,5.288-40.065-.073-12.706-5.957-15.7-17.1-4.176-25.066,13.066-9.033,36.637-8.925,49.3.191C578.323,794.181,574.958,805.241,562.146,811.12Z" fill="#8d8c91"/>
      </g>
      <path id="Path_741" data-name="Path 741" d="M561.59,807.306c-11.248,5.353-27.859,5.324-38.969-.083-5.866-2.855-9.529-6.8-10.611-11.03l.987,3.86c1.016,3.975,4.54,7.681,10.215,10.371,10.772,5.1,26.922,5.129,37.833.07,5.93-2.749,9.609-6.588,10.622-10.7l.951-3.863C571.54,800.311,567.717,804.391,561.59,807.306Z" fill="#283838"/>
      <g id="Group_226" data-name="Group 226">
        <path id="Path_742" data-name="Path 742" d="M569.462,775.873c-19.008-15.634-61.447-8.528-61.71,13.554-.231,19.353,32.248,28.6,55.236,18.551a1.087,1.087,0,0,0,.225-.185.527.527,0,0,1-.15.149C579.594,799.541,580.6,785.034,569.462,775.873Zm-6.126,28.551c-12.314,5.965-30.37,5.93-42.542-.1-13.617-6.748-17.06-19.479-4.82-28.679,14.012-10.532,39.536-10.39,53.1.25C580.878,785.148,577.053,797.779,563.336,804.424Z" fill="#8d8c91"/>
      </g>
      <g id="Group_227" data-name="Group 227">
        <path id="Path_743" data-name="Path 743" d="M569.077,775.894c-13.567-10.64-39.092-10.782-53.1-.25-12.239,9.2-8.8,21.931,4.82,28.679,12.173,6.031,30.229,6.066,42.542.1C577.053,797.779,580.878,785.148,569.077,775.894Zm-6.889,27.831c-11.618,5.689-28.734,5.655-40.214-.1-12.763-6.4-15.788-18.352-4.221-26.9,13.122-9.7,36.808-9.571,49.524.229C578.442,785.559,575.053,797.427,562.188,803.725Z" fill="#58676a"/>
      </g>
      <path id="Path_744" data-name="Path 744" d="M521,798.328c-6.4-3.342-10.46-7.977-11.73-12.982l1.643,6.477c1.152,4.539,4.973,8.756,11.057,11.8,11.48,5.753,31.761,6.582,44.859-2.7a19.452,19.452,0,0,0,5.488-6.146C560.146,800.99,533.04,804.613,521,798.328Z" fill="#283838"/>
      <path id="Path_745" data-name="Path 745" d="M569.521,754.094c-14.551-8.7-38.483-8.939-53.454-.539s-15.31,22.262-.759,30.96,38.483,8.94,53.454.54S584.071,762.793,569.521,754.094Z" fill="url(#linear-gradient-2)"/>
      <path id="Path_746" data-name="Path 746" d="M568.762,785.055c-14.971,8.4-38.9,8.158-53.454-.54-7.156-4.278-10.71-9.8-10.7-15.315l-.036,12.756c-.016,5.512,3.539,11.038,10.7,15.316,14.551,8.7,38.483,8.94,53.454.539,7.608-4.269,11.438-9.948,11.454-15.645l.036-12.756C580.2,775.1,576.37,780.785,568.762,785.055Z" fill="#8d8c91"/>
      <path id="Path_747" data-name="Path 747" d="M564.644,749.482c-11.917-8.331-31.516-8.563-43.776-.518s-15.984,23.6-2.875,31.074,34.671,7.678,48.158.464S576.561,757.813,564.644,749.482Z" fill="#583b19"/>
    </g>
    <g id="Group_236" data-name="Group 236">
      <g id="Group_229" data-name="Group 229">
        <path id="Path_748" data-name="Path 748" d="M550.025,705.668a7.2,7.2,0,0,1-2.788-2.4s1.538,13.161,6.064,10.591C554.942,712.923,553.926,707.412,550.025,705.668Z" fill="#85bc2d"/>
        <path id="Path_749" data-name="Path 749" d="M551.786,708.828c-4.036-2.5-4.549-5.564-4.549-5.564s-1.512,9.972,5.322,12.5C552.56,715.768,556.223,711.574,551.786,708.828Z" fill="#acdf46"/>
      </g>
      <g id="Group_230" data-name="Group 230">
        <path id="Path_750" data-name="Path 750" d="M532.878,729.143c15.44-3.045,12.766-19.553,12.766-19.553C537.824,712.947,532.878,729.143,532.878,729.143Z" fill="#acdf46"/>
        <path id="Path_751" data-name="Path 751" d="M532.484,729.307s9.418-3.532,8.917-11.422c-.4-6.348,4.243-8.295,4.243-8.295S528.272,714.86,532.484,729.307Z" fill="#85bc2d"/>
      </g>
      <g id="Group_231" data-name="Group 231">
        <path id="Path_752" data-name="Path 752" d="M551.313,725.725s14.8-5.831,17.36-13.4C568.673,712.322,553.019,711.043,551.313,725.725Z" fill="#acdf46"/>
        <path id="Path_753" data-name="Path 753" d="M561.222,716.91c-7.425.115-10.033,9.2-10.033,9.2,13.838,2.872,17.484-13.784,17.484-13.784S567.194,716.817,561.222,716.91Z" fill="#85bc2d"/>
      </g>
      <g id="Group_232" data-name="Group 232">
        <path id="Path_754" data-name="Path 754" d="M502.18,717.571c6.976,8.88,29.43,9.689,29.43,9.689C522.432,708.5,502.18,717.571,502.18,717.571Z" fill="#acdf46"/>
        <path id="Path_755" data-name="Path 755" d="M514.264,720.179c-8,2.685-12.084-2.607-12.084-2.607s12.691,20.474,29.774,10.14C531.954,727.711,524.209,716.841,514.264,720.179Z" fill="#85bc2d"/>
      </g>
      <g id="Group_233" data-name="Group 233">
        <path id="Path_756" data-name="Path 756" d="M528.25,710.689c5.112,2.3,16.554-9.793,13.9-22.211a21.416,21.416,0,0,1,.886-10.9S514.15,704.332,528.25,710.689Z" fill="#85bc2d"/>
        <path id="Path_757" data-name="Path 757" d="M522.422,711.771s14.159,1.124,19.185-3.945C541.607,707.826,529.549,700.66,522.422,711.771Z" fill="#acdf46"/>
        <path id="Path_758" data-name="Path 758" d="M522.36,712.263s16.481,1.44,15.3-14.02c-1.078-14.065,5.381-20.667,5.381-20.667S516.458,691.424,522.36,712.263Z" fill="#acdf46"/>
        <path id="Path_759" data-name="Path 759" d="M533.83,708.586c-6-2.819-11.656,3.443-11.656,3.443,9.977,7.731,19.434-4.2,19.434-4.2S538.658,710.853,533.83,708.586Z" fill="#85bc2d"/>
        <path id="Path_760" data-name="Path 760" d="M505.854,682.693c-.3,12.5,18.3,29.021,18.3,29.021C529.542,689.227,505.854,682.693,505.854,682.693Z" fill="#acdf46"/>
        <path id="Path_761" data-name="Path 761" d="M514.336,693.438c-8.725-3.347-8.481-10.745-8.481-10.745s-3.6,26.432,18.279,29.649C524.133,712.343,525.182,697.6,514.336,693.438Z" fill="#85bc2d"/>
      </g>
      <g id="Group_234" data-name="Group 234">
        <path id="Path_762" data-name="Path 762" d="M524.87,734.837a11.678,11.678,0,0,1-5.942.451s16.854,13.266,19.074,5.139C538.807,737.48,531.325,732.354,524.87,734.837Z" fill="#85bc2d"/>
        <path id="Path_763" data-name="Path 763" d="M530.505,736.425c-7.476,1.776-11.578-1.137-11.578-1.137s9.712,13.122,20.422,8.174C539.35,743.462,538.723,734.472,530.505,736.425Z" fill="#acdf46"/>
      </g>
      <path id="Path_764" data-name="Path 764" d="M544.09,751.276a77.48,77.48,0,0,0-2.987-10.649,64.255,64.255,0,0,0-4.656-10.028l-1.423-2.373-1.582-2.272-3.017-4.34a21.054,21.054,0,0,1-1.386-2.217l-1.313-2.267a24.674,24.674,0,0,1-1.174-2.338l-1.121-2.372a50.5,50.5,0,0,1-3.013-10.045,42.476,42.476,0,0,1-.7-10.526,34.476,34.476,0,0,1,2.141-10.4,34.831,34.831,0,0,0-2.888,10.325,43.605,43.605,0,0,0-.034,10.818,52.439,52.439,0,0,0,2.4,10.626l.99,2.548a26.606,26.606,0,0,0,1.054,2.525l1.2,2.459a22.99,22.99,0,0,0,1.285,2.418l2.778,4.662,1.327,2.221,1.172,2.309a60.1,60.1,0,0,1,3.686,9.659,72.569,72.569,0,0,1,2.089,10.132c.242,1.706.387,3.424.5,5.135.094,1.687.149,3.479.088,5.022l0,.084c0,.067,0,.137,0,.206a3,3,0,0,0,6-.19c-.063-2.026-.257-3.8-.488-5.664C544.762,754.91,544.476,753.084,544.09,751.276Z" fill="#458401"/>
      <path id="Path_765" data-name="Path 765" d="M532.6,742.3c-4.779-.081-5.958-3.68-5.958-3.68s2.9,13.332,13.978,11.047C540.617,749.666,538.539,742.4,532.6,742.3Z" fill="#85bc2d"/>
      <path id="Path_766" data-name="Path 766" d="M553.325,711.859a58.412,58.412,0,0,1-3.561,9.924,79.037,79.037,0,0,1-5.128,9.178q-1.416,2.21-2.977,4.313c-1.017,1.39-2.127,2.813-3.184,4.025l-.037.042a3.322,3.322,0,0,0-.244.325,3.008,3.008,0,1,0,5.046,3.277c1.081-1.663,1.969-3.22,2.856-4.865q1.324-2.437,2.48-4.947a82.819,82.819,0,0,0,3.988-10.275,60.636,60.636,0,0,0,2.239-10.747,38.643,38.643,0,0,0-.5-10.833A37.773,37.773,0,0,1,553.325,711.859Z" fill="#458401"/>
      <g id="Group_235" data-name="Group 235">
        <path id="Path_767" data-name="Path 767" d="M549.964,737.8c2.7,3.532,15.239-.606,18.061-10.272a16.993,16.993,0,0,1,4.721-7.277S542.513,728.061,549.964,737.8Z" fill="#85bc2d"/>
        <path id="Path_768" data-name="Path 768" d="M545.26,736.686s10.962,7.207,15.953-4.031c4.54-10.223,11.532-12.4,11.532-12.4S548.981,719.918,545.26,736.686Z" fill="#acdf46"/>
      </g>
    </g>
  </g>
</svg>
