<svg xmlns="http://www.w3.org/2000/svg" xmlns:xlink="http://www.w3.org/1999/xlink" width="196.536" height="219.564" viewBox="0 0 196.536 219.564">
  <defs>
    <linearGradient id="linear-gradient" x1="0.256" y1="1.156" x2="0.725" y2="-0.132" gradientUnits="objectBoundingBox">
      <stop offset="0" stop-color="#a1a1bd"/>
      <stop offset="1" stop-color="#fff"/>
    </linearGradient>
    <linearGradient id="linear-gradient-2" x1="0.5" y1="0.205" x2="0.5" y2="0.781" gradientUnits="objectBoundingBox">
      <stop offset="0" stop-color="#60bae4"/>
      <stop offset="1" stop-color="#4371b0"/>
    </linearGradient>
  </defs>
  <g id="population" transform="translate(-469.755 -123.906)">
    <path id="Path_1003" data-name="Path 1003" d="M664.719,245.554,645.3,234.011a3.169,3.169,0,0,0-3.141-.031L482.877,322.849a3.169,3.169,0,0,0-.059,5.5l25.425,14.685a3.17,3.17,0,0,0,3.172.02L664.69,251.044A3.168,3.168,0,0,0,664.719,245.554Z" fill="url(#linear-gradient)"/>
    <g id="Group_284" data-name="Group 284">
      <g id="Group_281" data-name="Group 281">
        <path id="Path_1004" data-name="Path 1004" d="M491.658,314.568c-1.625-.932-3.088-1.021-4.146-.413l-.007-.013-4.4,2.675,8.649,14.456,4.212-2.562c.024-.013.048-.028.072-.043l.087-.054,0-.006a4.237,4.237,0,0,0,1.559-3.77A13.282,13.282,0,0,0,491.658,314.568Z" fill="#283838"/>
        <path id="Path_1005" data-name="Path 1005" d="M487.395,317.157c-3.281-1.882-5.9-.333-5.859,3.459a13.283,13.283,0,0,0,6.023,10.272c3.281,1.881,5.9.332,5.859-3.459A13.287,13.287,0,0,0,487.395,317.157Z" fill="#58676a"/>
      </g>
      <path id="Path_1006" data-name="Path 1006" d="M519.377,257.213a11.988,11.988,0,0,1-5.667-1.475l-30.965-17.356,5.35,74.878a10.391,10.391,0,0,1,1.194.6,17.017,17.017,0,0,1,7.941,13.532,12.694,12.694,0,0,1-.077,1.436l10.216,5.312a15.4,15.4,0,0,0,15.641-.165l2.415-1.449L519.9,257.189A3.783,3.783,0,0,1,519.377,257.213Z" fill="#458401"/>
      <path id="Path_1007" data-name="Path 1007" d="M490.681,300.641a2.621,2.621,0,0,0-2.833-.6c-.166.064-.331.128-.47.166a.988.988,0,0,1-.2.051l.432,6.137a15.579,15.579,0,0,0,2.77-.852c.025-.012.038-.012.051-.025a2.628,2.628,0,0,0,.839-4.3Z" fill="url(#linear-gradient-2)"/>
      <path id="Path_1008" data-name="Path 1008" d="M568.741,124.413,480.31,177.3a10.948,10.948,0,0,0-5.439,9.382l-.258,36.119a3.7,3.7,0,0,0,5.537,3.231l88.64-52.707a10.947,10.947,0,0,0,5.494-9.487l.013-36.229A3.7,3.7,0,0,0,568.741,124.413Z" fill="#458401"/>
      <path id="Path_1009" data-name="Path 1009" d="M519.9,257.19l-4.01,70.126a6,6,0,0,0,9.085,5.476l68-41.064a6,6,0,0,0,2.772-3.918l17.541-84.759-88.106,52.618A11.163,11.163,0,0,1,519.9,257.19Z" fill="#85bc2d"/>
      <path id="Path_1010" data-name="Path 1010" d="M614.326,193.717l-4.489-1.1-88.99,60.564a3.665,3.665,0,0,0-1.475,5.016,11.136,11.136,0,0,0,5.809-1.269l87.2-52.091a7.326,7.326,0,0,0,2.015-11.041C614.371,193.767,614.349,193.741,614.326,193.717Z" fill="#458401"/>
      <path id="Path_1011" data-name="Path 1011" d="M484.64,240.37l29.069,16.356a12,12,0,0,0,6.183,1.457l.008-.01.219-7.9-39.067-20.145A8.215,8.215,0,0,0,484.64,240.37Z" fill="#458401"/>
      <path id="Path_1012" data-name="Path 1012" d="M613.491,193.069l-31.474-17.944a10.946,10.946,0,0,0-10.963.068l-88.423,53.08a3.7,3.7,0,0,0,.063,6.411l31.5,17.677a10.943,10.943,0,0,0,10.844-.074l88.476-52.809A3.7,3.7,0,0,0,613.491,193.069Z" fill="#acdf46"/>
      <path id="Path_1013" data-name="Path 1013" d="M606.392,193.352l-26.629-15.183a6.392,6.392,0,0,0-6.4.04l-83.608,50.254a2.348,2.348,0,0,0,.04,4.073l26.63,14.944a6.393,6.393,0,0,0,6.333-.043l83.651-50.014A2.347,2.347,0,0,0,606.392,193.352Z" fill="#458401"/>
      <path id="Path_1014" data-name="Path 1014" d="M606.392,193.352l-26.629-15.183a6.4,6.4,0,0,0-3.167-.84c-.05,0-.1.008-.149.01v38l29.959-17.912A2.348,2.348,0,0,0,606.392,193.352Z" fill="#407b05"/>
      <path id="Path_1015" data-name="Path 1015" d="M571.893,125.969l-88.431,52.887a10.95,10.95,0,0,0-5.439,9.383l-.258,36.119a3.7,3.7,0,0,0,5.538,3.231l88.639-52.707a10.942,10.942,0,0,0,5.494-9.487l.012-36.229A3.7,3.7,0,0,0,571.893,125.969Z" fill="#85bc2d"/>
      <g id="Group_282" data-name="Group 282">
        <path id="Path_1016" data-name="Path 1016" d="M566.826,256.669c-.332.839-1.37,3.438-1.37,3.438l4.3,5.506,7.665-9.709-3.025-4.336C572.533,249.063,569.116,250.871,566.826,256.669Z" fill="#fff"/>
        <path id="Path_1017" data-name="Path 1017" d="M547.894,284.023c-1.771,4.669-.187,7.231,4.336,4.658.654-.372,2.684-1.512,2.684-1.512l3.878-10.511-7.819-.46Z" fill="#fff"/>
        <path id="Path_1018" data-name="Path 1018" d="M556.328,261.377l-2.069,5.427-2.64-.082,4.176,6.069,9.038-5.659-2.6-.081,4.055-10.859a12.034,12.034,0,0,1,3.64-5.181l-6.688,3.861C557.685,258.079,557.489,258.917,556.328,261.377Z" fill="#fff"/>
        <path id="Path_1019" data-name="Path 1019" d="M560.322,284.662l-8.457,4.883c-.743.5-2.6,1.514-4.056.416l3.345,4.716c2.777,3.917,3.422,3.376,5.353,2.521l4.229-2.5.108,3.364,4.312-10.88L560.3,281.22Z" fill="#fff"/>
        <path id="Path_1020" data-name="Path 1020" d="M581.087,260.354l2.532-3.282-8.488,4.811L570.945,273.5l2.493-3.232,3.315,4.29,1.641-.947c3.664-2.114,6.946-7.21,4.854-10.333Z" fill="#fff"/>
        <path id="Path_1021" data-name="Path 1021" d="M579.229,273.747c-4.851,2.935-11.931,6.888-11.931,6.888l.088,10.453,7.51-4.337a9.74,9.74,0,0,0,3.835-5.019c1.076-3.1,4.575-12.584,4.575-12.584A11.314,11.314,0,0,1,579.229,273.747Z" fill="#fff"/>
      </g>
      <g id="Group_283" data-name="Group 283">
        <path id="Path_1022" data-name="Path 1022" d="M490.681,300.641a2.621,2.621,0,0,0-2.833-.6c-.166.064-.331.128-.47.166a.988.988,0,0,1-.2.051,13.36,13.36,0,0,1-3.863.533,12.122,12.122,0,0,1-5.908-1.359,1.952,1.952,0,0,1-1-1.689,1.863,1.863,0,0,1,.9-1.64l9.2-5.247-.47-6.62L474.3,290.895a8.272,8.272,0,0,0-4.523,6.328c-.013.178-.025.355-.025.521,0,2.693,1.677,5.209,4.612,6.9a17.935,17.935,0,0,0,8.945,2.211,19.68,19.68,0,0,0,4.294-.457,15.579,15.579,0,0,0,2.77-.852c.025-.012.038-.012.051-.025a2.628,2.628,0,0,0,.839-4.3Z" fill="#b8b4a9"/>
      </g>
    </g>
  </g>
</svg>
